<svg width="720" height="310" viewBox="0 0 720 310" fill="none" xmlns="http://www.w3.org/2000/svg">
<path d="M314.426 132.291C313.933 127.921 311.902 124.536 308.332 122.135C304.762 119.704 300.269 118.488 294.852 118.488C290.974 118.488 287.619 119.103 284.788 120.335C281.957 121.535 279.756 123.197 278.186 125.32C276.648 127.413 275.878 129.798 275.878 132.476C275.878 134.723 276.401 136.661 277.448 138.293C278.525 139.924 279.925 141.293 281.649 142.401C283.403 143.478 285.28 144.386 287.281 145.125C289.281 145.833 291.205 146.418 293.051 146.879L302.284 149.28C305.301 150.018 308.394 151.019 311.564 152.281C314.734 153.542 317.673 155.204 320.381 157.266C323.089 159.328 325.275 161.883 326.936 164.93C328.629 167.977 329.475 171.624 329.475 175.871C329.475 181.226 328.091 185.981 325.321 190.136C322.582 194.29 318.596 197.568 313.364 199.969C308.163 202.369 301.869 203.57 294.483 203.57C287.404 203.57 281.279 202.446 276.109 200.2C270.939 197.953 266.891 194.768 263.968 190.643C261.044 186.489 259.428 181.564 259.12 175.871H273.431C273.708 179.287 274.816 182.134 276.755 184.411C278.725 186.658 281.233 188.335 284.28 189.443C287.358 190.52 290.728 191.059 294.39 191.059C298.422 191.059 302.007 190.428 305.147 189.166C308.317 187.874 310.81 186.089 312.625 183.811C314.441 181.503 315.349 178.81 315.349 175.732C315.349 172.932 314.549 170.639 312.949 168.854C311.379 167.069 309.24 165.591 306.532 164.422C303.854 163.252 300.823 162.221 297.437 161.329L286.265 158.282C278.694 156.22 272.693 153.188 268.261 149.188C263.86 145.187 261.659 139.893 261.659 133.307C261.659 127.859 263.137 123.104 266.091 119.042C269.046 114.979 273.047 111.825 278.094 109.578C283.141 107.301 288.835 106.162 295.175 106.162C301.577 106.162 307.224 107.285 312.118 109.532C317.042 111.779 320.92 114.872 323.751 118.811C326.583 122.72 328.06 127.213 328.183 132.291H314.426ZM374.675 203.431C367.689 203.431 361.672 201.938 356.625 198.953C351.608 195.937 347.73 191.705 344.991 186.258C342.283 180.78 340.929 174.363 340.929 167.007C340.929 159.744 342.283 153.342 344.991 147.803C347.73 142.263 351.546 137.939 356.44 134.83C361.364 131.722 367.119 130.168 373.706 130.168C377.706 130.168 381.584 130.829 385.339 132.153C389.094 133.476 392.464 135.554 395.449 138.385C398.434 141.216 400.789 144.894 402.512 149.418C404.236 153.912 405.098 159.375 405.098 165.807V170.7H348.73V160.359H391.571C391.571 156.728 390.833 153.512 389.355 150.711C387.878 147.879 385.801 145.648 383.123 144.017C380.476 142.386 377.368 141.57 373.798 141.57C369.92 141.57 366.535 142.524 363.642 144.433C360.779 146.31 358.563 148.772 356.994 151.819C355.455 154.835 354.686 158.113 354.686 161.652V169.731C354.686 174.47 355.517 178.502 357.179 181.826C358.871 185.15 361.226 187.689 364.242 189.443C367.258 191.167 370.782 192.028 374.813 192.028C377.429 192.028 379.815 191.659 381.969 190.92C384.123 190.151 385.985 189.012 387.555 187.504C389.125 185.996 390.325 184.134 391.156 181.918L404.22 184.273C403.174 188.12 401.297 191.49 398.588 194.383C395.911 197.245 392.541 199.476 388.478 201.077C384.447 202.646 379.845 203.431 374.675 203.431ZM419.113 202V131.091H432.454V142.355H433.193C434.486 138.539 436.763 135.538 440.025 133.353C443.318 131.137 447.042 130.029 451.197 130.029C452.059 130.029 453.075 130.06 454.244 130.121C455.444 130.183 456.383 130.26 457.06 130.352V143.555C456.506 143.402 455.521 143.232 454.106 143.048C452.69 142.832 451.274 142.724 449.858 142.724C446.596 142.724 443.688 143.417 441.133 144.802C438.61 146.156 436.609 148.049 435.132 150.48C433.655 152.881 432.916 155.62 432.916 158.697V202H419.113ZM512.624 172.593V131.091H526.473V202H512.901V189.72H512.162C510.531 193.506 507.915 196.66 504.314 199.184C500.744 201.677 496.297 202.923 490.972 202.923C486.417 202.923 482.386 201.923 478.877 199.923C475.399 197.891 472.66 194.891 470.66 190.92C468.69 186.95 467.705 182.041 467.705 176.194V131.091H481.509V174.532C481.509 179.364 482.847 183.211 485.525 186.073C488.202 188.935 491.68 190.366 495.958 190.366C498.543 190.366 501.113 189.72 503.668 188.428C506.253 187.135 508.392 185.181 510.085 182.565C511.808 179.949 512.654 176.625 512.624 172.593ZM564.355 203.57C559.862 203.57 555.8 202.739 552.168 201.077C548.536 199.384 545.659 196.937 543.535 193.737C541.442 190.536 540.396 186.612 540.396 181.964C540.396 177.964 541.165 174.67 542.704 172.085C544.243 169.5 546.32 167.453 548.936 165.945C551.552 164.437 554.476 163.299 557.708 162.529C560.939 161.76 564.232 161.175 567.587 160.775C571.834 160.282 575.281 159.882 577.928 159.575C580.575 159.236 582.498 158.697 583.698 157.959C584.899 157.22 585.499 156.02 585.499 154.358V154.035C585.499 150.003 584.36 146.879 582.083 144.663C579.836 142.447 576.481 141.339 572.019 141.339C567.371 141.339 563.709 142.37 561.032 144.433C558.385 146.464 556.554 148.726 555.538 151.219L542.566 148.264C544.104 143.955 546.351 140.478 549.306 137.831C552.291 135.153 555.723 133.214 559.6 132.014C563.478 130.783 567.556 130.168 571.834 130.168C574.666 130.168 577.666 130.506 580.836 131.183C584.037 131.83 587.022 133.03 589.792 134.784C592.593 136.538 594.886 139.047 596.671 142.309C598.456 145.54 599.348 149.741 599.348 154.912V202H585.868V192.305H585.314C584.422 194.09 583.083 195.845 581.298 197.568C579.513 199.292 577.22 200.723 574.419 201.862C571.619 203 568.264 203.57 564.355 203.57ZM567.356 192.49C571.172 192.49 574.435 191.736 577.143 190.228C579.882 188.72 581.96 186.75 583.375 184.319C584.822 181.857 585.545 179.225 585.545 176.425V167.284C585.053 167.777 584.099 168.238 582.683 168.669C581.298 169.069 579.713 169.423 577.928 169.731C576.143 170.008 574.404 170.269 572.711 170.516C571.019 170.731 569.603 170.916 568.464 171.07C565.786 171.408 563.34 171.978 561.124 172.778C558.939 173.578 557.184 174.732 555.861 176.24C554.568 177.717 553.922 179.687 553.922 182.149C553.922 185.565 555.184 188.151 557.708 189.905C560.231 191.628 563.447 192.49 567.356 192.49ZM616.433 202V131.091H630.237V202H616.433ZM623.404 120.15C621.004 120.15 618.942 119.35 617.218 117.749C615.526 116.118 614.679 114.179 614.679 111.933C614.679 109.655 615.526 107.716 617.218 106.116C618.942 104.485 621.004 103.669 623.404 103.669C625.805 103.669 627.852 104.485 629.544 106.116C631.268 107.716 632.129 109.655 632.129 111.933C632.129 114.179 631.268 116.118 629.544 117.749C627.852 119.35 625.805 120.15 623.404 120.15Z" fill="white"/>
<path d="M165.14 98.5916C166.319 96.5509 169.264 96.5509 170.442 98.5916L197.364 145.221C198.542 147.262 197.069 149.813 194.713 149.813H140.87C138.513 149.813 137.04 147.262 138.219 145.221L165.14 98.5916Z" fill="#FAFF00"/>
<rect x="74" y="99.5814" width="50.2316" height="50.2316" rx="3.06107" fill="#25CBFF"/>
<circle cx="99.1158" cy="191.673" r="25.1158" fill="#25FF21"/>
</svg>
