<svg width="808" height="808" viewBox="0 0 808 808" fill="none" xmlns="http://www.w3.org/2000/svg">
<rect width="808" height="808" fill="#0F1318"/>
<circle cx="404.416" cy="327.416" r="145.416" fill="white"/>
<path d="M440.656 265.447C441.596 263.817 443.948 263.817 444.889 265.447L476.48 320.165C477.421 321.794 476.245 323.831 474.364 323.831H411.18C409.299 323.831 408.123 321.794 409.064 320.165L440.656 265.447Z" fill="#2D2D2D"/>
<rect x="338.5" y="267.986" width="55.8452" height="55.8452" rx="2.44398" fill="#25CBFF"/>
<circle cx="366.423" cy="370.369" r="27.9226" fill="#25FF21"/>
<path d="M257.095 567.818H262.899L270.671 586.79H270.978L278.751 567.818H284.555V594H280.004V576.013H279.761L272.525 593.923H269.125L261.889 575.974H261.646V594H257.095V567.818ZM289.515 594V574.364H294.143V594H289.515ZM291.842 571.577C291.109 571.577 290.478 571.334 289.95 570.848C289.421 570.354 289.157 569.761 289.157 569.071C289.157 568.372 289.421 567.78 289.95 567.294C290.478 566.8 291.109 566.553 291.842 566.553C292.583 566.553 293.214 566.8 293.734 567.294C294.262 567.78 294.527 568.372 294.527 569.071C294.527 569.761 294.262 570.354 293.734 570.848C293.214 571.334 292.583 571.577 291.842 571.577ZM314.422 579.554L310.203 580.014C310.084 579.588 309.875 579.188 309.577 578.812C309.287 578.438 308.895 578.135 308.4 577.905C307.906 577.675 307.301 577.56 306.585 577.56C305.622 577.56 304.812 577.768 304.156 578.186C303.508 578.604 303.189 579.145 303.197 579.81C303.189 580.381 303.398 580.845 303.824 581.203C304.258 581.561 304.974 581.855 305.972 582.085L309.321 582.801C311.179 583.202 312.56 583.837 313.463 584.706C314.375 585.575 314.835 586.713 314.844 588.119C314.835 589.355 314.473 590.446 313.757 591.392C313.05 592.33 312.065 593.062 310.804 593.591C309.543 594.119 308.094 594.384 306.457 594.384C304.054 594.384 302.119 593.881 300.653 592.875C299.187 591.861 298.314 590.45 298.033 588.643L302.545 588.209C302.75 589.095 303.185 589.764 303.849 590.216C304.514 590.668 305.379 590.893 306.445 590.893C307.544 590.893 308.426 590.668 309.091 590.216C309.764 589.764 310.101 589.206 310.101 588.541C310.101 587.979 309.883 587.514 309.449 587.148C309.023 586.781 308.358 586.5 307.454 586.304L304.105 585.601C302.222 585.209 300.828 584.548 299.925 583.619C299.021 582.682 298.574 581.497 298.582 580.065C298.574 578.855 298.902 577.807 299.567 576.92C300.24 576.026 301.173 575.335 302.366 574.849C303.568 574.355 304.953 574.108 306.521 574.108C308.822 574.108 310.633 574.598 311.954 575.578C313.284 576.558 314.106 577.884 314.422 579.554ZM334.18 579.554L329.961 580.014C329.842 579.588 329.633 579.188 329.334 578.812C329.045 578.438 328.653 578.135 328.158 577.905C327.664 577.675 327.059 577.56 326.343 577.56C325.38 577.56 324.57 577.768 323.914 578.186C323.266 578.604 322.947 579.145 322.955 579.81C322.947 580.381 323.155 580.845 323.582 581.203C324.016 581.561 324.732 581.855 325.729 582.085L329.079 582.801C330.937 583.202 332.317 583.837 333.221 584.706C334.133 585.575 334.593 586.713 334.601 588.119C334.593 589.355 334.231 590.446 333.515 591.392C332.807 592.33 331.823 593.062 330.562 593.591C329.3 594.119 327.851 594.384 326.215 594.384C323.812 594.384 321.877 593.881 320.411 592.875C318.945 591.861 318.072 590.45 317.79 588.643L322.303 588.209C322.508 589.095 322.942 589.764 323.607 590.216C324.272 590.668 325.137 590.893 326.202 590.893C327.302 590.893 328.184 590.668 328.849 590.216C329.522 589.764 329.859 589.206 329.859 588.541C329.859 587.979 329.641 587.514 329.207 587.148C328.78 586.781 328.116 586.5 327.212 586.304L323.863 585.601C321.979 585.209 320.586 584.548 319.682 583.619C318.779 582.682 318.332 581.497 318.34 580.065C318.332 578.855 318.66 577.807 319.325 576.92C319.998 576.026 320.931 575.335 322.124 574.849C323.326 574.355 324.711 574.108 326.279 574.108C328.58 574.108 330.391 574.598 331.712 575.578C333.042 576.558 333.864 577.884 334.18 579.554ZM338.418 594V574.364H343.045V594H338.418ZM340.744 571.577C340.011 571.577 339.381 571.334 338.852 570.848C338.324 570.354 338.06 569.761 338.06 569.071C338.06 568.372 338.324 567.78 338.852 567.294C339.381 566.8 340.011 566.553 340.744 566.553C341.486 566.553 342.116 566.8 342.636 567.294C343.165 567.78 343.429 568.372 343.429 569.071C343.429 569.761 343.165 570.354 342.636 570.848C342.116 571.334 341.486 571.577 340.744 571.577ZM356.37 594.384C354.452 594.384 352.79 593.962 351.384 593.118C349.978 592.274 348.887 591.094 348.111 589.577C347.344 588.06 346.961 586.287 346.961 584.259C346.961 582.23 347.344 580.453 348.111 578.928C348.887 577.402 349.978 576.217 351.384 575.374C352.79 574.53 354.452 574.108 356.37 574.108C358.287 574.108 359.949 574.53 361.355 575.374C362.762 576.217 363.848 577.402 364.615 578.928C365.391 580.453 365.779 582.23 365.779 584.259C365.779 586.287 365.391 588.06 364.615 589.577C363.848 591.094 362.762 592.274 361.355 593.118C359.949 593.962 358.287 594.384 356.37 594.384ZM356.395 590.676C357.435 590.676 358.304 590.391 359.003 589.82C359.702 589.24 360.222 588.464 360.563 587.493C360.912 586.521 361.087 585.439 361.087 584.246C361.087 583.044 360.912 581.957 360.563 580.986C360.222 580.006 359.702 579.226 359.003 578.646C358.304 578.067 357.435 577.777 356.395 577.777C355.33 577.777 354.443 578.067 353.736 578.646C353.037 579.226 352.513 580.006 352.164 580.986C351.823 581.957 351.652 583.044 351.652 584.246C351.652 585.439 351.823 586.521 352.164 587.493C352.513 588.464 353.037 589.24 353.736 589.82C354.443 590.391 355.33 590.676 356.395 590.676ZM374.334 582.494V594H369.707V574.364H374.13V577.7H374.36C374.812 576.601 375.532 575.727 376.521 575.08C377.518 574.432 378.749 574.108 380.215 574.108C381.57 574.108 382.751 574.398 383.756 574.977C384.771 575.557 385.555 576.396 386.109 577.496C386.671 578.595 386.948 579.929 386.94 581.497V594H382.312V582.213C382.312 580.901 381.971 579.874 381.289 579.132C380.616 578.391 379.682 578.02 378.489 578.02C377.68 578.02 376.959 578.199 376.329 578.557C375.707 578.906 375.217 579.413 374.859 580.078C374.509 580.743 374.334 581.548 374.334 582.494ZM409.139 594.384C407.222 594.384 405.56 593.962 404.153 593.118C402.747 592.274 401.656 591.094 400.881 589.577C400.114 588.06 399.73 586.287 399.73 584.259C399.73 582.23 400.114 580.453 400.881 578.928C401.656 577.402 402.747 576.217 404.153 575.374C405.56 574.53 407.222 574.108 409.139 574.108C411.057 574.108 412.719 574.53 414.125 575.374C415.531 576.217 416.618 577.402 417.385 578.928C418.16 580.453 418.548 582.23 418.548 584.259C418.548 586.287 418.16 588.06 417.385 589.577C416.618 591.094 415.531 592.274 414.125 593.118C412.719 593.962 411.057 594.384 409.139 594.384ZM409.165 590.676C410.204 590.676 411.074 590.391 411.773 589.82C412.472 589.24 412.991 588.464 413.332 587.493C413.682 586.521 413.856 585.439 413.856 584.246C413.856 583.044 413.682 581.957 413.332 580.986C412.991 580.006 412.472 579.226 411.773 578.646C411.074 578.067 410.204 577.777 409.165 577.777C408.099 577.777 407.213 578.067 406.506 578.646C405.807 579.226 405.283 580.006 404.933 580.986C404.592 581.957 404.422 583.044 404.422 584.246C404.422 585.439 404.592 586.521 404.933 587.493C405.283 588.464 405.807 589.24 406.506 589.82C407.213 590.391 408.099 590.676 409.165 590.676ZM432.422 574.364V577.943H420.814V574.364H432.422ZM423.716 594V572.51C423.716 571.189 423.989 570.089 424.534 569.212C425.088 568.334 425.83 567.678 426.759 567.243C427.688 566.808 428.719 566.591 429.853 566.591C430.654 566.591 431.365 566.655 431.988 566.783C432.61 566.911 433.07 567.026 433.368 567.128L432.448 570.707C432.252 570.648 432.005 570.588 431.706 570.528C431.408 570.46 431.076 570.426 430.709 570.426C429.848 570.426 429.239 570.635 428.881 571.053C428.532 571.462 428.357 572.05 428.357 572.817V594H423.716ZM459.409 575.016C459.29 573.899 458.787 573.03 457.901 572.408C457.023 571.786 455.881 571.474 454.475 571.474C453.486 571.474 452.638 571.624 451.931 571.922C451.223 572.22 450.682 572.625 450.307 573.136C449.932 573.648 449.74 574.232 449.732 574.888C449.732 575.433 449.855 575.906 450.103 576.307C450.358 576.707 450.703 577.048 451.138 577.33C451.573 577.602 452.054 577.832 452.583 578.02C453.111 578.207 453.644 578.365 454.181 578.493L456.635 579.107C457.624 579.337 458.574 579.648 459.486 580.04C460.407 580.432 461.229 580.926 461.953 581.523C462.686 582.119 463.266 582.839 463.692 583.683C464.118 584.527 464.331 585.516 464.331 586.649C464.331 588.183 463.939 589.534 463.155 590.702C462.371 591.861 461.238 592.768 459.755 593.425C458.28 594.072 456.495 594.396 454.398 594.396C452.361 594.396 450.593 594.081 449.093 593.45C447.601 592.82 446.434 591.899 445.59 590.689C444.755 589.479 444.303 588.004 444.235 586.266H448.901C448.969 587.178 449.25 587.936 449.745 588.541C450.239 589.146 450.882 589.598 451.675 589.896C452.476 590.195 453.371 590.344 454.36 590.344C455.391 590.344 456.294 590.19 457.07 589.884C457.854 589.568 458.468 589.134 458.911 588.58C459.354 588.017 459.58 587.361 459.588 586.611C459.58 585.929 459.38 585.366 458.988 584.923C458.595 584.472 458.046 584.097 457.338 583.798C456.639 583.491 455.821 583.219 454.884 582.98L451.905 582.213C449.749 581.659 448.044 580.82 446.791 579.695C445.547 578.561 444.925 577.057 444.925 575.182C444.925 573.639 445.343 572.288 446.178 571.129C447.022 569.97 448.168 569.071 449.617 568.432C451.066 567.784 452.706 567.46 454.539 567.46C456.397 567.46 458.024 567.784 459.422 568.432C460.828 569.071 461.932 569.962 462.733 571.104C463.534 572.237 463.948 573.541 463.973 575.016H459.409ZM477.048 594.384C475.079 594.384 473.379 593.974 471.947 593.156C470.524 592.33 469.429 591.162 468.662 589.653C467.895 588.136 467.511 586.351 467.511 584.297C467.511 582.277 467.895 580.504 468.662 578.979C469.437 577.445 470.52 576.251 471.909 575.399C473.298 574.538 474.93 574.108 476.805 574.108C478.016 574.108 479.158 574.304 480.231 574.696C481.314 575.08 482.268 575.676 483.095 576.486C483.93 577.295 484.587 578.327 485.064 579.58C485.541 580.824 485.78 582.307 485.78 584.028V585.447H469.685V582.328H481.344C481.335 581.442 481.143 580.653 480.768 579.963C480.393 579.264 479.869 578.714 479.196 578.314C478.531 577.913 477.756 577.713 476.869 577.713C475.923 577.713 475.092 577.943 474.376 578.403C473.66 578.855 473.102 579.452 472.702 580.193C472.31 580.926 472.109 581.732 472.101 582.609V585.332C472.101 586.474 472.31 587.455 472.727 588.273C473.145 589.082 473.729 589.705 474.479 590.139C475.229 590.565 476.106 590.778 477.112 590.778C477.785 590.778 478.395 590.685 478.94 590.497C479.486 590.301 479.959 590.016 480.359 589.641C480.76 589.266 481.062 588.801 481.267 588.247L485.588 588.733C485.315 589.875 484.795 590.872 484.028 591.724C483.27 592.568 482.298 593.224 481.114 593.693C479.929 594.153 478.574 594.384 477.048 594.384ZM489.695 594V574.364H494.182V577.636H494.387C494.745 576.503 495.358 575.629 496.228 575.016C497.105 574.393 498.107 574.082 499.232 574.082C499.488 574.082 499.773 574.095 500.088 574.121C500.412 574.138 500.681 574.168 500.894 574.21V578.467C500.698 578.399 500.387 578.339 499.961 578.288C499.543 578.229 499.138 578.199 498.746 578.199C497.902 578.199 497.144 578.382 496.47 578.749C495.806 579.107 495.282 579.605 494.898 580.244C494.514 580.884 494.323 581.621 494.323 582.456V594H489.695ZM516.484 585.741V574.364H521.112V594H516.625V590.51H516.42C515.977 591.609 515.248 592.509 514.234 593.207C513.228 593.906 511.988 594.256 510.514 594.256C509.227 594.256 508.089 593.97 507.1 593.399C506.12 592.82 505.353 591.98 504.799 590.881C504.245 589.773 503.968 588.435 503.968 586.866V574.364H508.596V586.151C508.596 587.395 508.937 588.384 509.619 589.116C510.301 589.849 511.196 590.216 512.304 590.216C512.985 590.216 513.646 590.05 514.285 589.717C514.924 589.385 515.448 588.891 515.858 588.234C516.275 587.57 516.484 586.739 516.484 585.741ZM531.521 594.396C530.277 594.396 529.156 594.175 528.159 593.732C527.17 593.28 526.386 592.615 525.807 591.737C525.236 590.859 524.95 589.777 524.95 588.49C524.95 587.382 525.155 586.466 525.564 585.741C525.973 585.017 526.531 584.438 527.239 584.003C527.946 583.568 528.743 583.24 529.629 583.018C530.524 582.788 531.449 582.622 532.403 582.52C533.554 582.401 534.487 582.294 535.203 582.2C535.919 582.098 536.439 581.945 536.763 581.74C537.095 581.527 537.261 581.199 537.261 580.756V580.679C537.261 579.716 536.976 578.97 536.405 578.442C535.834 577.913 535.011 577.649 533.937 577.649C532.804 577.649 531.905 577.896 531.24 578.391C530.584 578.885 530.141 579.469 529.91 580.142L525.589 579.528C525.93 578.335 526.493 577.338 527.277 576.537C528.061 575.727 529.02 575.122 530.153 574.722C531.287 574.312 532.54 574.108 533.912 574.108C534.858 574.108 535.8 574.219 536.737 574.44C537.675 574.662 538.531 575.028 539.307 575.54C540.082 576.043 540.704 576.729 541.173 577.598C541.651 578.467 541.889 579.554 541.889 580.858V594H537.44V591.303H537.287C537.006 591.848 536.609 592.359 536.098 592.837C535.595 593.305 534.96 593.685 534.193 593.974C533.435 594.256 532.544 594.396 531.521 594.396ZM532.723 590.996C533.652 590.996 534.457 590.812 535.139 590.446C535.821 590.071 536.345 589.577 536.712 588.963C537.087 588.349 537.274 587.68 537.274 586.956V584.642C537.129 584.761 536.882 584.872 536.533 584.974C536.192 585.077 535.808 585.166 535.382 585.243C534.956 585.32 534.534 585.388 534.116 585.447C533.699 585.507 533.337 585.558 533.03 585.601C532.339 585.695 531.722 585.848 531.176 586.061C530.631 586.274 530.2 586.572 529.885 586.956C529.57 587.331 529.412 587.817 529.412 588.413C529.412 589.266 529.723 589.909 530.345 590.344C530.967 590.778 531.76 590.996 532.723 590.996ZM546.543 594V574.364H551.17V594H546.543ZM548.869 571.577C548.136 571.577 547.506 571.334 546.977 570.848C546.449 570.354 546.185 569.761 546.185 569.071C546.185 568.372 546.449 567.78 546.977 567.294C547.506 566.8 548.136 566.553 548.869 566.553C549.611 566.553 550.241 566.8 550.761 567.294C551.29 567.78 551.554 568.372 551.554 569.071C551.554 569.761 551.29 570.354 550.761 570.848C550.241 571.334 549.611 571.577 548.869 571.577Z" fill="white"/>
</svg>
