<svg width="808" height="808" viewBox="0 0 808 808" fill="none" xmlns="http://www.w3.org/2000/svg">
<rect width="808" height="808" fill="#F0F0F0"/>
<path d="M450.64 267.801C452.128 265.223 455.849 265.223 457.338 267.801L507.325 354.381C508.813 356.959 506.953 360.182 503.976 360.182H404.001C401.025 360.182 399.164 356.959 400.652 354.381L450.64 267.801Z" fill="#2D2D2D"/>
<rect x="289" y="271.819" width="88.3636" height="88.3636" rx="3.8671" fill="#25CBFF"/>
<circle cx="333.182" cy="433.818" r="44.1818" fill="#25FF21"/>
<path d="M216.663 564.909C216.663 567.73 216.135 570.146 215.078 572.158C214.03 574.161 212.598 575.695 210.783 576.76C208.976 577.825 206.926 578.358 204.634 578.358C202.341 578.358 200.287 577.825 198.472 576.76C196.665 575.686 195.233 574.148 194.176 572.145C193.128 570.134 192.604 567.722 192.604 564.909C192.604 562.088 193.128 559.676 194.176 557.673C195.233 555.662 196.665 554.124 198.472 553.058C200.287 551.993 202.341 551.46 204.634 551.46C206.926 551.46 208.976 551.993 210.783 553.058C212.598 554.124 214.03 555.662 215.078 557.673C216.135 559.676 216.663 562.088 216.663 564.909ZM211.895 564.909C211.895 562.923 211.584 561.249 210.962 559.885C210.348 558.513 209.496 557.477 208.405 556.778C207.314 556.071 206.057 555.717 204.634 555.717C203.21 555.717 201.953 556.071 200.862 556.778C199.771 557.477 198.915 558.513 198.293 559.885C197.679 561.249 197.372 562.923 197.372 564.909C197.372 566.895 197.679 568.574 198.293 569.946C198.915 571.31 199.771 572.345 200.862 573.053C201.953 573.751 203.21 574.101 204.634 574.101C206.057 574.101 207.314 573.751 208.405 573.053C209.496 572.345 210.348 571.31 210.962 569.946C211.584 568.574 211.895 566.895 211.895 564.909ZM233.459 569.741V558.364H238.086V578H233.599V574.51H233.395C232.951 575.609 232.223 576.509 231.209 577.207C230.203 577.906 228.963 578.256 227.488 578.256C226.201 578.256 225.064 577.97 224.075 577.399C223.095 576.82 222.328 575.98 221.774 574.881C221.22 573.773 220.943 572.435 220.943 570.866V558.364H225.571V570.151C225.571 571.395 225.912 572.384 226.594 573.116C227.275 573.849 228.17 574.216 229.278 574.216C229.96 574.216 230.62 574.05 231.26 573.717C231.899 573.385 232.423 572.891 232.832 572.234C233.25 571.57 233.459 570.739 233.459 569.741ZM242.845 578V558.364H247.332V561.636H247.537C247.895 560.503 248.509 559.629 249.378 559.016C250.256 558.393 251.257 558.082 252.382 558.082C252.638 558.082 252.923 558.095 253.239 558.121C253.563 558.138 253.831 558.168 254.044 558.21V562.467C253.848 562.399 253.537 562.339 253.111 562.288C252.693 562.229 252.288 562.199 251.896 562.199C251.053 562.199 250.294 562.382 249.621 562.749C248.956 563.107 248.432 563.605 248.048 564.244C247.665 564.884 247.473 565.621 247.473 566.456V578H242.845ZM275.125 578H266.253V551.818H275.304C277.904 551.818 280.136 552.342 282.003 553.391C283.878 554.43 285.318 555.926 286.324 557.878C287.33 559.83 287.832 562.165 287.832 564.884C287.832 567.611 287.325 569.955 286.311 571.915C285.306 573.875 283.852 575.379 281.952 576.428C280.06 577.476 277.784 578 275.125 578ZM270.996 573.896H274.895C276.719 573.896 278.24 573.564 279.459 572.899C280.678 572.226 281.594 571.224 282.207 569.895C282.821 568.557 283.128 566.886 283.128 564.884C283.128 562.881 282.821 561.219 282.207 559.898C281.594 558.568 280.686 557.575 279.484 556.919C278.291 556.254 276.808 555.922 275.036 555.922H270.996V573.896ZM300.828 578.384C298.859 578.384 297.158 577.974 295.727 577.156C294.303 576.33 293.208 575.162 292.441 573.653C291.674 572.136 291.291 570.351 291.291 568.297C291.291 566.277 291.674 564.504 292.441 562.979C293.217 561.445 294.299 560.251 295.688 559.399C297.078 558.538 298.71 558.108 300.585 558.108C301.795 558.108 302.937 558.304 304.011 558.696C305.093 559.08 306.048 559.676 306.874 560.486C307.71 561.295 308.366 562.327 308.843 563.58C309.32 564.824 309.559 566.307 309.559 568.028V569.447H293.464V566.328H305.123C305.114 565.442 304.923 564.653 304.548 563.963C304.173 563.264 303.649 562.714 302.975 562.314C302.31 561.913 301.535 561.713 300.649 561.713C299.703 561.713 298.872 561.943 298.156 562.403C297.44 562.855 296.882 563.452 296.481 564.193C296.089 564.926 295.889 565.732 295.88 566.609V569.332C295.88 570.474 296.089 571.455 296.507 572.273C296.924 573.082 297.508 573.705 298.258 574.139C299.008 574.565 299.886 574.778 300.891 574.778C301.565 574.778 302.174 574.685 302.72 574.497C303.265 574.301 303.738 574.016 304.139 573.641C304.539 573.266 304.842 572.801 305.046 572.247L309.367 572.733C309.095 573.875 308.575 574.872 307.808 575.724C307.049 576.568 306.078 577.224 304.893 577.693C303.708 578.153 302.353 578.384 300.828 578.384ZM320.761 578.345C319.219 578.345 317.838 577.949 316.619 577.156C315.4 576.364 314.437 575.213 313.73 573.705C313.022 572.196 312.669 570.364 312.669 568.207C312.669 566.026 313.027 564.185 313.743 562.685C314.467 561.176 315.443 560.038 316.67 559.271C317.897 558.496 319.265 558.108 320.774 558.108C321.924 558.108 322.87 558.304 323.612 558.696C324.353 559.08 324.942 559.544 325.376 560.089C325.811 560.626 326.147 561.134 326.386 561.611H326.578V551.818H331.219V578H326.667V574.906H326.386C326.147 575.384 325.802 575.891 325.351 576.428C324.899 576.956 324.302 577.408 323.561 577.783C322.819 578.158 321.886 578.345 320.761 578.345ZM322.052 574.548C323.032 574.548 323.868 574.284 324.558 573.756C325.248 573.219 325.772 572.473 326.13 571.518C326.488 570.564 326.667 569.452 326.667 568.182C326.667 566.912 326.488 565.808 326.13 564.871C325.781 563.933 325.261 563.205 324.571 562.685C323.889 562.165 323.049 561.905 322.052 561.905C321.021 561.905 320.16 562.173 319.47 562.71C318.78 563.247 318.26 563.989 317.91 564.935C317.561 565.881 317.386 566.963 317.386 568.182C317.386 569.409 317.561 570.504 317.91 571.467C318.268 572.422 318.792 573.176 319.483 573.73C320.182 574.276 321.038 574.548 322.052 574.548ZM336.15 578V558.364H340.778V578H336.15ZM338.477 555.577C337.744 555.577 337.113 555.334 336.585 554.848C336.056 554.354 335.792 553.761 335.792 553.071C335.792 552.372 336.056 551.78 336.585 551.294C337.113 550.8 337.744 550.553 338.477 550.553C339.218 550.553 339.849 550.8 340.369 551.294C340.897 551.78 341.161 552.372 341.161 553.071C341.161 553.761 340.897 554.354 340.369 554.848C339.849 555.334 339.218 555.577 338.477 555.577ZM354.102 578.384C352.142 578.384 350.459 577.953 349.052 577.092C347.655 576.232 346.576 575.043 345.818 573.526C345.068 572 344.693 570.244 344.693 568.259C344.693 566.264 345.076 564.504 345.844 562.979C346.611 561.445 347.693 560.251 349.091 559.399C350.497 558.538 352.159 558.108 354.076 558.108C355.67 558.108 357.081 558.402 358.308 558.99C359.544 559.57 360.528 560.392 361.261 561.457C361.994 562.514 362.412 563.75 362.514 565.165H358.091C357.912 564.219 357.486 563.43 356.812 562.8C356.147 562.161 355.257 561.841 354.14 561.841C353.194 561.841 352.363 562.097 351.647 562.608C350.932 563.111 350.373 563.835 349.973 564.781C349.581 565.727 349.385 566.861 349.385 568.182C349.385 569.52 349.581 570.67 349.973 571.634C350.365 572.588 350.915 573.325 351.622 573.845C352.338 574.357 353.177 574.612 354.14 574.612C354.822 574.612 355.432 574.484 355.969 574.229C356.514 573.964 356.97 573.585 357.336 573.091C357.703 572.597 357.954 571.996 358.091 571.288H362.514C362.403 572.678 361.994 573.909 361.287 574.983C360.579 576.048 359.616 576.884 358.397 577.489C357.179 578.085 355.747 578.384 354.102 578.384ZM371.965 578.396C370.72 578.396 369.6 578.175 368.602 577.732C367.614 577.28 366.83 576.615 366.25 575.737C365.679 574.859 365.394 573.777 365.394 572.49C365.394 571.382 365.598 570.466 366.007 569.741C366.416 569.017 366.975 568.438 367.682 568.003C368.389 567.568 369.186 567.24 370.073 567.018C370.967 566.788 371.892 566.622 372.847 566.52C373.997 566.401 374.931 566.294 375.646 566.2C376.362 566.098 376.882 565.945 377.206 565.74C377.538 565.527 377.705 565.199 377.705 564.756V564.679C377.705 563.716 377.419 562.97 376.848 562.442C376.277 561.913 375.455 561.649 374.381 561.649C373.247 561.649 372.348 561.896 371.683 562.391C371.027 562.885 370.584 563.469 370.354 564.142L366.033 563.528C366.374 562.335 366.936 561.338 367.72 560.537C368.504 559.727 369.463 559.122 370.597 558.722C371.73 558.312 372.983 558.108 374.355 558.108C375.301 558.108 376.243 558.219 377.181 558.44C378.118 558.662 378.975 559.028 379.75 559.54C380.526 560.043 381.148 560.729 381.617 561.598C382.094 562.467 382.332 563.554 382.332 564.858V578H377.884V575.303H377.73C377.449 575.848 377.053 576.359 376.541 576.837C376.038 577.305 375.404 577.685 374.636 577.974C373.878 578.256 372.987 578.396 371.965 578.396ZM373.166 574.996C374.095 574.996 374.901 574.812 375.582 574.446C376.264 574.071 376.788 573.577 377.155 572.963C377.53 572.349 377.717 571.68 377.717 570.956V568.642C377.573 568.761 377.325 568.872 376.976 568.974C376.635 569.077 376.252 569.166 375.825 569.243C375.399 569.32 374.977 569.388 374.56 569.447C374.142 569.507 373.78 569.558 373.473 569.601C372.783 569.695 372.165 569.848 371.619 570.061C371.074 570.274 370.644 570.572 370.328 570.956C370.013 571.331 369.855 571.817 369.855 572.413C369.855 573.266 370.166 573.909 370.788 574.344C371.411 574.778 372.203 574.996 373.166 574.996ZM396.791 558.364V561.943H385.503V558.364H396.791ZM388.29 553.659H392.918V572.094C392.918 572.716 393.011 573.193 393.199 573.526C393.395 573.849 393.651 574.071 393.966 574.19C394.281 574.31 394.631 574.369 395.014 574.369C395.304 574.369 395.568 574.348 395.807 574.305C396.054 574.263 396.242 574.224 396.369 574.19L397.149 577.808C396.902 577.893 396.548 577.987 396.088 578.089C395.636 578.192 395.082 578.251 394.426 578.268C393.267 578.303 392.223 578.128 391.294 577.744C390.365 577.352 389.628 576.747 389.082 575.929C388.546 575.111 388.281 574.088 388.29 572.861V553.659ZM400.662 578V558.364H405.29V578H400.662ZM402.988 555.577C402.255 555.577 401.625 555.334 401.096 554.848C400.568 554.354 400.304 553.761 400.304 553.071C400.304 552.372 400.568 551.78 401.096 551.294C401.625 550.8 402.255 550.553 402.988 550.553C403.73 550.553 404.361 550.8 404.88 551.294C405.409 551.78 405.673 552.372 405.673 553.071C405.673 553.761 405.409 554.354 404.88 554.848C404.361 555.334 403.73 555.577 402.988 555.577ZM418.614 578.384C416.696 578.384 415.034 577.962 413.628 577.118C412.222 576.274 411.131 575.094 410.355 573.577C409.588 572.06 409.205 570.287 409.205 568.259C409.205 566.23 409.588 564.453 410.355 562.928C411.131 561.402 412.222 560.217 413.628 559.374C415.034 558.53 416.696 558.108 418.614 558.108C420.531 558.108 422.193 558.53 423.6 559.374C425.006 560.217 426.092 561.402 426.859 562.928C427.635 564.453 428.023 566.23 428.023 568.259C428.023 570.287 427.635 572.06 426.859 573.577C426.092 575.094 425.006 576.274 423.6 577.118C422.193 577.962 420.531 578.384 418.614 578.384ZM418.639 574.676C419.679 574.676 420.548 574.391 421.247 573.82C421.946 573.24 422.466 572.464 422.807 571.493C423.156 570.521 423.331 569.439 423.331 568.246C423.331 567.044 423.156 565.957 422.807 564.986C422.466 564.006 421.946 563.226 421.247 562.646C420.548 562.067 419.679 561.777 418.639 561.777C417.574 561.777 416.688 562.067 415.98 562.646C415.281 563.226 414.757 564.006 414.408 564.986C414.067 565.957 413.896 567.044 413.896 568.246C413.896 569.439 414.067 570.521 414.408 571.493C414.757 572.464 415.281 573.24 415.98 573.82C416.688 574.391 417.574 574.676 418.639 574.676ZM436.579 566.494V578H431.951V558.364H436.374V561.7H436.604C437.056 560.601 437.776 559.727 438.765 559.08C439.762 558.432 440.993 558.108 442.459 558.108C443.814 558.108 444.995 558.398 446 558.977C447.015 559.557 447.799 560.396 448.353 561.496C448.915 562.595 449.192 563.929 449.184 565.497V578H444.556V566.213C444.556 564.901 444.215 563.874 443.533 563.132C442.86 562.391 441.927 562.02 440.733 562.02C439.924 562.02 439.204 562.199 438.573 562.557C437.951 562.906 437.461 563.413 437.103 564.078C436.753 564.743 436.579 565.548 436.579 566.494ZM472.623 558.364V561.943H461.335V558.364H472.623ZM464.122 553.659H468.75V572.094C468.75 572.716 468.844 573.193 469.031 573.526C469.227 573.849 469.483 574.071 469.798 574.19C470.113 574.31 470.463 574.369 470.846 574.369C471.136 574.369 471.4 574.348 471.639 574.305C471.886 574.263 472.074 574.224 472.201 574.19L472.981 577.808C472.734 577.893 472.38 577.987 471.92 578.089C471.469 578.192 470.915 578.251 470.258 578.268C469.099 578.303 468.055 578.128 467.126 577.744C466.197 577.352 465.46 576.747 464.915 575.929C464.378 575.111 464.113 574.088 464.122 572.861V553.659ZM484.848 578.384C482.931 578.384 481.269 577.962 479.862 577.118C478.456 576.274 477.365 575.094 476.59 573.577C475.823 572.06 475.439 570.287 475.439 568.259C475.439 566.23 475.823 564.453 476.59 562.928C477.365 561.402 478.456 560.217 479.862 559.374C481.269 558.53 482.931 558.108 484.848 558.108C486.766 558.108 488.428 558.53 489.834 559.374C491.24 560.217 492.327 561.402 493.094 562.928C493.869 564.453 494.257 566.23 494.257 568.259C494.257 570.287 493.869 572.06 493.094 573.577C492.327 575.094 491.24 576.274 489.834 577.118C488.428 577.962 486.766 578.384 484.848 578.384ZM484.874 574.676C485.913 574.676 486.783 574.391 487.482 573.82C488.181 573.24 488.7 572.464 489.041 571.493C489.391 570.521 489.565 569.439 489.565 568.246C489.565 567.044 489.391 565.957 489.041 564.986C488.7 564.006 488.181 563.226 487.482 562.646C486.783 562.067 485.913 561.777 484.874 561.777C483.808 561.777 482.922 562.067 482.215 562.646C481.516 563.226 480.992 564.006 480.642 564.986C480.301 565.957 480.131 567.044 480.131 568.246C480.131 569.439 480.301 570.521 480.642 571.493C480.992 572.464 481.516 573.24 482.215 573.82C482.922 574.391 483.808 574.676 484.874 574.676ZM521.548 559.016C521.429 557.899 520.926 557.03 520.04 556.408C519.162 555.786 518.02 555.474 516.613 555.474C515.625 555.474 514.777 555.624 514.069 555.922C513.362 556.22 512.821 556.625 512.446 557.136C512.071 557.648 511.879 558.232 511.87 558.888C511.87 559.433 511.994 559.906 512.241 560.307C512.497 560.707 512.842 561.048 513.277 561.33C513.711 561.602 514.193 561.832 514.721 562.02C515.25 562.207 515.782 562.365 516.319 562.493L518.774 563.107C519.763 563.337 520.713 563.648 521.625 564.04C522.545 564.432 523.368 564.926 524.092 565.523C524.825 566.119 525.405 566.839 525.831 567.683C526.257 568.527 526.47 569.516 526.47 570.649C526.47 572.183 526.078 573.534 525.294 574.702C524.51 575.861 523.376 576.768 521.893 577.425C520.419 578.072 518.633 578.396 516.537 578.396C514.5 578.396 512.731 578.081 511.231 577.45C509.74 576.82 508.572 575.899 507.728 574.689C506.893 573.479 506.442 572.004 506.373 570.266H511.04C511.108 571.178 511.389 571.936 511.883 572.541C512.378 573.146 513.021 573.598 513.814 573.896C514.615 574.195 515.51 574.344 516.498 574.344C517.53 574.344 518.433 574.19 519.209 573.884C519.993 573.568 520.606 573.134 521.049 572.58C521.493 572.017 521.719 571.361 521.727 570.611C521.719 569.929 521.518 569.366 521.126 568.923C520.734 568.472 520.184 568.097 519.477 567.798C518.778 567.491 517.96 567.219 517.022 566.98L514.044 566.213C511.888 565.659 510.183 564.82 508.93 563.695C507.686 562.561 507.064 561.057 507.064 559.182C507.064 557.639 507.481 556.288 508.317 555.129C509.16 553.97 510.307 553.071 511.755 552.432C513.204 551.784 514.845 551.46 516.677 551.46C518.535 551.46 520.163 551.784 521.561 552.432C522.967 553.071 524.071 553.962 524.872 555.104C525.673 556.237 526.086 557.541 526.112 559.016H521.548ZM536.144 578.396C534.9 578.396 533.779 578.175 532.782 577.732C531.793 577.28 531.009 576.615 530.43 575.737C529.859 574.859 529.573 573.777 529.573 572.49C529.573 571.382 529.778 570.466 530.187 569.741C530.596 569.017 531.154 568.438 531.862 568.003C532.569 567.568 533.366 567.24 534.252 567.018C535.147 566.788 536.072 566.622 537.026 566.52C538.177 566.401 539.11 566.294 539.826 566.2C540.542 566.098 541.062 565.945 541.386 565.74C541.718 565.527 541.884 565.199 541.884 564.756V564.679C541.884 563.716 541.599 562.97 541.028 562.442C540.457 561.913 539.634 561.649 538.56 561.649C537.427 561.649 536.528 561.896 535.863 562.391C535.207 562.885 534.764 563.469 534.533 564.142L530.212 563.528C530.553 562.335 531.116 561.338 531.9 560.537C532.684 559.727 533.643 559.122 534.776 558.722C535.91 558.312 537.163 558.108 538.535 558.108C539.481 558.108 540.423 558.219 541.36 558.44C542.298 558.662 543.154 559.028 543.93 559.54C544.705 560.043 545.327 560.729 545.796 561.598C546.274 562.467 546.512 563.554 546.512 564.858V578H542.063V575.303H541.91C541.629 575.848 541.232 576.359 540.721 576.837C540.218 577.305 539.583 577.685 538.816 577.974C538.058 578.256 537.167 578.396 536.144 578.396ZM537.346 574.996C538.275 574.996 539.08 574.812 539.762 574.446C540.444 574.071 540.968 573.577 541.335 572.963C541.71 572.349 541.897 571.68 541.897 570.956V568.642C541.752 568.761 541.505 568.872 541.156 568.974C540.815 569.077 540.431 569.166 540.005 569.243C539.579 569.32 539.157 569.388 538.739 569.447C538.322 569.507 537.96 569.558 537.653 569.601C536.962 569.695 536.345 569.848 535.799 570.061C535.254 570.274 534.823 570.572 534.508 570.956C534.193 571.331 534.035 571.817 534.035 572.413C534.035 573.266 534.346 573.909 534.968 574.344C535.59 574.778 536.383 574.996 537.346 574.996ZM561.112 558.364V561.943H549.504V558.364H561.112ZM552.406 578V556.51C552.406 555.189 552.678 554.089 553.224 553.212C553.778 552.334 554.519 551.678 555.448 551.243C556.377 550.808 557.408 550.591 558.542 550.591C559.343 550.591 560.055 550.655 560.677 550.783C561.299 550.911 561.759 551.026 562.058 551.128L561.137 554.707C560.941 554.648 560.694 554.588 560.396 554.528C560.097 554.46 559.765 554.426 559.399 554.426C558.538 554.426 557.928 554.635 557.57 555.053C557.221 555.462 557.046 556.05 557.046 556.817V578H552.406ZM572.691 578.384C570.722 578.384 569.022 577.974 567.59 577.156C566.167 576.33 565.071 575.162 564.304 573.653C563.537 572.136 563.154 570.351 563.154 568.297C563.154 566.277 563.537 564.504 564.304 562.979C565.08 561.445 566.162 560.251 567.552 559.399C568.941 558.538 570.573 558.108 572.448 558.108C573.658 558.108 574.8 558.304 575.874 558.696C576.956 559.08 577.911 559.676 578.738 560.486C579.573 561.295 580.229 562.327 580.706 563.58C581.184 564.824 581.422 566.307 581.422 568.028V569.447H565.327V566.328H576.986C576.978 565.442 576.786 564.653 576.411 563.963C576.036 563.264 575.512 562.714 574.839 562.314C574.174 561.913 573.398 561.713 572.512 561.713C571.566 561.713 570.735 561.943 570.019 562.403C569.303 562.855 568.745 563.452 568.344 564.193C567.952 564.926 567.752 565.732 567.743 566.609V569.332C567.743 570.474 567.952 571.455 568.37 572.273C568.787 573.082 569.371 573.705 570.121 574.139C570.871 574.565 571.749 574.778 572.755 574.778C573.428 574.778 574.037 574.685 574.583 574.497C575.128 574.301 575.601 574.016 576.002 573.641C576.402 573.266 576.705 572.801 576.91 572.247L581.231 572.733C580.958 573.875 580.438 574.872 579.671 575.724C578.912 576.568 577.941 577.224 576.756 577.693C575.571 578.153 574.216 578.384 572.691 578.384ZM595.143 558.364V561.943H583.854V558.364H595.143ZM586.641 553.659H591.269V572.094C591.269 572.716 591.363 573.193 591.551 573.526C591.747 573.849 592.002 574.071 592.318 574.19C592.633 574.31 592.982 574.369 593.366 574.369C593.656 574.369 593.92 574.348 594.158 574.305C594.406 574.263 594.593 574.224 594.721 574.19L595.501 577.808C595.254 577.893 594.9 577.987 594.44 578.089C593.988 578.192 593.434 578.251 592.778 578.268C591.619 578.303 590.575 578.128 589.646 577.744C588.717 577.352 587.979 576.747 587.434 575.929C586.897 575.111 586.633 574.088 586.641 572.861V553.659ZM601.89 585.364C601.259 585.364 600.675 585.313 600.138 585.21C599.61 585.116 599.188 585.006 598.873 584.878L599.946 581.273C600.62 581.469 601.221 581.563 601.749 581.554C602.277 581.545 602.742 581.379 603.142 581.055C603.552 580.74 603.897 580.212 604.178 579.47L604.574 578.409L597.454 558.364H602.363L606.888 573.193H607.093L611.631 558.364H616.553L608.691 580.378C608.324 581.418 607.839 582.308 607.233 583.05C606.628 583.8 605.887 584.371 605.009 584.763C604.14 585.163 603.1 585.364 601.89 585.364Z" fill="#2D2D2D"/>
</svg>
