<svg width="1781" height="1775" viewBox="0 0 1781 1775" fill="none" xmlns="http://www.w3.org/2000/svg">
<rect width="1780.01" height="1775" fill="white"/>
<path fill-rule="evenodd" clip-rule="evenodd" d="M280.926 393.551L218.228 330.854C216.909 329.723 215.219 329.117 213.481 329.152H186.611C163.114 329.152 144.066 348.2 144.066 371.697V461.264C144.066 484.761 163.114 503.809 186.611 503.809H240.352C263.848 503.809 282.896 484.761 282.896 461.264V398.567C282.927 396.701 282.219 394.898 280.926 393.551ZM220.199 351.902L260.146 391.849H231.395C225.212 391.849 220.199 386.837 220.199 380.653V351.902ZM157.502 461.264C157.551 477.321 170.555 490.325 186.611 490.374H240.352C256.408 490.325 269.412 477.321 269.461 461.264V405.285H231.395C217.792 405.285 206.764 394.257 206.764 380.653V342.587H186.611C170.555 342.636 157.551 355.64 157.502 371.697V461.264Z" fill="#2D2D2D" stroke="white" stroke-width="6"/>
<path fill-rule="evenodd" clip-rule="evenodd" d="M280.926 631.589L218.228 568.891C216.909 567.76 215.219 567.155 213.481 567.19H186.611C163.114 567.19 144.066 586.238 144.066 609.734V699.302C144.066 722.799 163.114 741.847 186.611 741.847H240.352C263.848 741.847 282.896 722.799 282.896 699.302V636.605C282.927 634.738 282.219 632.935 280.926 631.589ZM220.199 589.94L260.146 629.887H231.395C225.212 629.887 220.199 624.874 220.199 618.691V589.94ZM157.502 699.302C157.551 715.358 170.555 728.362 186.611 728.412H240.352C256.408 728.362 269.412 715.358 269.461 699.302V643.322H231.395C217.792 643.322 206.764 632.294 206.764 618.691V580.625H186.611C170.555 580.674 157.551 593.678 157.502 609.734V699.302Z" fill="#2D2D2D" stroke="white" stroke-width="6"/>
<path fill-rule="evenodd" clip-rule="evenodd" d="M299.939 869.824C300.026 869.191 300.026 868.549 299.939 867.917C299.939 851.889 286.946 838.896 270.918 838.896H233.938C229.358 838.896 225.646 835.184 225.646 830.604C225.646 825.106 223.462 819.834 219.575 815.946C215.687 812.059 210.415 809.875 204.917 809.875H169.677C152.505 809.875 138.583 823.796 138.583 840.969V934.416C138.719 946.925 148.875 957.007 161.386 957.052H266.358C275.76 957.01 284.178 951.222 287.585 942.459L304.914 888.563C306.115 881.888 304.292 875.024 299.939 869.824ZM151.021 840.969C151.021 830.665 159.374 822.312 169.677 822.312H204.917C209.496 822.312 213.208 826.025 213.208 830.604C213.254 842.034 222.508 851.288 233.938 851.333H271.25C278.138 851.332 284.31 855.59 286.756 862.03C285.321 861.905 283.878 861.905 282.444 862.03H181.286C171.732 862.032 163.193 867.989 159.893 876.955L151.021 900.005V840.969ZM266.358 944.615C270.559 944.609 274.335 942.049 275.893 938.147L293.14 885.495C293.454 882.701 292.582 879.904 290.736 877.784C288.67 875.37 285.619 874.028 282.444 874.135H181.286C176.925 874.138 173.024 876.848 171.501 880.935L151.021 935.245C151.572 940.559 156.043 944.601 161.386 944.615H266.358Z" fill="#2D2D2D" stroke="white" stroke-width="6"/>
<path d="M338.812 450.955C336.384 450.955 334.295 450.642 332.548 450.017C330.801 449.406 329.345 448.597 328.18 447.588C327.03 446.594 326.114 445.528 325.432 444.392L329.438 441.58C329.892 442.176 330.467 442.858 331.163 443.625C331.859 444.406 332.811 445.081 334.018 445.649C335.24 446.232 336.838 446.523 338.812 446.523C341.455 446.523 343.635 445.884 345.354 444.605C347.072 443.327 347.932 441.324 347.932 438.597V431.949H347.506C347.136 432.545 346.611 433.284 345.929 434.165C345.261 435.031 344.295 435.805 343.031 436.487C341.781 437.155 340.091 437.489 337.96 437.489C335.318 437.489 332.946 436.864 330.844 435.614C328.756 434.364 327.101 432.545 325.879 430.159C324.672 427.773 324.068 424.875 324.068 421.466C324.068 418.114 324.658 415.195 325.837 412.709C327.016 410.209 328.656 408.277 330.759 406.913C332.861 405.536 335.29 404.847 338.045 404.847C340.176 404.847 341.866 405.202 343.116 405.912C344.381 406.608 345.347 407.403 346.014 408.298C346.696 409.179 347.222 409.903 347.591 410.472H348.102V405.273H352.96V438.938C352.96 441.75 352.321 444.037 351.043 445.798C349.778 447.574 348.074 448.874 345.929 449.697C343.798 450.536 341.426 450.955 338.812 450.955ZM338.642 432.972C340.659 432.972 342.364 432.51 343.756 431.587C345.148 430.663 346.206 429.335 346.93 427.602C347.655 425.869 348.017 423.795 348.017 421.381C348.017 419.023 347.662 416.942 346.952 415.138C346.241 413.334 345.19 411.92 343.798 410.898C342.406 409.875 340.688 409.364 338.642 409.364C336.511 409.364 334.736 409.903 333.315 410.983C331.909 412.062 330.851 413.511 330.141 415.33C329.445 417.148 329.097 419.165 329.097 421.381C329.097 423.653 329.452 425.663 330.162 427.411C330.886 429.143 331.952 430.507 333.358 431.501C334.778 432.482 336.54 432.972 338.642 432.972ZM371.795 438.767C369.722 438.767 367.839 438.376 366.149 437.595C364.459 436.8 363.116 435.656 362.122 434.165C361.128 432.659 360.631 430.841 360.631 428.71C360.631 426.835 361 425.315 361.739 424.151C362.477 422.972 363.464 422.048 364.7 421.381C365.936 420.713 367.3 420.216 368.791 419.889C370.297 419.548 371.81 419.278 373.33 419.08C375.318 418.824 376.93 418.632 378.166 418.504C379.416 418.362 380.325 418.128 380.893 417.801C381.476 417.474 381.767 416.906 381.767 416.097V415.926C381.767 413.824 381.192 412.19 380.041 411.026C378.905 409.861 377.179 409.278 374.864 409.278C372.463 409.278 370.581 409.804 369.217 410.855C367.854 411.906 366.895 413.028 366.341 414.222L361.568 412.517C362.42 410.528 363.557 408.98 364.977 407.872C366.412 406.75 367.974 405.969 369.665 405.528C371.369 405.074 373.045 404.847 374.693 404.847C375.744 404.847 376.952 404.974 378.315 405.23C379.693 405.472 381.021 405.976 382.3 406.743C383.592 407.51 384.665 408.668 385.517 410.216C386.369 411.764 386.795 413.838 386.795 416.438V438H381.767V433.568H381.511C381.17 434.278 380.602 435.038 379.807 435.848C379.011 436.658 377.953 437.347 376.632 437.915C375.311 438.483 373.699 438.767 371.795 438.767ZM372.562 434.25C374.551 434.25 376.227 433.859 377.591 433.078C378.969 432.297 380.006 431.288 380.702 430.053C381.412 428.817 381.767 427.517 381.767 426.153V421.551C381.554 421.807 381.085 422.041 380.361 422.254C379.651 422.453 378.827 422.631 377.889 422.787C376.966 422.929 376.064 423.057 375.183 423.17C374.317 423.27 373.614 423.355 373.074 423.426C371.767 423.597 370.545 423.874 369.409 424.257C368.287 424.626 367.378 425.187 366.682 425.94C366 426.679 365.659 427.687 365.659 428.966C365.659 430.713 366.305 432.034 367.598 432.929C368.905 433.81 370.56 434.25 372.562 434.25ZM395.973 438V405.273H400.831V410.386H401.257C401.939 408.639 403.04 407.283 404.56 406.317C406.08 405.337 407.905 404.847 410.036 404.847C412.195 404.847 413.992 405.337 415.426 406.317C416.875 407.283 418.005 408.639 418.814 410.386H419.155C419.993 408.696 421.25 407.354 422.926 406.359C424.603 405.351 426.613 404.847 428.956 404.847C431.882 404.847 434.276 405.763 436.137 407.595C437.998 409.413 438.928 412.247 438.928 416.097V438H433.9V416.097C433.9 413.682 433.239 411.956 431.918 410.919C430.597 409.882 429.042 409.364 427.252 409.364C424.951 409.364 423.168 410.06 421.904 411.452C420.64 412.83 420.007 414.577 420.007 416.693V438H414.894V415.585C414.894 413.724 414.29 412.226 413.083 411.089C411.875 409.939 410.32 409.364 408.417 409.364C407.11 409.364 405.888 409.712 404.752 410.408C403.63 411.104 402.721 412.07 402.025 413.305C401.343 414.527 401.002 415.94 401.002 417.545V438H395.973ZM461.843 438.682C458.69 438.682 455.97 437.986 453.683 436.594C451.41 435.188 449.656 433.227 448.42 430.713C447.199 428.185 446.588 425.244 446.588 421.892C446.588 418.54 447.199 415.585 448.42 413.028C449.656 410.457 451.375 408.455 453.576 407.02C455.792 405.571 458.377 404.847 461.332 404.847C463.037 404.847 464.72 405.131 466.382 405.699C468.044 406.267 469.556 407.19 470.92 408.469C472.284 409.733 473.37 411.409 474.18 413.497C474.99 415.585 475.395 418.156 475.395 421.21V423.341H450.167V418.994H470.281C470.281 417.148 469.912 415.5 469.173 414.051C468.449 412.602 467.412 411.459 466.062 410.621C464.727 409.783 463.15 409.364 461.332 409.364C459.329 409.364 457.596 409.861 456.133 410.855C454.684 411.835 453.569 413.114 452.788 414.69C452.007 416.267 451.616 417.957 451.616 419.761V422.659C451.616 425.131 452.042 427.226 452.895 428.945C453.761 430.649 454.961 431.949 456.495 432.844C458.029 433.724 459.812 434.165 461.843 434.165C463.164 434.165 464.358 433.98 465.423 433.611C466.502 433.227 467.433 432.659 468.214 431.906C468.995 431.139 469.599 430.187 470.025 429.051L474.883 430.415C474.372 432.062 473.512 433.511 472.305 434.761C471.098 435.997 469.606 436.963 467.831 437.659C466.055 438.341 464.059 438.682 461.843 438.682ZM497.618 405.273V409.534H479.975V405.273H497.618ZM485.26 438V400.756C485.26 398.881 485.7 397.318 486.581 396.068C487.461 394.818 488.605 393.881 490.011 393.256C491.417 392.631 492.902 392.318 494.464 392.318C495.7 392.318 496.708 392.418 497.49 392.616C498.271 392.815 498.853 393 499.237 393.17L497.788 397.517C497.532 397.432 497.177 397.325 496.723 397.197C496.282 397.07 495.7 397.006 494.975 397.006C493.314 397.006 492.113 397.425 491.375 398.263C490.65 399.101 490.288 400.33 490.288 401.949V438H485.26ZM504.665 438V405.273H509.693V438H504.665ZM507.222 399.818C506.241 399.818 505.396 399.484 504.686 398.817C503.99 398.149 503.642 397.347 503.642 396.409C503.642 395.472 503.99 394.669 504.686 394.001C505.396 393.334 506.241 393 507.222 393C508.202 393 509.04 393.334 509.736 394.001C510.446 394.669 510.801 395.472 510.801 396.409C510.801 397.347 510.446 398.149 509.736 398.817C509.04 399.484 508.202 399.818 507.222 399.818ZM523.931 394.364V438H518.903V394.364H523.931ZM546.863 438.682C543.71 438.682 540.989 437.986 538.702 436.594C536.43 435.188 534.675 433.227 533.44 430.713C532.218 428.185 531.607 425.244 531.607 421.892C531.607 418.54 532.218 415.585 533.44 413.028C534.675 410.457 536.394 408.455 538.596 407.02C540.812 405.571 543.397 404.847 546.352 404.847C548.056 404.847 549.739 405.131 551.401 405.699C553.063 406.267 554.576 407.19 555.94 408.469C557.303 409.733 558.39 411.409 559.2 413.497C560.009 415.585 560.414 418.156 560.414 421.21V423.341H535.187V418.994H555.3C555.3 417.148 554.931 415.5 554.192 414.051C553.468 412.602 552.431 411.459 551.082 410.621C549.746 409.783 548.17 409.364 546.352 409.364C544.349 409.364 542.616 409.861 541.153 410.855C539.704 411.835 538.589 413.114 537.808 414.69C537.026 416.267 536.636 417.957 536.636 419.761V422.659C536.636 425.131 537.062 427.226 537.914 428.945C538.781 430.649 539.981 431.949 541.515 432.844C543.049 433.724 544.832 434.165 546.863 434.165C548.184 434.165 549.377 433.98 550.442 433.611C551.522 433.227 552.452 432.659 553.234 431.906C554.015 431.139 554.619 430.187 555.045 429.051L559.903 430.415C559.391 432.062 558.532 433.511 557.325 434.761C556.117 435.997 554.626 436.963 552.85 437.659C551.075 438.341 549.079 438.682 546.863 438.682Z" fill="#2D2D2D"/>
<path fill-rule="evenodd" clip-rule="evenodd" d="M280.926 1329.55L218.228 1266.85C216.909 1265.72 215.219 1265.12 213.481 1265.15H186.611C163.114 1265.15 144.066 1284.2 144.066 1307.7V1397.27C144.066 1420.76 163.114 1439.81 186.611 1439.81H240.352C263.848 1439.81 282.896 1420.76 282.896 1397.27V1334.57C282.927 1332.7 282.219 1330.9 280.926 1329.55ZM220.199 1287.9L260.146 1327.85H231.395C225.212 1327.85 220.199 1322.84 220.199 1316.65V1287.9ZM157.502 1397.27C157.551 1413.32 170.555 1426.33 186.611 1426.37H240.352C256.408 1426.33 269.412 1413.32 269.461 1397.27V1341.29H231.395C217.792 1341.29 206.764 1330.26 206.764 1316.65V1278.59H186.611C170.555 1278.64 157.551 1291.64 157.502 1307.7V1397.27Z" fill="#2D2D2D" stroke="white" stroke-width="6"/>
<path d="M338.812 1386.95C336.384 1386.95 334.295 1386.64 332.548 1386.02C330.801 1385.41 329.345 1384.6 328.18 1383.59C327.03 1382.59 326.114 1381.53 325.432 1380.39L329.438 1377.58C329.892 1378.18 330.467 1378.86 331.163 1379.62C331.859 1380.41 332.811 1381.08 334.018 1381.65C335.24 1382.23 336.838 1382.52 338.812 1382.52C341.455 1382.52 343.635 1381.88 345.354 1380.61C347.072 1379.33 347.932 1377.32 347.932 1374.6V1367.95H347.506C347.136 1368.55 346.611 1369.28 345.929 1370.16C345.261 1371.03 344.295 1371.81 343.031 1372.49C341.781 1373.15 340.091 1373.49 337.96 1373.49C335.318 1373.49 332.946 1372.86 330.844 1371.61C328.756 1370.36 327.101 1368.55 325.879 1366.16C324.672 1363.77 324.068 1360.87 324.068 1357.47C324.068 1354.11 324.658 1351.19 325.837 1348.71C327.016 1346.21 328.656 1344.28 330.759 1342.91C332.861 1341.54 335.29 1340.85 338.045 1340.85C340.176 1340.85 341.866 1341.2 343.116 1341.91C344.381 1342.61 345.347 1343.4 346.014 1344.3C346.696 1345.18 347.222 1345.9 347.591 1346.47H348.102V1341.27H352.96V1374.94C352.96 1377.75 352.321 1380.04 351.043 1381.8C349.778 1383.57 348.074 1384.87 345.929 1385.7C343.798 1386.54 341.426 1386.95 338.812 1386.95ZM338.642 1368.97C340.659 1368.97 342.364 1368.51 343.756 1367.59C345.148 1366.66 346.206 1365.34 346.93 1363.6C347.655 1361.87 348.017 1359.8 348.017 1357.38C348.017 1355.02 347.662 1352.94 346.952 1351.14C346.241 1349.33 345.19 1347.92 343.798 1346.9C342.406 1345.87 340.688 1345.36 338.642 1345.36C336.511 1345.36 334.736 1345.9 333.315 1346.98C331.909 1348.06 330.851 1349.51 330.141 1351.33C329.445 1353.15 329.097 1355.16 329.097 1357.38C329.097 1359.65 329.452 1361.66 330.162 1363.41C330.886 1365.14 331.952 1366.51 333.358 1367.5C334.778 1368.48 336.54 1368.97 338.642 1368.97ZM371.795 1374.77C369.722 1374.77 367.839 1374.38 366.149 1373.6C364.459 1372.8 363.116 1371.66 362.122 1370.16C361.128 1368.66 360.631 1366.84 360.631 1364.71C360.631 1362.84 361 1361.32 361.739 1360.15C362.477 1358.97 363.464 1358.05 364.7 1357.38C365.936 1356.71 367.3 1356.22 368.791 1355.89C370.297 1355.55 371.81 1355.28 373.33 1355.08C375.318 1354.82 376.93 1354.63 378.166 1354.5C379.416 1354.36 380.325 1354.13 380.893 1353.8C381.476 1353.47 381.767 1352.91 381.767 1352.1V1351.93C381.767 1349.82 381.192 1348.19 380.041 1347.03C378.905 1345.86 377.179 1345.28 374.864 1345.28C372.463 1345.28 370.581 1345.8 369.217 1346.86C367.854 1347.91 366.895 1349.03 366.341 1350.22L361.568 1348.52C362.42 1346.53 363.557 1344.98 364.977 1343.87C366.412 1342.75 367.974 1341.97 369.665 1341.53C371.369 1341.07 373.045 1340.85 374.693 1340.85C375.744 1340.85 376.952 1340.97 378.315 1341.23C379.693 1341.47 381.021 1341.98 382.3 1342.74C383.592 1343.51 384.665 1344.67 385.517 1346.22C386.369 1347.76 386.795 1349.84 386.795 1352.44V1374H381.767V1369.57H381.511C381.17 1370.28 380.602 1371.04 379.807 1371.85C379.011 1372.66 377.953 1373.35 376.632 1373.91C375.311 1374.48 373.699 1374.77 371.795 1374.77ZM372.562 1370.25C374.551 1370.25 376.227 1369.86 377.591 1369.08C378.969 1368.3 380.006 1367.29 380.702 1366.05C381.412 1364.82 381.767 1363.52 381.767 1362.15V1357.55C381.554 1357.81 381.085 1358.04 380.361 1358.25C379.651 1358.45 378.827 1358.63 377.889 1358.79C376.966 1358.93 376.064 1359.06 375.183 1359.17C374.317 1359.27 373.614 1359.36 373.074 1359.43C371.767 1359.6 370.545 1359.87 369.409 1360.26C368.287 1360.63 367.378 1361.19 366.682 1361.94C366 1362.68 365.659 1363.69 365.659 1364.97C365.659 1366.71 366.305 1368.03 367.598 1368.93C368.905 1369.81 370.56 1370.25 372.562 1370.25ZM395.973 1374V1341.27H400.831V1346.39H401.257C401.939 1344.64 403.04 1343.28 404.56 1342.32C406.08 1341.34 407.905 1340.85 410.036 1340.85C412.195 1340.85 413.992 1341.34 415.426 1342.32C416.875 1343.28 418.005 1344.64 418.814 1346.39H419.155C419.993 1344.7 421.25 1343.35 422.926 1342.36C424.603 1341.35 426.613 1340.85 428.956 1340.85C431.882 1340.85 434.276 1341.76 436.137 1343.6C437.998 1345.41 438.928 1348.25 438.928 1352.1V1374H433.9V1352.1C433.9 1349.68 433.239 1347.96 431.918 1346.92C430.597 1345.88 429.042 1345.36 427.252 1345.36C424.951 1345.36 423.168 1346.06 421.904 1347.45C420.64 1348.83 420.007 1350.58 420.007 1352.69V1374H414.894V1351.59C414.894 1349.72 414.29 1348.23 413.083 1347.09C411.875 1345.94 410.32 1345.36 408.417 1345.36C407.11 1345.36 405.888 1345.71 404.752 1346.41C403.63 1347.1 402.721 1348.07 402.025 1349.31C401.343 1350.53 401.002 1351.94 401.002 1353.55V1374H395.973ZM461.843 1374.68C458.69 1374.68 455.97 1373.99 453.683 1372.59C451.41 1371.19 449.656 1369.23 448.42 1366.71C447.199 1364.18 446.588 1361.24 446.588 1357.89C446.588 1354.54 447.199 1351.59 448.42 1349.03C449.656 1346.46 451.375 1344.45 453.576 1343.02C455.792 1341.57 458.377 1340.85 461.332 1340.85C463.037 1340.85 464.72 1341.13 466.382 1341.7C468.044 1342.27 469.556 1343.19 470.92 1344.47C472.284 1345.73 473.37 1347.41 474.18 1349.5C474.99 1351.59 475.395 1354.16 475.395 1357.21V1359.34H450.167V1354.99H470.281C470.281 1353.15 469.912 1351.5 469.173 1350.05C468.449 1348.6 467.412 1347.46 466.062 1346.62C464.727 1345.78 463.15 1345.36 461.332 1345.36C459.329 1345.36 457.596 1345.86 456.133 1346.86C454.684 1347.84 453.569 1349.11 452.788 1350.69C452.007 1352.27 451.616 1353.96 451.616 1355.76V1358.66C451.616 1361.13 452.042 1363.23 452.895 1364.94C453.761 1366.65 454.961 1367.95 456.495 1368.84C458.029 1369.72 459.812 1370.16 461.843 1370.16C463.164 1370.16 464.358 1369.98 465.423 1369.61C466.502 1369.23 467.433 1368.66 468.214 1367.91C468.995 1367.14 469.599 1366.19 470.025 1365.05L474.883 1366.41C474.372 1368.06 473.512 1369.51 472.305 1370.76C471.098 1372 469.606 1372.96 467.831 1373.66C466.055 1374.34 464.059 1374.68 461.843 1374.68ZM497.618 1341.27V1345.53H479.975V1341.27H497.618ZM485.26 1374V1336.76C485.26 1334.88 485.7 1333.32 486.581 1332.07C487.461 1330.82 488.605 1329.88 490.011 1329.26C491.417 1328.63 492.902 1328.32 494.464 1328.32C495.7 1328.32 496.708 1328.42 497.49 1328.62C498.271 1328.82 498.853 1329 499.237 1329.17L497.788 1333.52C497.532 1333.43 497.177 1333.33 496.723 1333.2C496.282 1333.07 495.7 1333.01 494.975 1333.01C493.314 1333.01 492.113 1333.42 491.375 1334.26C490.65 1335.1 490.288 1336.33 490.288 1337.95V1374H485.26ZM504.665 1374V1341.27H509.693V1374H504.665ZM507.222 1335.82C506.241 1335.82 505.396 1335.48 504.686 1334.82C503.99 1334.15 503.642 1333.35 503.642 1332.41C503.642 1331.47 503.99 1330.67 504.686 1330C505.396 1329.33 506.241 1329 507.222 1329C508.202 1329 509.04 1329.33 509.736 1330C510.446 1330.67 510.801 1331.47 510.801 1332.41C510.801 1333.35 510.446 1334.15 509.736 1334.82C509.04 1335.48 508.202 1335.82 507.222 1335.82ZM523.931 1330.36V1374H518.903V1330.36H523.931ZM546.863 1374.68C543.71 1374.68 540.989 1373.99 538.702 1372.59C536.43 1371.19 534.675 1369.23 533.44 1366.71C532.218 1364.18 531.607 1361.24 531.607 1357.89C531.607 1354.54 532.218 1351.59 533.44 1349.03C534.675 1346.46 536.394 1344.45 538.596 1343.02C540.812 1341.57 543.397 1340.85 546.352 1340.85C548.056 1340.85 549.739 1341.13 551.401 1341.7C553.063 1342.27 554.576 1343.19 555.94 1344.47C557.303 1345.73 558.39 1347.41 559.2 1349.5C560.009 1351.59 560.414 1354.16 560.414 1357.21V1359.34H535.187V1354.99H555.3C555.3 1353.15 554.931 1351.5 554.192 1350.05C553.468 1348.6 552.431 1347.46 551.082 1346.62C549.746 1345.78 548.17 1345.36 546.352 1345.36C544.349 1345.36 542.616 1345.86 541.153 1346.86C539.704 1347.84 538.589 1349.11 537.808 1350.69C537.026 1352.27 536.636 1353.96 536.636 1355.76V1358.66C536.636 1361.13 537.062 1363.23 537.914 1364.94C538.781 1366.65 539.981 1367.95 541.515 1368.84C543.049 1369.72 544.832 1370.16 546.863 1370.16C548.184 1370.16 549.377 1369.98 550.442 1369.61C551.522 1369.23 552.452 1368.66 553.234 1367.91C554.015 1367.14 554.619 1366.19 555.045 1365.05L559.903 1366.41C559.391 1368.06 558.532 1369.51 557.325 1370.76C556.117 1372 554.626 1372.96 552.85 1373.66C551.075 1374.34 549.079 1374.68 546.863 1374.68Z" fill="#2D2D2D"/>
<path d="M325.602 1135V1102.27H330.46V1107.39H330.886C331.568 1105.64 332.669 1104.28 334.189 1103.32C335.709 1102.34 337.534 1101.85 339.665 1101.85C341.824 1101.85 343.621 1102.34 345.055 1103.32C346.504 1104.28 347.634 1105.64 348.443 1107.39H348.784C349.622 1105.7 350.879 1104.35 352.555 1103.36C354.232 1102.35 356.241 1101.85 358.585 1101.85C361.511 1101.85 363.905 1102.76 365.766 1104.6C367.626 1106.41 368.557 1109.25 368.557 1113.1V1135H363.528V1113.1C363.528 1110.68 362.868 1108.96 361.547 1107.92C360.226 1106.88 358.67 1106.36 356.881 1106.36C354.58 1106.36 352.797 1107.06 351.533 1108.45C350.268 1109.83 349.636 1111.58 349.636 1113.69V1135H344.523V1112.59C344.523 1110.72 343.919 1109.23 342.712 1108.09C341.504 1106.94 339.949 1106.36 338.045 1106.36C336.739 1106.36 335.517 1106.71 334.381 1107.41C333.259 1108.1 332.349 1109.07 331.653 1110.31C330.972 1111.53 330.631 1112.94 330.631 1114.55V1135H325.602ZM387.381 1135.77C385.308 1135.77 383.425 1135.38 381.735 1134.6C380.045 1133.8 378.702 1132.66 377.708 1131.16C376.714 1129.66 376.217 1127.84 376.217 1125.71C376.217 1123.84 376.586 1122.32 377.325 1121.15C378.063 1119.97 379.05 1119.05 380.286 1118.38C381.522 1117.71 382.886 1117.22 384.377 1116.89C385.883 1116.55 387.396 1116.28 388.915 1116.08C390.904 1115.82 392.516 1115.63 393.752 1115.5C395.002 1115.36 395.911 1115.13 396.479 1114.8C397.062 1114.47 397.353 1113.91 397.353 1113.1V1112.93C397.353 1110.82 396.778 1109.19 395.627 1108.03C394.491 1106.86 392.765 1106.28 390.45 1106.28C388.049 1106.28 386.167 1106.8 384.803 1107.86C383.44 1108.91 382.481 1110.03 381.927 1111.22L377.154 1109.52C378.006 1107.53 379.143 1105.98 380.563 1104.87C381.998 1103.75 383.56 1102.97 385.251 1102.53C386.955 1102.07 388.631 1101.85 390.279 1101.85C391.33 1101.85 392.538 1101.97 393.901 1102.23C395.279 1102.47 396.607 1102.98 397.886 1103.74C399.178 1104.51 400.251 1105.67 401.103 1107.22C401.955 1108.76 402.381 1110.84 402.381 1113.44V1135H397.353V1130.57H397.097C396.756 1131.28 396.188 1132.04 395.393 1132.85C394.597 1133.66 393.539 1134.35 392.218 1134.91C390.897 1135.48 389.285 1135.77 387.381 1135.77ZM388.148 1131.25C390.137 1131.25 391.813 1130.86 393.177 1130.08C394.555 1129.3 395.592 1128.29 396.288 1127.05C396.998 1125.82 397.353 1124.52 397.353 1123.15V1118.55C397.14 1118.81 396.671 1119.04 395.947 1119.25C395.237 1119.45 394.413 1119.63 393.475 1119.79C392.552 1119.93 391.65 1120.06 390.769 1120.17C389.903 1120.27 389.2 1120.36 388.66 1120.43C387.353 1120.6 386.131 1120.87 384.995 1121.26C383.873 1121.63 382.964 1122.19 382.268 1122.94C381.586 1123.68 381.245 1124.69 381.245 1125.97C381.245 1127.71 381.891 1129.03 383.184 1129.93C384.491 1130.81 386.146 1131.25 388.148 1131.25ZM416.588 1091.36V1135H411.559V1091.36H416.588ZM425.798 1135V1102.27H430.826V1135H425.798ZM428.354 1096.82C427.374 1096.82 426.529 1096.48 425.819 1095.82C425.123 1095.15 424.775 1094.35 424.775 1093.41C424.775 1092.47 425.123 1091.67 425.819 1091C426.529 1090.33 427.374 1090 428.354 1090C429.335 1090 430.173 1090.33 430.869 1091C431.579 1091.67 431.934 1092.47 431.934 1093.41C431.934 1094.35 431.579 1095.15 430.869 1095.82C430.173 1096.48 429.335 1096.82 428.354 1096.82ZM453.331 1135.68C450.263 1135.68 447.621 1134.96 445.405 1133.51C443.189 1132.06 441.485 1130.06 440.292 1127.52C439.098 1124.98 438.502 1122.07 438.502 1118.81C438.502 1115.48 439.113 1112.55 440.334 1110.01C441.57 1107.45 443.289 1105.45 445.49 1104.02C447.706 1102.57 450.292 1101.85 453.246 1101.85C455.547 1101.85 457.621 1102.27 459.468 1103.12C461.314 1103.98 462.827 1105.17 464.006 1106.7C465.185 1108.24 465.917 1110.03 466.201 1112.07H461.172C460.789 1110.58 459.936 1109.26 458.615 1108.11C457.309 1106.95 455.547 1106.36 453.331 1106.36C451.371 1106.36 449.652 1106.87 448.175 1107.9C446.712 1108.91 445.569 1110.33 444.745 1112.18C443.935 1114.01 443.53 1116.16 443.53 1118.64C443.53 1121.16 443.928 1123.37 444.723 1125.24C445.533 1127.12 446.669 1128.57 448.132 1129.61C449.61 1130.65 451.343 1131.16 453.331 1131.16C454.638 1131.16 455.824 1130.94 456.89 1130.48C457.955 1130.03 458.857 1129.38 459.596 1128.52C460.334 1127.67 460.86 1126.65 461.172 1125.45H466.201C465.917 1127.39 465.213 1129.13 464.091 1130.67C462.983 1132.21 461.513 1133.43 459.681 1134.34C457.863 1135.23 455.746 1135.68 453.331 1135.68ZM473.551 1135V1102.27H478.58V1135H473.551ZM476.108 1096.82C475.128 1096.82 474.283 1096.48 473.573 1095.82C472.877 1095.15 472.529 1094.35 472.529 1093.41C472.529 1092.47 472.877 1091.67 473.573 1091C474.283 1090.33 475.128 1090 476.108 1090C477.088 1090 477.926 1090.33 478.623 1091C479.333 1091.67 479.688 1092.47 479.688 1093.41C479.688 1094.35 479.333 1095.15 478.623 1095.82C477.926 1096.48 477.088 1096.82 476.108 1096.82ZM501.085 1135.68C498.131 1135.68 495.538 1134.98 493.308 1133.57C491.092 1132.17 489.359 1130.2 488.109 1127.67C486.874 1125.14 486.256 1122.19 486.256 1118.81C486.256 1115.4 486.874 1112.42 488.109 1109.88C489.359 1107.34 491.092 1105.36 493.308 1103.96C495.538 1102.55 498.131 1101.85 501.085 1101.85C504.04 1101.85 506.625 1102.55 508.841 1103.96C511.071 1105.36 512.804 1107.34 514.04 1109.88C515.29 1112.42 515.915 1115.4 515.915 1118.81C515.915 1122.19 515.29 1125.14 514.04 1127.67C512.804 1130.2 511.071 1132.17 508.841 1133.57C506.625 1134.98 504.04 1135.68 501.085 1135.68ZM501.085 1131.16C503.33 1131.16 505.176 1130.59 506.625 1129.44C508.074 1128.29 509.146 1126.78 509.842 1124.9C510.538 1123.03 510.886 1120.99 510.886 1118.81C510.886 1116.62 510.538 1114.58 509.842 1112.69C509.146 1110.8 508.074 1109.28 506.625 1108.11C505.176 1106.95 503.33 1106.36 501.085 1106.36C498.841 1106.36 496.994 1106.95 495.545 1108.11C494.097 1109.28 493.024 1110.8 492.328 1112.69C491.632 1114.58 491.284 1116.62 491.284 1118.81C491.284 1120.99 491.632 1123.03 492.328 1124.9C493.024 1126.78 494.097 1128.29 495.545 1129.44C496.994 1130.59 498.841 1131.16 501.085 1131.16ZM544.216 1121.62V1102.27H549.244V1135H544.216V1129.46H543.875C543.108 1131.12 541.914 1132.54 540.295 1133.7C538.676 1134.85 536.63 1135.43 534.159 1135.43C532.113 1135.43 530.295 1134.98 528.704 1134.08C527.113 1133.17 525.863 1131.81 524.954 1129.99C524.045 1128.16 523.591 1125.85 523.591 1123.07V1102.27H528.619V1122.73C528.619 1125.11 529.287 1127.02 530.622 1128.44C531.971 1129.86 533.69 1130.57 535.778 1130.57C537.028 1130.57 538.299 1130.25 539.592 1129.61C540.899 1128.97 541.993 1127.99 542.873 1126.67C543.768 1125.35 544.216 1123.66 544.216 1121.62ZM581.636 1109.6L577.119 1110.88C576.835 1110.13 576.415 1109.4 575.862 1108.69C575.322 1107.96 574.583 1107.37 573.646 1106.9C572.708 1106.43 571.508 1106.19 570.045 1106.19C568.042 1106.19 566.373 1106.65 565.038 1107.58C563.717 1108.49 563.056 1109.64 563.056 1111.05C563.056 1112.3 563.511 1113.29 564.42 1114.01C565.329 1114.74 566.749 1115.34 568.681 1115.82L573.539 1117.02C576.465 1117.73 578.646 1118.81 580.08 1120.28C581.515 1121.73 582.232 1123.59 582.232 1125.88C582.232 1127.76 581.692 1129.43 580.613 1130.91C579.548 1132.39 578.056 1133.55 576.138 1134.4C574.221 1135.26 571.991 1135.68 569.448 1135.68C566.11 1135.68 563.347 1134.96 561.16 1133.51C558.972 1132.06 557.587 1129.94 557.005 1127.16L561.778 1125.97C562.232 1127.73 563.092 1129.05 564.356 1129.93C565.634 1130.81 567.303 1131.25 569.363 1131.25C571.707 1131.25 573.567 1130.75 574.945 1129.76C576.337 1128.75 577.033 1127.54 577.033 1126.14C577.033 1125 576.636 1124.05 575.84 1123.28C575.045 1122.5 573.823 1121.92 572.175 1121.53L566.721 1120.26C563.724 1119.55 561.522 1118.44 560.116 1116.95C558.724 1115.45 558.028 1113.57 558.028 1111.31C558.028 1109.46 558.546 1107.83 559.583 1106.41C560.634 1104.99 562.062 1103.87 563.866 1103.06C565.684 1102.25 567.744 1101.85 570.045 1101.85C573.283 1101.85 575.826 1102.56 577.673 1103.98C579.533 1105.4 580.854 1107.27 581.636 1109.6ZM606.676 1147.27V1102.27H611.534V1107.47H612.131C612.5 1106.9 613.012 1106.18 613.665 1105.3C614.333 1104.4 615.284 1103.61 616.52 1102.91C617.77 1102.2 619.461 1101.85 621.591 1101.85C624.347 1101.85 626.776 1102.54 628.878 1103.91C630.98 1105.29 632.621 1107.24 633.8 1109.77C634.979 1112.3 635.569 1115.28 635.569 1118.72C635.569 1122.19 634.979 1125.19 633.8 1127.73C632.621 1130.26 630.988 1132.22 628.9 1133.62C626.811 1134.99 624.404 1135.68 621.676 1135.68C619.574 1135.68 617.891 1135.33 616.627 1134.64C615.363 1133.93 614.39 1133.12 613.708 1132.23C613.026 1131.32 612.5 1130.57 612.131 1129.97H611.705V1147.27H606.676ZM611.62 1118.64C611.62 1121.11 611.982 1123.29 612.706 1125.18C613.431 1127.05 614.489 1128.52 615.881 1129.59C617.273 1130.64 618.978 1131.16 620.995 1131.16C623.097 1131.16 624.851 1130.61 626.257 1129.5C627.678 1128.38 628.743 1126.87 629.453 1124.99C630.178 1123.08 630.54 1120.97 630.54 1118.64C630.54 1116.34 630.185 1114.26 629.475 1112.41C628.779 1110.55 627.721 1109.08 626.3 1108C624.894 1106.91 623.125 1106.36 620.995 1106.36C618.949 1106.36 617.23 1106.88 615.838 1107.92C614.446 1108.94 613.395 1110.38 612.685 1112.22C611.975 1114.06 611.62 1116.19 611.62 1118.64ZM643.239 1135V1102.27H648.097V1107.22H648.438C649.034 1105.6 650.114 1104.28 651.676 1103.27C653.239 1102.27 655 1101.76 656.961 1101.76C657.33 1101.76 657.792 1101.77 658.346 1101.78C658.9 1101.8 659.319 1101.82 659.603 1101.85V1106.96C659.432 1106.92 659.042 1106.85 658.431 1106.77C657.834 1106.67 657.202 1106.62 656.534 1106.62C654.944 1106.62 653.523 1106.95 652.273 1107.62C651.037 1108.27 650.057 1109.18 649.333 1110.35C648.623 1111.5 648.267 1112.81 648.267 1114.29V1135H643.239ZM677.863 1135.68C674.908 1135.68 672.316 1134.98 670.086 1133.57C667.87 1132.17 666.137 1130.2 664.887 1127.67C663.651 1125.14 663.033 1122.19 663.033 1118.81C663.033 1115.4 663.651 1112.42 664.887 1109.88C666.137 1107.34 667.87 1105.36 670.086 1103.96C672.316 1102.55 674.908 1101.85 677.863 1101.85C680.817 1101.85 683.402 1102.55 685.618 1103.96C687.848 1105.36 689.581 1107.34 690.817 1109.88C692.067 1112.42 692.692 1115.4 692.692 1118.81C692.692 1122.19 692.067 1125.14 690.817 1127.67C689.581 1130.2 687.848 1132.17 685.618 1133.57C683.402 1134.98 680.817 1135.68 677.863 1135.68ZM677.863 1131.16C680.107 1131.16 681.953 1130.59 683.402 1129.44C684.851 1128.29 685.924 1126.78 686.62 1124.9C687.316 1123.03 687.664 1120.99 687.664 1118.81C687.664 1116.62 687.316 1114.58 686.62 1112.69C685.924 1110.8 684.851 1109.28 683.402 1108.11C681.953 1106.95 680.107 1106.36 677.863 1106.36C675.618 1106.36 673.772 1106.95 672.323 1108.11C670.874 1109.28 669.801 1110.8 669.105 1112.69C668.409 1114.58 668.061 1116.62 668.061 1118.81C668.061 1120.99 668.409 1123.03 669.105 1124.9C669.801 1126.78 670.874 1128.29 672.323 1129.44C673.772 1130.59 675.618 1131.16 677.863 1131.16ZM713.578 1147.95C711.149 1147.95 709.061 1147.64 707.314 1147.02C705.567 1146.41 704.111 1145.6 702.946 1144.59C701.795 1143.59 700.879 1142.53 700.197 1141.39L704.203 1138.58C704.658 1139.18 705.233 1139.86 705.929 1140.62C706.625 1141.41 707.577 1142.08 708.784 1142.65C710.006 1143.23 711.604 1143.52 713.578 1143.52C716.22 1143.52 718.401 1142.88 720.119 1141.61C721.838 1140.33 722.697 1138.32 722.697 1135.6V1128.95H722.271C721.902 1129.55 721.376 1130.28 720.695 1131.16C720.027 1132.03 719.061 1132.81 717.797 1133.49C716.547 1134.15 714.857 1134.49 712.726 1134.49C710.084 1134.49 707.712 1133.86 705.609 1132.61C703.521 1131.36 701.866 1129.55 700.645 1127.16C699.438 1124.77 698.834 1121.87 698.834 1118.47C698.834 1115.11 699.423 1112.19 700.602 1109.71C701.781 1107.21 703.422 1105.28 705.524 1103.91C707.626 1102.54 710.055 1101.85 712.811 1101.85C714.942 1101.85 716.632 1102.2 717.882 1102.91C719.146 1103.61 720.112 1104.4 720.78 1105.3C721.462 1106.18 721.987 1106.9 722.357 1107.47H722.868V1102.27H727.726V1135.94C727.726 1138.75 727.087 1141.04 725.808 1142.8C724.544 1144.57 722.839 1145.87 720.695 1146.7C718.564 1147.54 716.192 1147.95 713.578 1147.95ZM713.408 1129.97C715.425 1129.97 717.129 1129.51 718.521 1128.59C719.913 1127.66 720.972 1126.34 721.696 1124.6C722.42 1122.87 722.783 1120.8 722.783 1118.38C722.783 1116.02 722.428 1113.94 721.717 1112.14C721.007 1110.33 719.956 1108.92 718.564 1107.9C717.172 1106.87 715.453 1106.36 713.408 1106.36C711.277 1106.36 709.501 1106.9 708.081 1107.98C706.675 1109.06 705.616 1110.51 704.906 1112.33C704.21 1114.15 703.862 1116.16 703.862 1118.38C703.862 1120.65 704.217 1122.66 704.928 1124.41C705.652 1126.14 706.717 1127.51 708.124 1128.5C709.544 1129.48 711.305 1129.97 713.408 1129.97ZM736.93 1135V1102.27H741.788V1107.22H742.129C742.726 1105.6 743.805 1104.28 745.368 1103.27C746.93 1102.27 748.692 1101.76 750.652 1101.76C751.021 1101.76 751.483 1101.77 752.037 1101.78C752.591 1101.8 753.01 1101.82 753.294 1101.85V1106.96C753.124 1106.92 752.733 1106.85 752.122 1106.77C751.526 1106.67 750.893 1106.62 750.226 1106.62C748.635 1106.62 747.214 1106.95 745.964 1107.62C744.729 1108.27 743.749 1109.18 743.024 1110.35C742.314 1111.5 741.959 1112.81 741.959 1114.29V1135H736.93ZM768.885 1135.77C766.811 1135.77 764.929 1135.38 763.239 1134.6C761.549 1133.8 760.206 1132.66 759.212 1131.16C758.218 1129.66 757.721 1127.84 757.721 1125.71C757.721 1123.84 758.09 1122.32 758.828 1121.15C759.567 1119.97 760.554 1119.05 761.79 1118.38C763.026 1117.71 764.39 1117.22 765.881 1116.89C767.387 1116.55 768.9 1116.28 770.419 1116.08C772.408 1115.82 774.02 1115.63 775.256 1115.5C776.506 1115.36 777.415 1115.13 777.983 1114.8C778.566 1114.47 778.857 1113.91 778.857 1113.1V1112.93C778.857 1110.82 778.282 1109.19 777.131 1108.03C775.995 1106.86 774.269 1106.28 771.953 1106.28C769.553 1106.28 767.671 1106.8 766.307 1107.86C764.944 1108.91 763.985 1110.03 763.431 1111.22L758.658 1109.52C759.51 1107.53 760.647 1105.98 762.067 1104.87C763.502 1103.75 765.064 1102.97 766.755 1102.53C768.459 1102.07 770.135 1101.85 771.783 1101.85C772.834 1101.85 774.042 1101.97 775.405 1102.23C776.783 1102.47 778.111 1102.98 779.39 1103.74C780.682 1104.51 781.755 1105.67 782.607 1107.22C783.459 1108.76 783.885 1110.84 783.885 1113.44V1135H778.857V1130.57H778.601C778.26 1131.28 777.692 1132.04 776.897 1132.85C776.101 1133.66 775.043 1134.35 773.722 1134.91C772.401 1135.48 770.789 1135.77 768.885 1135.77ZM769.652 1131.25C771.641 1131.25 773.317 1130.86 774.681 1130.08C776.059 1129.3 777.096 1128.29 777.792 1127.05C778.502 1125.82 778.857 1124.52 778.857 1123.15V1118.55C778.644 1118.81 778.175 1119.04 777.451 1119.25C776.74 1119.45 775.917 1119.63 774.979 1119.79C774.056 1119.93 773.154 1120.06 772.273 1120.17C771.407 1120.27 770.703 1120.36 770.164 1120.43C768.857 1120.6 767.635 1120.87 766.499 1121.26C765.377 1121.63 764.468 1122.19 763.772 1122.94C763.09 1123.68 762.749 1124.69 762.749 1125.97C762.749 1127.71 763.395 1129.03 764.688 1129.93C765.995 1130.81 767.65 1131.25 769.652 1131.25ZM793.063 1135V1102.27H797.921V1107.39H798.347C799.029 1105.64 800.13 1104.28 801.65 1103.32C803.17 1102.34 804.995 1101.85 807.126 1101.85C809.285 1101.85 811.082 1102.34 812.516 1103.32C813.965 1104.28 815.094 1105.64 815.904 1107.39H816.245C817.083 1105.7 818.34 1104.35 820.016 1103.36C821.692 1102.35 823.702 1101.85 826.046 1101.85C828.972 1101.85 831.366 1102.76 833.227 1104.6C835.087 1106.41 836.018 1109.25 836.018 1113.1V1135H830.989V1113.1C830.989 1110.68 830.329 1108.96 829.008 1107.92C827.687 1106.88 826.131 1106.36 824.342 1106.36C822.04 1106.36 820.258 1107.06 818.994 1108.45C817.729 1109.83 817.097 1111.58 817.097 1113.69V1135H811.984V1112.59C811.984 1110.72 811.38 1109.23 810.173 1108.09C808.965 1106.94 807.41 1106.36 805.506 1106.36C804.2 1106.36 802.978 1106.71 801.842 1107.41C800.719 1108.1 799.81 1109.07 799.114 1110.31C798.433 1111.53 798.092 1112.94 798.092 1114.55V1135H793.063Z" fill="#2D2D2D"/>
<path d="M338.812 689.955C336.384 689.955 334.295 689.642 332.548 689.017C330.801 688.406 329.345 687.597 328.18 686.588C327.03 685.594 326.114 684.528 325.432 683.392L329.438 680.58C329.892 681.176 330.467 681.858 331.163 682.625C331.859 683.406 332.811 684.081 334.018 684.649C335.24 685.232 336.838 685.523 338.812 685.523C341.455 685.523 343.635 684.884 345.354 683.605C347.072 682.327 347.932 680.324 347.932 677.597V670.949H347.506C347.136 671.545 346.611 672.284 345.929 673.165C345.261 674.031 344.295 674.805 343.031 675.487C341.781 676.155 340.091 676.489 337.96 676.489C335.318 676.489 332.946 675.864 330.844 674.614C328.756 673.364 327.101 671.545 325.879 669.159C324.672 666.773 324.068 663.875 324.068 660.466C324.068 657.114 324.658 654.195 325.837 651.709C327.016 649.209 328.656 647.277 330.759 645.913C332.861 644.536 335.29 643.847 338.045 643.847C340.176 643.847 341.866 644.202 343.116 644.912C344.381 645.608 345.347 646.403 346.014 647.298C346.696 648.179 347.222 648.903 347.591 649.472H348.102V644.273H352.96V677.938C352.96 680.75 352.321 683.037 351.043 684.798C349.778 686.574 348.074 687.874 345.929 688.697C343.798 689.536 341.426 689.955 338.812 689.955ZM338.642 671.972C340.659 671.972 342.364 671.51 343.756 670.587C345.148 669.663 346.206 668.335 346.93 666.602C347.655 664.869 348.017 662.795 348.017 660.381C348.017 658.023 347.662 655.942 346.952 654.138C346.241 652.334 345.19 650.92 343.798 649.898C342.406 648.875 340.688 648.364 338.642 648.364C336.511 648.364 334.736 648.903 333.315 649.983C331.909 651.062 330.851 652.511 330.141 654.33C329.445 656.148 329.097 658.165 329.097 660.381C329.097 662.653 329.452 664.663 330.162 666.411C330.886 668.143 331.952 669.507 333.358 670.501C334.778 671.482 336.54 671.972 338.642 671.972ZM371.795 677.767C369.722 677.767 367.839 677.376 366.149 676.595C364.459 675.8 363.116 674.656 362.122 673.165C361.128 671.659 360.631 669.841 360.631 667.71C360.631 665.835 361 664.315 361.739 663.151C362.477 661.972 363.464 661.048 364.7 660.381C365.936 659.713 367.3 659.216 368.791 658.889C370.297 658.548 371.81 658.278 373.33 658.08C375.318 657.824 376.93 657.632 378.166 657.504C379.416 657.362 380.325 657.128 380.893 656.801C381.476 656.474 381.767 655.906 381.767 655.097V654.926C381.767 652.824 381.192 651.19 380.041 650.026C378.905 648.861 377.179 648.278 374.864 648.278C372.463 648.278 370.581 648.804 369.217 649.855C367.854 650.906 366.895 652.028 366.341 653.222L361.568 651.517C362.42 649.528 363.557 647.98 364.977 646.872C366.412 645.75 367.974 644.969 369.665 644.528C371.369 644.074 373.045 643.847 374.693 643.847C375.744 643.847 376.952 643.974 378.315 644.23C379.693 644.472 381.021 644.976 382.3 645.743C383.592 646.51 384.665 647.668 385.517 649.216C386.369 650.764 386.795 652.838 386.795 655.438V677H381.767V672.568H381.511C381.17 673.278 380.602 674.038 379.807 674.848C379.011 675.658 377.953 676.347 376.632 676.915C375.311 677.483 373.699 677.767 371.795 677.767ZM372.562 673.25C374.551 673.25 376.227 672.859 377.591 672.078C378.969 671.297 380.006 670.288 380.702 669.053C381.412 667.817 381.767 666.517 381.767 665.153V660.551C381.554 660.807 381.085 661.041 380.361 661.254C379.651 661.453 378.827 661.631 377.889 661.787C376.966 661.929 376.064 662.057 375.183 662.17C374.317 662.27 373.614 662.355 373.074 662.426C371.767 662.597 370.545 662.874 369.409 663.257C368.287 663.626 367.378 664.187 366.682 664.94C366 665.679 365.659 666.687 365.659 667.966C365.659 669.713 366.305 671.034 367.598 671.929C368.905 672.81 370.56 673.25 372.562 673.25ZM395.973 677V644.273H400.831V649.386H401.257C401.939 647.639 403.04 646.283 404.56 645.317C406.08 644.337 407.905 643.847 410.036 643.847C412.195 643.847 413.992 644.337 415.426 645.317C416.875 646.283 418.005 647.639 418.814 649.386H419.155C419.993 647.696 421.25 646.354 422.926 645.359C424.603 644.351 426.613 643.847 428.956 643.847C431.882 643.847 434.276 644.763 436.137 646.595C437.998 648.413 438.928 651.247 438.928 655.097V677H433.9V655.097C433.9 652.682 433.239 650.956 431.918 649.919C430.597 648.882 429.042 648.364 427.252 648.364C424.951 648.364 423.168 649.06 421.904 650.452C420.64 651.83 420.007 653.577 420.007 655.693V677H414.894V654.585C414.894 652.724 414.29 651.226 413.083 650.089C411.875 648.939 410.32 648.364 408.417 648.364C407.11 648.364 405.888 648.712 404.752 649.408C403.63 650.104 402.721 651.07 402.025 652.305C401.343 653.527 401.002 654.94 401.002 656.545V677H395.973ZM461.843 677.682C458.69 677.682 455.97 676.986 453.683 675.594C451.41 674.188 449.656 672.227 448.42 669.713C447.199 667.185 446.588 664.244 446.588 660.892C446.588 657.54 447.199 654.585 448.42 652.028C449.656 649.457 451.375 647.455 453.576 646.02C455.792 644.571 458.377 643.847 461.332 643.847C463.037 643.847 464.72 644.131 466.382 644.699C468.044 645.267 469.556 646.19 470.92 647.469C472.284 648.733 473.37 650.409 474.18 652.497C474.99 654.585 475.395 657.156 475.395 660.21V662.341H450.167V657.994H470.281C470.281 656.148 469.912 654.5 469.173 653.051C468.449 651.602 467.412 650.459 466.062 649.621C464.727 648.783 463.15 648.364 461.332 648.364C459.329 648.364 457.596 648.861 456.133 649.855C454.684 650.835 453.569 652.114 452.788 653.69C452.007 655.267 451.616 656.957 451.616 658.761V661.659C451.616 664.131 452.042 666.226 452.895 667.945C453.761 669.649 454.961 670.949 456.495 671.844C458.029 672.724 459.812 673.165 461.843 673.165C463.164 673.165 464.358 672.98 465.423 672.611C466.502 672.227 467.433 671.659 468.214 670.906C468.995 670.139 469.599 669.187 470.025 668.051L474.883 669.415C474.372 671.062 473.512 672.511 472.305 673.761C471.098 674.997 469.606 675.963 467.831 676.659C466.055 677.341 464.059 677.682 461.843 677.682ZM497.618 644.273V648.534H479.975V644.273H497.618ZM485.26 677V639.756C485.26 637.881 485.7 636.318 486.581 635.068C487.461 633.818 488.605 632.881 490.011 632.256C491.417 631.631 492.902 631.318 494.464 631.318C495.7 631.318 496.708 631.418 497.49 631.616C498.271 631.815 498.853 632 499.237 632.17L497.788 636.517C497.532 636.432 497.177 636.325 496.723 636.197C496.282 636.07 495.7 636.006 494.975 636.006C493.314 636.006 492.113 636.425 491.375 637.263C490.65 638.101 490.288 639.33 490.288 640.949V677H485.26ZM504.665 677V644.273H509.693V677H504.665ZM507.222 638.818C506.241 638.818 505.396 638.484 504.686 637.817C503.99 637.149 503.642 636.347 503.642 635.409C503.642 634.472 503.99 633.669 504.686 633.001C505.396 632.334 506.241 632 507.222 632C508.202 632 509.04 632.334 509.736 633.001C510.446 633.669 510.801 634.472 510.801 635.409C510.801 636.347 510.446 637.149 509.736 637.817C509.04 638.484 508.202 638.818 507.222 638.818ZM523.931 633.364V677H518.903V633.364H523.931ZM546.863 677.682C543.71 677.682 540.989 676.986 538.702 675.594C536.43 674.188 534.675 672.227 533.44 669.713C532.218 667.185 531.607 664.244 531.607 660.892C531.607 657.54 532.218 654.585 533.44 652.028C534.675 649.457 536.394 647.455 538.596 646.02C540.812 644.571 543.397 643.847 546.352 643.847C548.056 643.847 549.739 644.131 551.401 644.699C553.063 645.267 554.576 646.19 555.94 647.469C557.303 648.733 558.39 650.409 559.2 652.497C560.009 654.585 560.414 657.156 560.414 660.21V662.341H535.187V657.994H555.3C555.3 656.148 554.931 654.5 554.192 653.051C553.468 651.602 552.431 650.459 551.082 649.621C549.746 648.783 548.17 648.364 546.352 648.364C544.349 648.364 542.616 648.861 541.153 649.855C539.704 650.835 538.589 652.114 537.808 653.69C537.026 655.267 536.636 656.957 536.636 658.761V661.659C536.636 664.131 537.062 666.226 537.914 667.945C538.781 669.649 539.981 670.949 541.515 671.844C543.049 672.724 544.832 673.165 546.863 673.165C548.184 673.165 549.377 672.98 550.442 672.611C551.522 672.227 552.452 671.659 553.234 670.906C554.015 670.139 554.619 669.187 555.045 668.051L559.903 669.415C559.391 671.062 558.532 672.511 557.325 673.761C556.117 674.997 554.626 675.963 552.85 676.659C551.075 677.341 549.079 677.682 546.863 677.682Z" fill="#2D2D2D"/>
<path d="M348.812 918.955C346.384 918.955 344.295 918.642 342.548 918.017C340.801 917.406 339.345 916.597 338.18 915.588C337.03 914.594 336.114 913.528 335.432 912.392L339.438 909.58C339.892 910.176 340.467 910.858 341.163 911.625C341.859 912.406 342.811 913.081 344.018 913.649C345.24 914.232 346.838 914.523 348.812 914.523C351.455 914.523 353.635 913.884 355.354 912.605C357.072 911.327 357.932 909.324 357.932 906.597V899.949H357.506C357.136 900.545 356.611 901.284 355.929 902.165C355.261 903.031 354.295 903.805 353.031 904.487C351.781 905.155 350.091 905.489 347.96 905.489C345.318 905.489 342.946 904.864 340.844 903.614C338.756 902.364 337.101 900.545 335.879 898.159C334.672 895.773 334.068 892.875 334.068 889.466C334.068 886.114 334.658 883.195 335.837 880.709C337.016 878.209 338.656 876.277 340.759 874.913C342.861 873.536 345.29 872.847 348.045 872.847C350.176 872.847 351.866 873.202 353.116 873.912C354.381 874.608 355.347 875.403 356.014 876.298C356.696 877.179 357.222 877.903 357.591 878.472H358.102V873.273H362.96V906.938C362.96 909.75 362.321 912.037 361.043 913.798C359.778 915.574 358.074 916.874 355.929 917.697C353.798 918.536 351.426 918.955 348.812 918.955ZM348.642 900.972C350.659 900.972 352.364 900.51 353.756 899.587C355.148 898.663 356.206 897.335 356.93 895.602C357.655 893.869 358.017 891.795 358.017 889.381C358.017 887.023 357.662 884.942 356.952 883.138C356.241 881.334 355.19 879.92 353.798 878.898C352.406 877.875 350.688 877.364 348.642 877.364C346.511 877.364 344.736 877.903 343.315 878.983C341.909 880.062 340.851 881.511 340.141 883.33C339.445 885.148 339.097 887.165 339.097 889.381C339.097 891.653 339.452 893.663 340.162 895.411C340.886 897.143 341.952 898.507 343.358 899.501C344.778 900.482 346.54 900.972 348.642 900.972ZM381.795 906.767C379.722 906.767 377.839 906.376 376.149 905.595C374.459 904.8 373.116 903.656 372.122 902.165C371.128 900.659 370.631 898.841 370.631 896.71C370.631 894.835 371 893.315 371.739 892.151C372.477 890.972 373.464 890.048 374.7 889.381C375.936 888.713 377.3 888.216 378.791 887.889C380.297 887.548 381.81 887.278 383.33 887.08C385.318 886.824 386.93 886.632 388.166 886.504C389.416 886.362 390.325 886.128 390.893 885.801C391.476 885.474 391.767 884.906 391.767 884.097V883.926C391.767 881.824 391.192 880.19 390.041 879.026C388.905 877.861 387.179 877.278 384.864 877.278C382.463 877.278 380.581 877.804 379.217 878.855C377.854 879.906 376.895 881.028 376.341 882.222L371.568 880.517C372.42 878.528 373.557 876.98 374.977 875.872C376.412 874.75 377.974 873.969 379.665 873.528C381.369 873.074 383.045 872.847 384.693 872.847C385.744 872.847 386.952 872.974 388.315 873.23C389.693 873.472 391.021 873.976 392.3 874.743C393.592 875.51 394.665 876.668 395.517 878.216C396.369 879.764 396.795 881.838 396.795 884.438V906H391.767V901.568H391.511C391.17 902.278 390.602 903.038 389.807 903.848C389.011 904.658 387.953 905.347 386.632 905.915C385.311 906.483 383.699 906.767 381.795 906.767ZM382.562 902.25C384.551 902.25 386.227 901.859 387.591 901.078C388.969 900.297 390.006 899.288 390.702 898.053C391.412 896.817 391.767 895.517 391.767 894.153V889.551C391.554 889.807 391.085 890.041 390.361 890.254C389.651 890.453 388.827 890.631 387.889 890.787C386.966 890.929 386.064 891.057 385.183 891.17C384.317 891.27 383.614 891.355 383.074 891.426C381.767 891.597 380.545 891.874 379.409 892.257C378.287 892.626 377.378 893.187 376.682 893.94C376 894.679 375.659 895.687 375.659 896.966C375.659 898.713 376.305 900.034 377.598 900.929C378.905 901.81 380.56 902.25 382.562 902.25ZM405.973 906V873.273H410.831V878.386H411.257C411.939 876.639 413.04 875.283 414.56 874.317C416.08 873.337 417.905 872.847 420.036 872.847C422.195 872.847 423.992 873.337 425.426 874.317C426.875 875.283 428.005 876.639 428.814 878.386H429.155C429.993 876.696 431.25 875.354 432.926 874.359C434.603 873.351 436.613 872.847 438.956 872.847C441.882 872.847 444.276 873.763 446.137 875.595C447.998 877.413 448.928 880.247 448.928 884.097V906H443.9V884.097C443.9 881.682 443.239 879.956 441.918 878.919C440.597 877.882 439.042 877.364 437.252 877.364C434.951 877.364 433.168 878.06 431.904 879.452C430.64 880.83 430.007 882.577 430.007 884.693V906H424.894V883.585C424.894 881.724 424.29 880.226 423.083 879.089C421.875 877.939 420.32 877.364 418.417 877.364C417.11 877.364 415.888 877.712 414.752 878.408C413.63 879.104 412.721 880.07 412.025 881.305C411.343 882.527 411.002 883.94 411.002 885.545V906H405.973ZM471.843 906.682C468.69 906.682 465.97 905.986 463.683 904.594C461.41 903.188 459.656 901.227 458.42 898.713C457.199 896.185 456.588 893.244 456.588 889.892C456.588 886.54 457.199 883.585 458.42 881.028C459.656 878.457 461.375 876.455 463.576 875.02C465.792 873.571 468.377 872.847 471.332 872.847C473.037 872.847 474.72 873.131 476.382 873.699C478.044 874.267 479.556 875.19 480.92 876.469C482.284 877.733 483.37 879.409 484.18 881.497C484.99 883.585 485.395 886.156 485.395 889.21V891.341H460.167V886.994H480.281C480.281 885.148 479.912 883.5 479.173 882.051C478.449 880.602 477.412 879.459 476.062 878.621C474.727 877.783 473.15 877.364 471.332 877.364C469.329 877.364 467.596 877.861 466.133 878.855C464.684 879.835 463.569 881.114 462.788 882.69C462.007 884.267 461.616 885.957 461.616 887.761V890.659C461.616 893.131 462.042 895.226 462.895 896.945C463.761 898.649 464.961 899.949 466.495 900.844C468.029 901.724 469.812 902.165 471.843 902.165C473.164 902.165 474.358 901.98 475.423 901.611C476.502 901.227 477.433 900.659 478.214 899.906C478.995 899.139 479.599 898.187 480.025 897.051L484.883 898.415C484.372 900.062 483.512 901.511 482.305 902.761C481.098 903.997 479.606 904.963 477.831 905.659C476.055 906.341 474.059 906.682 471.843 906.682ZM507.618 873.273V877.534H489.975V873.273H507.618ZM495.26 906V868.756C495.26 866.881 495.7 865.318 496.581 864.068C497.461 862.818 498.605 861.881 500.011 861.256C501.417 860.631 502.902 860.318 504.464 860.318C505.7 860.318 506.708 860.418 507.49 860.616C508.271 860.815 508.853 861 509.237 861.17L507.788 865.517C507.532 865.432 507.177 865.325 506.723 865.197C506.282 865.07 505.7 865.006 504.975 865.006C503.314 865.006 502.113 865.425 501.375 866.263C500.65 867.101 500.288 868.33 500.288 869.949V906H495.26ZM526.613 906.682C523.658 906.682 521.066 905.979 518.836 904.572C516.62 903.166 514.887 901.199 513.637 898.67C512.401 896.142 511.783 893.187 511.783 889.807C511.783 886.398 512.401 883.422 513.637 880.879C514.887 878.337 516.62 876.362 518.836 874.956C521.066 873.55 523.658 872.847 526.613 872.847C529.567 872.847 532.152 873.55 534.368 874.956C536.598 876.362 538.331 878.337 539.567 880.879C540.817 883.422 541.442 886.398 541.442 889.807C541.442 893.187 540.817 896.142 539.567 898.67C538.331 901.199 536.598 903.166 534.368 904.572C532.152 905.979 529.567 906.682 526.613 906.682ZM526.613 902.165C528.857 902.165 530.703 901.589 532.152 900.439C533.601 899.288 534.674 897.776 535.37 895.901C536.066 894.026 536.414 891.994 536.414 889.807C536.414 887.619 536.066 885.581 535.37 883.692C534.674 881.803 533.601 880.276 532.152 879.111C530.703 877.946 528.857 877.364 526.613 877.364C524.368 877.364 522.522 877.946 521.073 879.111C519.624 880.276 518.551 881.803 517.855 883.692C517.159 885.581 516.811 887.619 516.811 889.807C516.811 891.994 517.159 894.026 517.855 895.901C518.551 897.776 519.624 899.288 521.073 900.439C522.522 901.589 524.368 902.165 526.613 902.165ZM554.146 862.364V906H549.118V862.364H554.146ZM575.714 906.682C572.987 906.682 570.579 905.993 568.491 904.615C566.403 903.223 564.77 901.263 563.591 898.734C562.412 896.192 561.822 893.188 561.822 889.722C561.822 886.284 562.412 883.301 563.591 880.773C564.77 878.244 566.41 876.291 568.512 874.913C570.615 873.536 573.044 872.847 575.799 872.847C577.93 872.847 579.613 873.202 580.849 873.912C582.099 874.608 583.051 875.403 583.704 876.298C584.372 877.179 584.89 877.903 585.26 878.472H585.686V862.364H590.714V906H585.856V900.972H585.26C584.89 901.568 584.365 902.321 583.683 903.23C583.001 904.125 582.028 904.928 580.764 905.638C579.5 906.334 577.816 906.682 575.714 906.682ZM576.396 902.165C578.413 902.165 580.118 901.639 581.51 900.588C582.902 899.523 583.96 898.053 584.684 896.178C585.409 894.288 585.771 892.108 585.771 889.636C585.771 887.193 585.416 885.055 584.706 883.223C583.995 881.376 582.944 879.942 581.552 878.919C580.16 877.882 578.441 877.364 576.396 877.364C574.265 877.364 572.49 877.911 571.069 879.004C569.663 880.084 568.605 881.554 567.895 883.415C567.199 885.261 566.85 887.335 566.85 889.636C566.85 891.966 567.206 894.082 567.916 895.986C568.64 897.875 569.706 899.381 571.112 900.503C572.532 901.611 574.294 902.165 576.396 902.165ZM614.343 906.682C611.19 906.682 608.47 905.986 606.183 904.594C603.91 903.188 602.156 901.227 600.92 898.713C599.699 896.185 599.088 893.244 599.088 889.892C599.088 886.54 599.699 883.585 600.92 881.028C602.156 878.457 603.875 876.455 606.076 875.02C608.292 873.571 610.877 872.847 613.832 872.847C615.537 872.847 617.22 873.131 618.882 873.699C620.544 874.267 622.056 875.19 623.42 876.469C624.784 877.733 625.87 879.409 626.68 881.497C627.49 883.585 627.895 886.156 627.895 889.21V891.341H602.667V886.994H622.781C622.781 885.148 622.412 883.5 621.673 882.051C620.949 880.602 619.912 879.459 618.562 878.621C617.227 877.783 615.65 877.364 613.832 877.364C611.829 877.364 610.096 877.861 608.633 878.855C607.184 879.835 606.069 881.114 605.288 882.69C604.507 884.267 604.116 885.957 604.116 887.761V890.659C604.116 893.131 604.542 895.226 605.395 896.945C606.261 898.649 607.461 899.949 608.995 900.844C610.529 901.724 612.312 902.165 614.343 902.165C615.664 902.165 616.858 901.98 617.923 901.611C619.002 901.227 619.933 900.659 620.714 899.906C621.495 899.139 622.099 898.187 622.525 897.051L627.383 898.415C626.872 900.062 626.012 901.511 624.805 902.761C623.598 903.997 622.106 904.963 620.331 905.659C618.555 906.341 616.559 906.682 614.343 906.682ZM635.544 906V873.273H640.402V878.216H640.743C641.339 876.597 642.419 875.283 643.981 874.274C645.544 873.266 647.305 872.761 649.265 872.761C649.635 872.761 650.096 872.768 650.65 872.783C651.204 872.797 651.623 872.818 651.907 872.847V877.96C651.737 877.918 651.346 877.854 650.735 877.768C650.139 877.669 649.507 877.619 648.839 877.619C647.248 877.619 645.828 877.953 644.578 878.621C643.342 879.274 642.362 880.183 641.637 881.348C640.927 882.499 640.572 883.812 640.572 885.29V906H635.544Z" fill="#2D2D2D"/>
<path d="M273.086 1101.01H231.543C225.966 1100.98 220.626 1098.8 216.698 1094.94C212.771 1091.07 210.577 1085.85 210.6 1080.4V1040.54C210.6 1038.23 208.678 1036.35 206.308 1036.35H183.39C164.429 1036.35 149.057 1051.35 149.057 1069.85V1163.15C149.057 1181.65 164.429 1196.65 183.39 1196.65H242.615C251.721 1196.65 260.454 1193.12 266.893 1186.84C273.332 1180.55 276.949 1172.03 276.949 1163.15V1105.19C276.921 1103.05 275.268 1101.26 273.086 1101.01Z" fill="#2D2D2D"/>
<path d="M232.315 1091.79H272.056C274.175 1091.96 276.157 1090.76 276.929 1088.82C277.702 1086.89 277.081 1084.69 275.404 1083.42L227.766 1037.78C226.453 1036.12 224.172 1035.51 222.179 1036.29C220.186 1037.07 218.963 1039.04 219.183 1041.13V1079.4C219.181 1082.76 220.578 1085.98 223.054 1088.32C225.53 1090.65 228.873 1091.91 232.315 1091.79Z" fill="#2D2D2D"/>
<path d="M934.817 1118.69V1125.16C929.005 1125.16 924.933 1126.38 922.602 1128.82C920.305 1131.25 919.156 1135.32 919.156 1141.03V1157.74C919.156 1162.54 918.686 1166.7 917.747 1170.21C916.842 1173.73 915.346 1176.63 913.257 1178.93C911.169 1181.23 908.385 1182.93 904.905 1184.05C901.425 1185.16 897.127 1185.72 892.011 1185.72V1175.48C896.048 1175.48 899.215 1174.84 901.512 1173.55C903.844 1172.3 905.479 1170.37 906.419 1167.76C907.393 1165.15 907.881 1161.81 907.881 1157.74V1136.86C907.881 1134.14 908.229 1131.67 908.925 1129.44C909.656 1127.22 910.978 1125.3 912.892 1123.7C914.806 1122.1 917.521 1120.86 921.036 1119.99C924.585 1119.12 929.179 1118.69 934.817 1118.69ZM892.011 1052.08C897.127 1052.08 901.425 1052.64 904.905 1053.75C908.385 1054.86 911.169 1056.57 913.257 1058.87C915.346 1061.16 916.842 1064.07 917.747 1067.58C918.686 1071.1 919.156 1075.26 919.156 1080.06V1096.76C919.156 1102.47 920.305 1106.54 922.602 1108.98C924.933 1111.42 929.005 1112.63 934.817 1112.63V1119.11C929.179 1119.11 924.585 1118.67 921.036 1117.8C917.521 1116.93 914.806 1115.7 912.892 1114.1C910.978 1112.49 909.656 1110.58 908.925 1108.35C908.229 1106.13 907.881 1103.65 907.881 1100.94V1080.06C907.881 1075.99 907.393 1072.65 906.419 1070.04C905.479 1067.39 903.844 1065.44 901.512 1064.19C899.215 1062.94 896.048 1062.31 892.011 1062.31V1052.08ZM934.817 1112.63V1125.16H922.497V1112.63H934.817Z" fill="#2D2D2D"/>
<path d="M998.564 1215V1172.27H1013C1016.35 1172.27 1019.09 1172.88 1021.22 1174.09C1023.36 1175.28 1024.95 1176.9 1025.98 1178.95C1027.01 1180.99 1027.52 1183.27 1027.52 1185.79C1027.52 1188.31 1027.01 1190.6 1025.98 1192.66C1024.96 1194.71 1023.39 1196.36 1021.26 1197.58C1019.13 1198.79 1016.41 1199.39 1013.08 1199.39H1002.74V1194.8H1012.92C1015.21 1194.8 1017.06 1194.41 1018.45 1193.62C1019.84 1192.82 1020.85 1191.75 1021.47 1190.4C1022.11 1189.04 1022.43 1187.5 1022.43 1185.79C1022.43 1184.08 1022.11 1182.55 1021.47 1181.2C1020.85 1179.85 1019.83 1178.8 1018.43 1178.03C1017.02 1177.25 1015.16 1176.86 1012.83 1176.86H1003.74V1215H998.564ZM1044.62 1215.75C1042.59 1215.75 1040.75 1215.37 1039.09 1214.6C1037.44 1213.82 1036.12 1212.71 1035.15 1211.24C1034.17 1209.77 1033.69 1207.99 1033.69 1205.9C1033.69 1204.07 1034.05 1202.58 1034.77 1201.44C1035.49 1200.28 1036.46 1199.38 1037.67 1198.73C1038.88 1198.07 1040.22 1197.59 1041.68 1197.27C1043.15 1196.93 1044.63 1196.67 1046.12 1196.47C1048.07 1196.22 1049.65 1196.04 1050.86 1195.91C1052.08 1195.77 1052.97 1195.54 1053.53 1195.22C1054.1 1194.9 1054.38 1194.35 1054.38 1193.55V1193.39C1054.38 1191.33 1053.82 1189.73 1052.69 1188.59C1051.58 1187.45 1049.89 1186.88 1047.62 1186.88C1045.27 1186.88 1043.43 1187.39 1042.09 1188.42C1040.76 1189.45 1039.82 1190.55 1039.28 1191.72L1034.6 1190.05C1035.44 1188.1 1036.55 1186.58 1037.94 1185.5C1039.35 1184.4 1040.88 1183.64 1042.53 1183.2C1044.2 1182.76 1045.84 1182.54 1047.46 1182.54C1048.49 1182.54 1049.67 1182.66 1051 1182.91C1052.35 1183.15 1053.65 1183.64 1054.9 1184.39C1056.17 1185.15 1057.22 1186.28 1058.05 1187.79C1058.89 1189.31 1059.31 1191.34 1059.31 1193.89V1215H1054.38V1210.66H1054.13C1053.8 1211.36 1053.24 1212.1 1052.46 1212.89C1051.68 1213.69 1050.65 1214.36 1049.35 1214.92C1048.06 1215.47 1046.48 1215.75 1044.62 1215.75ZM1045.37 1211.33C1047.32 1211.33 1048.96 1210.95 1050.29 1210.18C1051.64 1209.42 1052.66 1208.43 1053.34 1207.22C1054.03 1206.01 1054.38 1204.74 1054.38 1203.4V1198.89C1054.17 1199.14 1053.72 1199.37 1053.01 1199.58C1052.31 1199.78 1051.5 1199.95 1050.59 1200.1C1049.68 1200.24 1048.8 1200.37 1047.94 1200.48C1047.09 1200.58 1046.4 1200.66 1045.87 1200.73C1044.59 1200.9 1043.39 1201.17 1042.28 1201.54C1041.18 1201.91 1040.29 1202.45 1039.61 1203.19C1038.94 1203.91 1038.61 1204.9 1038.61 1206.15C1038.61 1207.86 1039.24 1209.16 1040.51 1210.03C1041.79 1210.9 1043.41 1211.33 1045.37 1211.33ZM1082.23 1182.95V1187.13H1065.62V1182.95H1082.23ZM1070.46 1175.28H1075.39V1205.82C1075.39 1207.21 1075.59 1208.25 1075.99 1208.95C1076.41 1209.63 1076.94 1210.09 1077.58 1210.33C1078.23 1210.55 1078.92 1210.66 1079.64 1210.66C1080.18 1210.66 1080.63 1210.63 1080.98 1210.58C1081.33 1210.51 1081.6 1210.45 1081.81 1210.41L1082.81 1214.83C1082.48 1214.96 1082.01 1215.08 1081.42 1215.21C1080.82 1215.35 1080.06 1215.42 1079.14 1215.42C1077.75 1215.42 1076.39 1215.12 1075.05 1214.52C1073.73 1213.92 1072.63 1213.01 1071.76 1211.79C1070.89 1210.56 1070.46 1209.02 1070.46 1207.16V1175.28ZM1102.31 1215.67C1099.31 1215.67 1096.72 1214.96 1094.55 1213.54C1092.38 1212.12 1090.71 1210.17 1089.54 1207.68C1088.37 1205.19 1087.79 1202.34 1087.79 1199.14C1087.79 1195.89 1088.39 1193.02 1089.58 1190.53C1090.79 1188.02 1092.48 1186.07 1094.63 1184.67C1096.8 1183.25 1099.33 1182.54 1102.23 1182.54C1104.48 1182.54 1106.51 1182.95 1108.32 1183.79C1110.13 1184.62 1111.61 1185.79 1112.76 1187.29C1113.92 1188.8 1114.63 1190.55 1114.91 1192.55H1109.99C1109.61 1191.09 1108.78 1189.8 1107.48 1188.67C1106.2 1187.53 1104.48 1186.96 1102.31 1186.96C1100.39 1186.96 1098.71 1187.46 1097.26 1188.46C1095.83 1189.45 1094.71 1190.85 1093.9 1192.66C1093.11 1194.45 1092.71 1196.56 1092.71 1198.98C1092.71 1201.45 1093.1 1203.61 1093.88 1205.44C1094.67 1207.28 1095.79 1208.71 1097.22 1209.72C1098.67 1210.74 1100.36 1211.24 1102.31 1211.24C1103.59 1211.24 1104.75 1211.02 1105.79 1210.58C1106.84 1210.13 1107.72 1209.49 1108.44 1208.66C1109.17 1207.82 1109.68 1206.82 1109.99 1205.65H1114.91C1114.63 1207.54 1113.94 1209.25 1112.85 1210.76C1111.76 1212.27 1110.32 1213.46 1108.53 1214.35C1106.75 1215.23 1104.67 1215.67 1102.31 1215.67ZM1127.03 1195.72V1215H1122.11V1172.27H1127.03V1187.96H1127.45C1128.2 1186.31 1129.33 1184.99 1130.83 1184.02C1132.35 1183.03 1134.36 1182.54 1136.88 1182.54C1139.06 1182.54 1140.98 1182.98 1142.62 1183.85C1144.26 1184.71 1145.53 1186.04 1146.44 1187.84C1147.35 1189.62 1147.81 1191.88 1147.81 1194.64V1215H1142.89V1194.97C1142.89 1192.43 1142.23 1190.46 1140.91 1189.07C1139.6 1187.66 1137.78 1186.96 1135.46 1186.96C1133.85 1186.96 1132.4 1187.3 1131.12 1187.98C1129.86 1188.66 1128.85 1189.66 1128.12 1190.97C1127.39 1192.27 1127.03 1193.86 1127.03 1195.72ZM1156.82 1215V1182.95H1161.74V1215H1156.82ZM1159.32 1177.61C1158.36 1177.61 1157.54 1177.29 1156.84 1176.63C1156.16 1175.98 1155.82 1175.19 1155.82 1174.28C1155.82 1173.36 1156.16 1172.57 1156.84 1171.92C1157.54 1171.26 1158.36 1170.94 1159.32 1170.94C1160.28 1170.94 1161.1 1171.26 1161.79 1171.92C1162.48 1172.57 1162.83 1173.36 1162.83 1174.28C1162.83 1175.19 1162.48 1175.98 1161.79 1176.63C1161.1 1177.29 1160.28 1177.61 1159.32 1177.61ZM1175.68 1195.72V1215H1170.76V1182.95H1175.52V1187.96H1175.94C1176.69 1186.33 1177.83 1185.03 1179.36 1184.04C1180.89 1183.04 1182.86 1182.54 1185.28 1182.54C1187.45 1182.54 1189.35 1182.98 1190.98 1183.87C1192.6 1184.75 1193.87 1186.08 1194.77 1187.88C1195.68 1189.66 1196.13 1191.91 1196.13 1194.64V1215H1191.21V1194.97C1191.21 1192.45 1190.55 1190.49 1189.25 1189.09C1187.94 1187.67 1186.14 1186.96 1183.86 1186.96C1182.29 1186.96 1180.89 1187.3 1179.65 1187.98C1178.42 1188.66 1177.46 1189.66 1176.75 1190.97C1176.04 1192.27 1175.68 1193.86 1175.68 1195.72ZM1218.06 1227.68C1215.68 1227.68 1213.64 1227.38 1211.93 1226.77C1210.22 1226.17 1208.79 1225.38 1207.65 1224.39C1206.53 1223.41 1205.63 1222.37 1204.96 1221.26L1208.88 1218.5C1209.33 1219.09 1209.89 1219.76 1210.57 1220.51C1211.25 1221.27 1212.19 1221.93 1213.37 1222.49C1214.56 1223.06 1216.13 1223.35 1218.06 1223.35C1220.65 1223.35 1222.78 1222.72 1224.47 1221.47C1226.15 1220.22 1226.99 1218.25 1226.99 1215.58V1209.07H1226.57C1226.21 1209.66 1225.7 1210.38 1225.03 1211.24C1224.38 1212.09 1223.43 1212.85 1222.19 1213.52C1220.97 1214.17 1219.31 1214.5 1217.23 1214.5C1214.64 1214.5 1212.32 1213.89 1210.26 1212.66C1208.22 1211.44 1206.6 1209.66 1205.4 1207.32C1204.22 1204.99 1203.63 1202.15 1203.63 1198.81C1203.63 1195.53 1204.2 1192.67 1205.36 1190.24C1206.51 1187.79 1208.12 1185.9 1210.18 1184.56C1212.24 1183.21 1214.61 1182.54 1217.31 1182.54C1219.4 1182.54 1221.05 1182.89 1222.28 1183.58C1223.51 1184.26 1224.46 1185.04 1225.11 1185.92C1225.78 1186.78 1226.3 1187.49 1226.66 1188.05H1227.16V1182.95H1231.92V1215.92C1231.92 1218.67 1231.29 1220.91 1230.04 1222.64C1228.8 1224.37 1227.13 1225.65 1225.03 1226.45C1222.94 1227.27 1220.62 1227.68 1218.06 1227.68ZM1217.9 1210.08C1219.87 1210.08 1221.54 1209.62 1222.9 1208.72C1224.27 1207.82 1225.3 1206.52 1226.01 1204.82C1226.72 1203.12 1227.08 1201.09 1227.08 1198.73C1227.08 1196.42 1226.73 1194.38 1226.03 1192.61C1225.34 1190.85 1224.31 1189.46 1222.94 1188.46C1221.58 1187.46 1219.9 1186.96 1217.9 1186.96C1215.81 1186.96 1214.07 1187.49 1212.68 1188.55C1211.3 1189.6 1210.27 1191.02 1209.57 1192.8C1208.89 1194.58 1208.55 1196.56 1208.55 1198.73C1208.55 1200.95 1208.9 1202.92 1209.59 1204.63C1210.3 1206.33 1211.34 1207.66 1212.72 1208.64C1214.11 1209.6 1215.84 1210.08 1217.9 1210.08ZM1259.87 1172.27L1272.56 1208.24H1273.06L1285.74 1172.27H1291.17L1275.48 1215H1270.14L1254.45 1172.27H1259.87ZM1317.35 1201.9V1182.95H1322.27V1215H1317.35V1209.58H1317.02C1316.26 1211.2 1315.1 1212.59 1313.51 1213.73C1311.93 1214.85 1309.92 1215.42 1307.5 1215.42C1305.5 1215.42 1303.72 1214.98 1302.16 1214.1C1300.6 1213.21 1299.38 1211.88 1298.49 1210.1C1297.6 1208.3 1297.15 1206.04 1297.15 1203.32V1182.95H1302.08V1202.98C1302.08 1205.32 1302.73 1207.18 1304.04 1208.57C1305.36 1209.97 1307.04 1210.66 1309.09 1210.66C1310.31 1210.66 1311.56 1210.35 1312.82 1209.72C1314.1 1209.1 1315.17 1208.14 1316.04 1206.84C1316.91 1205.55 1317.35 1203.9 1317.35 1201.9ZM1336.21 1172.27V1215H1331.29V1172.27H1336.21ZM1350.16 1195.72V1215H1345.23V1182.95H1349.99V1187.96H1350.41C1351.16 1186.33 1352.3 1185.03 1353.83 1184.04C1355.36 1183.04 1357.33 1182.54 1359.75 1182.54C1361.92 1182.54 1363.82 1182.98 1365.45 1183.87C1367.08 1184.75 1368.34 1186.08 1369.25 1187.88C1370.15 1189.66 1370.6 1191.91 1370.6 1194.64V1215H1365.68V1194.97C1365.68 1192.45 1365.02 1190.49 1363.72 1189.09C1362.41 1187.67 1360.62 1186.96 1358.33 1186.96C1356.76 1186.96 1355.36 1187.3 1354.12 1187.98C1352.9 1188.66 1351.93 1189.66 1351.22 1190.97C1350.51 1192.27 1350.16 1193.86 1350.16 1195.72ZM1393.03 1215.67C1389.95 1215.67 1387.28 1214.99 1385.04 1213.62C1382.82 1212.25 1381.1 1210.33 1379.89 1207.86C1378.7 1205.39 1378.1 1202.51 1378.1 1199.23C1378.1 1195.95 1378.7 1193.05 1379.89 1190.55C1381.1 1188.03 1382.78 1186.07 1384.94 1184.67C1387.11 1183.25 1389.64 1182.54 1392.53 1182.54C1394.2 1182.54 1395.85 1182.82 1397.48 1183.37C1399.11 1183.93 1400.59 1184.83 1401.92 1186.08C1403.26 1187.32 1404.32 1188.96 1405.11 1191.01C1405.91 1193.05 1406.3 1195.57 1406.3 1198.56V1200.65H1381.6V1196.39H1401.3C1401.3 1194.58 1400.93 1192.97 1400.21 1191.55C1399.5 1190.13 1398.49 1189.01 1397.17 1188.19C1395.86 1187.37 1394.31 1186.96 1392.53 1186.96C1390.57 1186.96 1388.88 1187.45 1387.44 1188.42C1386.02 1189.38 1384.93 1190.63 1384.17 1192.18C1383.4 1193.72 1383.02 1195.37 1383.02 1197.14V1199.98C1383.02 1202.4 1383.44 1204.45 1384.27 1206.13C1385.12 1207.8 1386.3 1209.07 1387.8 1209.95C1389.3 1210.81 1391.05 1211.24 1393.03 1211.24C1394.33 1211.24 1395.5 1211.06 1396.54 1210.7C1397.6 1210.33 1398.51 1209.77 1399.27 1209.03C1400.04 1208.28 1400.63 1207.35 1401.05 1206.24L1405.8 1207.57C1405.3 1209.19 1404.46 1210.6 1403.28 1211.83C1402.1 1213.04 1400.64 1213.98 1398.9 1214.67C1397.16 1215.33 1395.2 1215.67 1393.03 1215.67ZM1413.79 1215V1182.95H1418.55V1187.79H1418.88C1419.47 1186.21 1420.53 1184.92 1422.06 1183.94C1423.59 1182.95 1425.31 1182.45 1427.23 1182.45C1427.59 1182.45 1428.04 1182.46 1428.59 1182.47C1429.13 1182.49 1429.54 1182.51 1429.82 1182.54V1187.54C1429.65 1187.5 1429.27 1187.44 1428.67 1187.36C1428.08 1187.26 1427.47 1187.21 1426.81 1187.21C1425.25 1187.21 1423.86 1187.54 1422.64 1188.19C1421.43 1188.83 1420.47 1189.72 1419.76 1190.86C1419.06 1191.99 1418.72 1193.27 1418.72 1194.72V1215H1413.79ZM1445.08 1215.75C1443.05 1215.75 1441.21 1215.37 1439.55 1214.6C1437.9 1213.82 1436.58 1212.71 1435.61 1211.24C1434.64 1209.77 1434.15 1207.99 1434.15 1205.9C1434.15 1204.07 1434.51 1202.58 1435.24 1201.44C1435.96 1200.28 1436.93 1199.38 1438.14 1198.73C1439.35 1198.07 1440.68 1197.59 1442.14 1197.27C1443.62 1196.93 1445.1 1196.67 1446.58 1196.47C1448.53 1196.22 1450.11 1196.04 1451.32 1195.91C1452.54 1195.77 1453.43 1195.54 1453.99 1195.22C1454.56 1194.9 1454.85 1194.35 1454.85 1193.55V1193.39C1454.85 1191.33 1454.28 1189.73 1453.16 1188.59C1452.04 1187.45 1450.35 1186.88 1448.09 1186.88C1445.74 1186.88 1443.89 1187.39 1442.56 1188.42C1441.22 1189.45 1440.28 1190.55 1439.74 1191.72L1435.07 1190.05C1435.9 1188.1 1437.02 1186.58 1438.41 1185.5C1439.81 1184.4 1441.34 1183.64 1443 1183.2C1444.67 1182.76 1446.31 1182.54 1447.92 1182.54C1448.95 1182.54 1450.13 1182.66 1451.47 1182.91C1452.82 1183.15 1454.12 1183.64 1455.37 1184.39C1456.63 1185.15 1457.68 1186.28 1458.52 1187.79C1459.35 1189.31 1459.77 1191.34 1459.77 1193.89V1215H1454.85V1210.66H1454.6C1454.26 1211.36 1453.71 1212.1 1452.93 1212.89C1452.15 1213.69 1451.11 1214.36 1449.82 1214.92C1448.53 1215.47 1446.95 1215.75 1445.08 1215.75ZM1445.83 1211.33C1447.78 1211.33 1449.42 1210.95 1450.76 1210.18C1452.11 1209.42 1453.12 1208.43 1453.8 1207.22C1454.5 1206.01 1454.85 1204.74 1454.85 1203.4V1198.89C1454.64 1199.14 1454.18 1199.37 1453.47 1199.58C1452.77 1199.78 1451.97 1199.95 1451.05 1200.1C1450.15 1200.24 1449.26 1200.37 1448.4 1200.48C1447.55 1200.58 1446.86 1200.66 1446.33 1200.73C1445.05 1200.9 1443.86 1201.17 1442.75 1201.54C1441.65 1201.91 1440.76 1202.45 1440.08 1203.19C1439.41 1203.91 1439.07 1204.9 1439.07 1206.15C1439.07 1207.86 1439.71 1209.16 1440.97 1210.03C1442.25 1210.9 1443.87 1211.33 1445.83 1211.33ZM1469.42 1215V1172.27H1474.35V1188.05H1474.77C1475.13 1187.49 1475.63 1186.78 1476.27 1185.92C1476.92 1185.04 1477.85 1184.26 1479.06 1183.58C1480.29 1182.89 1481.94 1182.54 1484.03 1182.54C1486.73 1182.54 1489.11 1183.21 1491.16 1184.56C1493.22 1185.91 1494.83 1187.82 1495.98 1190.3C1497.14 1192.77 1497.71 1195.69 1497.71 1199.06C1497.71 1202.45 1497.14 1205.4 1495.98 1207.89C1494.83 1210.36 1493.23 1212.28 1491.18 1213.64C1489.14 1214.99 1486.78 1215.67 1484.11 1215.67C1482.05 1215.67 1480.41 1215.33 1479.17 1214.65C1477.93 1213.95 1476.98 1213.16 1476.31 1212.29C1475.64 1211.4 1475.13 1210.66 1474.77 1210.08H1474.18V1215H1469.42ZM1474.26 1198.98C1474.26 1201.4 1474.62 1203.53 1475.33 1205.38C1476.04 1207.22 1477.07 1208.66 1478.44 1209.7C1479.8 1210.73 1481.47 1211.24 1483.44 1211.24C1485.5 1211.24 1487.22 1210.7 1488.6 1209.62C1489.99 1208.52 1491.03 1207.04 1491.73 1205.19C1492.44 1203.33 1492.79 1201.26 1492.79 1198.98C1492.79 1196.72 1492.44 1194.69 1491.75 1192.89C1491.07 1191.06 1490.03 1189.62 1488.64 1188.57C1487.26 1187.5 1485.53 1186.96 1483.44 1186.96C1481.44 1186.96 1479.76 1187.47 1478.4 1188.48C1477.03 1189.48 1476 1190.89 1475.31 1192.7C1474.61 1194.49 1474.26 1196.58 1474.26 1198.98ZM1505.25 1215V1182.95H1510.17V1215H1505.25ZM1507.75 1177.61C1506.79 1177.61 1505.96 1177.29 1505.27 1176.63C1504.59 1175.98 1504.24 1175.19 1504.24 1174.28C1504.24 1173.36 1504.59 1172.57 1505.27 1171.92C1505.96 1171.26 1506.79 1170.94 1507.75 1170.94C1508.71 1170.94 1509.53 1171.26 1510.21 1171.92C1510.91 1172.57 1511.25 1173.36 1511.25 1174.28C1511.25 1175.19 1510.91 1175.98 1510.21 1176.63C1509.53 1177.29 1508.71 1177.61 1507.75 1177.61ZM1524.11 1172.27V1215H1519.19V1172.27H1524.11ZM1533.13 1215V1182.95H1538.05V1215H1533.13ZM1535.63 1177.61C1534.67 1177.61 1533.85 1177.29 1533.15 1176.63C1532.47 1175.98 1532.13 1175.19 1532.13 1174.28C1532.13 1173.36 1532.47 1172.57 1533.15 1171.92C1533.85 1171.26 1534.67 1170.94 1535.63 1170.94C1536.59 1170.94 1537.41 1171.26 1538.09 1171.92C1538.79 1172.57 1539.14 1173.36 1539.14 1174.28C1539.14 1175.19 1538.79 1175.98 1538.09 1176.63C1537.41 1177.29 1536.59 1177.61 1535.63 1177.61ZM1561.01 1182.95V1187.13H1544.4V1182.95H1561.01ZM1549.24 1175.28H1554.16V1205.82C1554.16 1207.21 1554.37 1208.25 1554.77 1208.95C1555.19 1209.63 1555.72 1210.09 1556.36 1210.33C1557.01 1210.55 1557.7 1210.66 1558.42 1210.66C1558.96 1210.66 1559.41 1210.63 1559.76 1210.58C1560.1 1210.51 1560.38 1210.45 1560.59 1210.41L1561.59 1214.83C1561.26 1214.96 1560.79 1215.08 1560.19 1215.21C1559.6 1215.35 1558.84 1215.42 1557.92 1215.42C1556.53 1215.42 1555.17 1215.12 1553.83 1214.52C1552.51 1213.92 1551.41 1213.01 1550.53 1211.79C1549.67 1210.56 1549.24 1209.02 1549.24 1207.16V1175.28ZM1571.59 1227.02C1570.75 1227.02 1570.01 1226.95 1569.35 1226.81C1568.7 1226.68 1568.25 1226.56 1568 1226.43L1569.25 1222.09C1570.44 1222.4 1571.5 1222.51 1572.42 1222.43C1573.34 1222.34 1574.15 1221.93 1574.86 1221.2C1575.58 1220.47 1576.24 1219.3 1576.84 1217.67L1577.76 1215.17L1565.91 1182.95H1571.25L1580.1 1208.49H1580.43L1589.28 1182.95H1594.62L1581.02 1219.67C1580.4 1221.33 1579.65 1222.7 1578.74 1223.78C1577.84 1224.88 1576.79 1225.7 1575.59 1226.22C1574.41 1226.75 1573.07 1227.02 1571.59 1227.02Z" fill="#2D2D2D"/>
<path d="M1050.1 1106L1028.13 1028.14H1043.29L1057.32 1085.36H1058.04L1073.02 1028.14H1086.82L1101.84 1085.39H1102.52L1116.55 1028.14H1131.72L1109.75 1106H1095.83L1080.25 1051.37H1079.64L1064.01 1106H1050.1ZM1159.33 1107.14C1153.63 1107.14 1148.69 1105.89 1144.51 1103.38C1140.33 1100.87 1137.08 1097.36 1134.78 1092.85C1132.49 1088.33 1131.35 1083.06 1131.35 1077.03C1131.35 1071 1132.49 1065.71 1134.78 1061.18C1137.08 1056.64 1140.33 1053.12 1144.51 1050.61C1148.69 1048.1 1153.63 1046.85 1159.33 1046.85C1165.04 1046.85 1169.98 1048.1 1174.16 1050.61C1178.34 1053.12 1181.57 1056.64 1183.86 1061.18C1186.16 1065.71 1187.32 1071 1187.32 1077.03C1187.32 1083.06 1186.16 1088.33 1183.86 1092.85C1181.57 1097.36 1178.34 1100.87 1174.16 1103.38C1169.98 1105.89 1165.04 1107.14 1159.33 1107.14ZM1159.41 1096.12C1162.5 1096.12 1165.09 1095.27 1167.17 1093.57C1169.24 1091.85 1170.79 1089.54 1171.8 1086.65C1172.84 1083.76 1173.36 1080.54 1173.36 1076.99C1173.36 1073.42 1172.84 1070.19 1171.8 1067.3C1170.79 1064.38 1169.24 1062.07 1167.17 1060.34C1165.09 1058.62 1162.5 1057.76 1159.41 1057.76C1156.24 1057.76 1153.61 1058.62 1151.5 1060.34C1149.42 1062.07 1147.87 1064.38 1146.83 1067.3C1145.81 1070.19 1145.31 1073.42 1145.31 1076.99C1145.31 1080.54 1145.81 1083.76 1146.83 1086.65C1147.87 1089.54 1149.42 1091.85 1151.5 1093.57C1153.61 1095.27 1156.24 1096.12 1159.41 1096.12ZM1211.69 1028.14V1106H1197.93V1028.14H1211.69ZM1254.35 1047.61V1058.25H1219.83V1047.61H1254.35ZM1228.46 1106V1042.09C1228.46 1038.17 1229.27 1034.9 1230.89 1032.29C1232.54 1029.67 1234.74 1027.72 1237.5 1026.43C1240.27 1025.14 1243.33 1024.49 1246.7 1024.49C1249.09 1024.49 1251.2 1024.68 1253.05 1025.06C1254.9 1025.44 1256.27 1025.78 1257.16 1026.09L1254.42 1036.73C1253.84 1036.56 1253.1 1036.38 1252.22 1036.2C1251.33 1036 1250.34 1035.9 1249.25 1035.9C1246.69 1035.9 1244.88 1036.52 1243.82 1037.76C1242.78 1038.98 1242.26 1040.72 1242.26 1043.01V1106H1228.46ZM1287.25 1129.11C1282.31 1129.11 1278.07 1128.44 1274.52 1127.1C1270.97 1125.78 1268.12 1124.01 1265.96 1121.78C1263.81 1119.55 1262.31 1117.08 1261.48 1114.36L1273.87 1111.36C1274.43 1112.5 1275.24 1113.63 1276.3 1114.74C1277.37 1115.88 1278.8 1116.82 1280.6 1117.56C1282.42 1118.32 1284.72 1118.7 1287.48 1118.7C1291.38 1118.7 1294.62 1117.75 1297.18 1115.85C1299.73 1113.97 1301.01 1110.88 1301.01 1106.57V1095.51H1300.33C1299.62 1096.93 1298.58 1098.38 1297.21 1099.88C1295.87 1101.37 1294.08 1102.63 1291.85 1103.64C1289.65 1104.66 1286.87 1105.16 1283.53 1105.16C1279.04 1105.16 1274.97 1104.11 1271.32 1102.01C1267.7 1099.88 1264.81 1096.71 1262.66 1092.5C1260.53 1088.27 1259.46 1082.97 1259.46 1076.61C1259.46 1070.2 1260.53 1064.79 1262.66 1060.38C1264.81 1055.94 1267.71 1052.59 1271.36 1050.31C1275.01 1048 1279.08 1046.85 1283.57 1046.85C1286.99 1046.85 1289.8 1047.43 1292 1048.59C1294.24 1049.74 1296.01 1051.12 1297.33 1052.74C1298.65 1054.34 1299.65 1055.84 1300.33 1057.26H1301.09V1047.61H1314.66V1106.95C1314.66 1111.94 1313.47 1116.07 1311.09 1119.34C1308.71 1122.61 1305.45 1125.06 1301.32 1126.68C1297.19 1128.3 1292.5 1129.11 1287.25 1129.11ZM1287.37 1094.37C1290.28 1094.37 1292.77 1093.66 1294.82 1092.24C1296.87 1090.82 1298.43 1088.78 1299.49 1086.12C1300.56 1083.46 1301.09 1080.26 1301.09 1076.54C1301.09 1072.86 1300.56 1069.64 1299.49 1066.88C1298.46 1064.12 1296.91 1061.98 1294.86 1060.46C1292.83 1058.91 1290.33 1058.14 1287.37 1058.14C1284.3 1058.14 1281.74 1058.94 1279.69 1060.53C1277.63 1062.13 1276.09 1064.32 1275.05 1067.11C1274.01 1069.87 1273.49 1073.01 1273.49 1076.54C1273.49 1080.11 1274.01 1083.24 1275.05 1085.93C1276.11 1088.59 1277.67 1090.67 1279.73 1092.16C1281.8 1093.63 1284.35 1094.37 1287.37 1094.37ZM1344.5 1107.18C1340.8 1107.18 1337.47 1106.52 1334.5 1105.2C1331.56 1103.86 1329.23 1101.88 1327.51 1099.27C1325.81 1096.66 1324.96 1093.44 1324.96 1089.61C1324.96 1086.32 1325.57 1083.6 1326.78 1081.44C1328 1079.29 1329.66 1077.56 1331.76 1076.27C1333.87 1074.98 1336.24 1074 1338.87 1073.34C1341.53 1072.66 1344.28 1072.16 1347.12 1071.86C1350.54 1071.51 1353.32 1071.19 1355.45 1070.91C1357.58 1070.61 1359.12 1070.15 1360.09 1069.54C1361.08 1068.91 1361.57 1067.93 1361.57 1066.61V1066.39C1361.57 1063.52 1360.72 1061.3 1359.02 1059.73C1357.32 1058.16 1354.88 1057.38 1351.69 1057.38C1348.31 1057.38 1345.64 1058.11 1343.66 1059.58C1341.71 1061.05 1340.39 1062.79 1339.71 1064.79L1326.86 1062.96C1327.87 1059.42 1329.55 1056.45 1331.88 1054.07C1334.21 1051.66 1337.06 1049.86 1340.43 1048.67C1343.8 1047.45 1347.53 1046.85 1351.61 1046.85C1354.42 1046.85 1357.22 1047.18 1360.01 1047.83C1362.8 1048.49 1365.35 1049.58 1367.65 1051.1C1369.96 1052.6 1371.81 1054.64 1373.2 1057.22C1374.62 1059.81 1375.33 1063.04 1375.33 1066.92V1106H1362.1V1097.98H1361.65C1360.81 1099.6 1359.63 1101.12 1358.11 1102.54C1356.61 1103.93 1354.73 1105.06 1352.45 1105.92C1350.19 1106.76 1347.54 1107.18 1344.5 1107.18ZM1348.07 1097.07C1350.84 1097.07 1353.23 1096.52 1355.26 1095.43C1357.29 1094.32 1358.85 1092.85 1359.93 1091.02C1361.05 1089.2 1361.61 1087.21 1361.61 1085.05V1078.17C1361.18 1078.53 1360.44 1078.86 1359.4 1079.16C1358.39 1079.46 1357.25 1079.73 1355.98 1079.96C1354.71 1080.19 1353.46 1080.39 1352.22 1080.57C1350.98 1080.74 1349.9 1080.9 1348.99 1081.02C1346.93 1081.3 1345.1 1081.76 1343.47 1082.39C1341.85 1083.03 1340.57 1083.91 1339.63 1085.05C1338.7 1086.17 1338.23 1087.61 1338.23 1089.39C1338.23 1091.92 1339.15 1093.83 1341 1095.13C1342.85 1096.42 1345.21 1097.07 1348.07 1097.07ZM1401.86 1071.78V1106H1388.1V1047.61H1401.25V1057.53H1401.94C1403.28 1054.26 1405.42 1051.66 1408.36 1049.74C1411.33 1047.81 1414.99 1046.85 1419.35 1046.85C1423.38 1046.85 1426.89 1047.71 1429.88 1049.43C1432.9 1051.15 1435.23 1053.65 1436.88 1056.92C1438.55 1060.19 1439.37 1064.16 1439.35 1068.82V1106H1425.58V1070.95C1425.58 1067.05 1424.57 1063.99 1422.54 1061.79C1420.54 1059.58 1417.77 1058.48 1414.22 1058.48C1411.81 1058.48 1409.67 1059.01 1407.79 1060.08C1405.94 1061.11 1404.48 1062.62 1403.42 1064.6C1402.38 1066.58 1401.86 1068.97 1401.86 1071.78ZM1477.66 1129.11C1472.72 1129.11 1468.47 1128.44 1464.93 1127.1C1461.38 1125.78 1458.53 1124.01 1456.37 1121.78C1454.22 1119.55 1452.72 1117.08 1451.89 1114.36L1464.28 1111.36C1464.84 1112.5 1465.65 1113.63 1466.71 1114.74C1467.78 1115.88 1469.21 1116.82 1471.01 1117.56C1472.83 1118.32 1475.13 1118.7 1477.89 1118.7C1481.79 1118.7 1485.02 1117.75 1487.58 1115.85C1490.14 1113.97 1491.42 1110.88 1491.42 1106.57V1095.51H1490.74C1490.03 1096.93 1488.99 1098.38 1487.62 1099.88C1486.28 1101.37 1484.49 1102.63 1482.26 1103.64C1480.06 1104.66 1477.28 1105.16 1473.94 1105.16C1469.45 1105.16 1465.38 1104.11 1461.73 1102.01C1458.11 1099.88 1455.22 1096.71 1453.06 1092.5C1450.94 1088.27 1449.87 1082.97 1449.87 1076.61C1449.87 1070.2 1450.94 1064.79 1453.06 1060.38C1455.22 1055.94 1458.12 1052.59 1461.77 1050.31C1465.42 1048 1469.49 1046.85 1473.97 1046.85C1477.39 1046.85 1480.21 1047.43 1482.41 1048.59C1484.64 1049.74 1486.42 1051.12 1487.74 1052.74C1489.05 1054.34 1490.05 1055.84 1490.74 1057.26H1491.5V1047.61H1505.07V1106.95C1505.07 1111.94 1503.88 1116.07 1501.5 1119.34C1499.12 1122.61 1495.86 1125.06 1491.73 1126.68C1487.6 1128.3 1482.91 1129.11 1477.66 1129.11ZM1477.78 1094.37C1480.69 1094.37 1483.17 1093.66 1485.23 1092.24C1487.28 1090.82 1488.84 1088.78 1489.9 1086.12C1490.97 1083.46 1491.5 1080.26 1491.5 1076.54C1491.5 1072.86 1490.97 1069.64 1489.9 1066.88C1488.86 1064.12 1487.32 1061.98 1485.26 1060.46C1483.24 1058.91 1480.74 1058.14 1477.78 1058.14C1474.71 1058.14 1472.15 1058.94 1470.1 1060.53C1468.04 1062.13 1466.5 1064.32 1465.46 1067.11C1464.42 1069.87 1463.9 1073.01 1463.9 1076.54C1463.9 1080.11 1464.42 1083.24 1465.46 1085.93C1466.52 1088.59 1468.08 1090.67 1470.13 1092.16C1472.21 1093.63 1474.76 1094.37 1477.78 1094.37Z" fill="#2D2D2D"/>
</svg>
