<svg width="808" height="808" viewBox="0 0 808 808" fill="none" xmlns="http://www.w3.org/2000/svg">
<rect width="808" height="808" fill="black"/>
<path d="M256.954 400L238.768 335.562H251.322L262.933 382.915H263.53L275.927 335.562H287.348L299.777 382.947H300.343L311.953 335.562H324.507L306.321 400H294.805L281.905 354.787H281.402L268.47 400H256.954ZM347.361 400.944C342.641 400.944 338.551 399.906 335.09 397.829C331.629 395.752 328.944 392.847 327.035 389.114C325.147 385.38 324.203 381.017 324.203 376.025C324.203 371.032 325.147 366.659 327.035 362.904C328.944 359.15 331.629 356.234 335.09 354.157C338.551 352.081 342.641 351.042 347.361 351.042C352.08 351.042 356.17 352.081 359.631 354.157C363.092 356.234 365.767 359.15 367.655 362.904C369.564 366.659 370.518 371.032 370.518 376.025C370.518 381.017 369.564 385.38 367.655 389.114C365.767 392.847 363.092 395.752 359.631 397.829C356.17 399.906 352.08 400.944 347.361 400.944ZM347.424 391.819C349.983 391.819 352.122 391.117 353.842 389.711C355.562 388.285 356.842 386.376 357.681 383.985C358.541 381.594 358.971 378.93 358.971 375.993C358.971 373.036 358.541 370.361 357.681 367.97C356.842 365.558 355.562 363.638 353.842 362.212C352.122 360.786 349.983 360.072 347.424 360.072C344.802 360.072 342.62 360.786 340.879 362.212C339.159 363.638 337.869 365.558 337.009 367.97C336.17 370.361 335.75 373.036 335.75 375.993C335.75 378.93 336.17 381.594 337.009 383.985C337.869 386.376 339.159 388.285 340.879 389.711C342.62 391.117 344.802 391.819 347.424 391.819ZM390.689 335.562V400H379.299V335.562H390.689ZM425.994 351.672V360.481H397.425V351.672H425.994ZM404.567 400V347.109C404.567 343.858 405.239 341.152 406.581 338.992C407.945 336.831 409.769 335.216 412.056 334.146C414.342 333.077 416.88 332.542 419.67 332.542C421.642 332.542 423.393 332.699 424.924 333.014C426.456 333.328 427.588 333.611 428.323 333.863L426.057 342.673C425.575 342.526 424.966 342.379 424.232 342.232C423.498 342.065 422.68 341.981 421.778 341.981C419.66 341.981 418.16 342.495 417.279 343.523C416.419 344.529 415.989 345.977 415.989 347.865V400H404.567ZM453.229 419.13C449.139 419.13 445.625 418.574 442.689 417.462C439.752 416.372 437.392 414.903 435.609 413.057C433.826 411.212 432.589 409.166 431.897 406.922L442.154 404.436C442.615 405.38 443.286 406.314 444.167 407.237C445.048 408.181 446.234 408.957 447.723 409.565C449.233 410.194 451.131 410.509 453.418 410.509C456.648 410.509 459.322 409.722 461.441 408.149C463.56 406.597 464.619 404.038 464.619 400.472V391.316H464.053C463.465 392.491 462.605 393.697 461.472 394.934C460.361 396.172 458.882 397.21 457.036 398.049C455.211 398.888 452.914 399.308 450.146 399.308C446.433 399.308 443.066 398.437 440.046 396.696C437.046 394.934 434.655 392.312 432.872 388.83C431.11 385.327 430.229 380.943 430.229 375.678C430.229 370.372 431.11 365.893 432.872 362.243C434.655 358.573 437.057 355.793 440.077 353.906C443.098 351.997 446.464 351.042 450.177 351.042C453.009 351.042 455.337 351.525 457.162 352.49C459.008 353.434 460.476 354.577 461.567 355.919C462.658 357.241 463.486 358.489 464.053 359.663H464.682V351.672H475.914V400.787C475.914 404.919 474.929 408.338 472.957 411.044C470.985 413.75 468.29 415.774 464.871 417.116C461.452 418.459 457.571 419.13 453.229 419.13ZM453.323 390.372C455.736 390.372 457.791 389.785 459.49 388.61C461.189 387.435 462.479 385.747 463.36 383.544C464.241 381.342 464.682 378.699 464.682 375.616C464.682 372.574 464.241 369.91 463.36 367.624C462.5 365.337 461.221 363.565 459.522 362.306C457.844 361.027 455.778 360.387 453.323 360.387C450.785 360.387 448.667 361.048 446.968 362.369C445.269 363.691 443.989 365.505 443.129 367.813C442.269 370.099 441.839 372.7 441.839 375.616C441.839 378.573 442.269 381.164 443.129 383.387C444.01 385.59 445.3 387.31 446.999 388.547C448.719 389.764 450.827 390.372 453.323 390.372ZM500.608 400.975C497.546 400.975 494.788 400.43 492.333 399.339C489.9 398.228 487.97 396.591 486.544 394.431C485.139 392.27 484.436 389.606 484.436 386.439C484.436 383.712 484.939 381.457 485.946 379.674C486.953 377.891 488.327 376.465 490.068 375.395C491.809 374.326 493.77 373.518 495.952 372.973C498.154 372.406 500.43 371.997 502.779 371.746C505.611 371.452 507.908 371.19 509.67 370.959C511.432 370.707 512.711 370.33 513.509 369.826C514.327 369.302 514.736 368.494 514.736 367.404V367.215C514.736 364.844 514.033 363.009 512.628 361.709C511.222 360.408 509.198 359.758 506.555 359.758C503.765 359.758 501.552 360.366 499.916 361.583C498.301 362.799 497.21 364.236 496.644 365.893L486.009 364.383C486.848 361.446 488.233 358.992 490.162 357.02C492.092 355.028 494.452 353.538 497.242 352.553C500.032 351.546 503.115 351.042 506.492 351.042C508.82 351.042 511.138 351.315 513.446 351.86C515.753 352.406 517.861 353.308 519.77 354.566C521.679 355.804 523.21 357.492 524.364 359.632C525.538 361.772 526.126 364.446 526.126 367.655V400H515.176V393.361H514.799C514.106 394.704 513.131 395.962 511.872 397.137C510.635 398.29 509.072 399.224 507.184 399.937C505.317 400.629 503.126 400.975 500.608 400.975ZM503.566 392.606C505.852 392.606 507.835 392.155 509.513 391.253C511.191 390.33 512.481 389.114 513.383 387.603C514.306 386.093 514.767 384.446 514.767 382.663V376.969C514.411 377.262 513.802 377.535 512.942 377.787C512.103 378.038 511.159 378.259 510.11 378.447C509.062 378.636 508.023 378.804 506.996 378.951C505.968 379.098 505.076 379.223 504.321 379.328C502.622 379.559 501.101 379.937 499.759 380.461C498.416 380.985 497.357 381.72 496.581 382.663C495.805 383.586 495.417 384.782 495.417 386.25C495.417 388.348 496.183 389.932 497.714 391.001C499.245 392.071 501.196 392.606 503.566 392.606ZM548.082 371.683V400H536.692V351.672H547.579V359.884H548.145C549.257 357.178 551.029 355.028 553.463 353.434C555.917 351.839 558.948 351.042 562.556 351.042C565.891 351.042 568.796 351.756 571.271 353.182C573.767 354.608 575.697 356.674 577.06 359.38C578.445 362.086 579.127 365.369 579.106 369.228V400H567.716V370.99C567.716 367.76 566.877 365.233 565.199 363.408C563.541 361.583 561.245 360.67 558.308 360.67C556.315 360.67 554.543 361.111 552.991 361.992C551.459 362.852 550.253 364.1 549.372 365.736C548.512 367.372 548.082 369.354 548.082 371.683ZM610.816 419.13C606.726 419.13 603.212 418.574 600.276 417.462C597.339 416.372 594.979 414.903 593.196 413.057C591.413 411.212 590.176 409.166 589.483 406.922L599.741 404.436C600.202 405.38 600.873 406.314 601.754 407.237C602.635 408.181 603.82 408.957 605.31 409.565C606.82 410.194 608.718 410.509 611.005 410.509C614.235 410.509 616.909 409.722 619.028 408.149C621.147 406.597 622.206 404.038 622.206 400.472V391.316H621.639C621.052 392.491 620.192 393.697 619.059 394.934C617.948 396.172 616.469 397.21 614.623 398.049C612.798 398.888 610.501 399.308 607.732 399.308C604.02 399.308 600.653 398.437 597.633 396.696C594.633 394.934 592.242 392.312 590.459 388.83C588.697 385.327 587.816 380.943 587.816 375.678C587.816 370.372 588.697 365.893 590.459 362.243C592.242 358.573 594.644 355.793 597.664 353.906C600.685 351.997 604.051 351.042 607.764 351.042C610.596 351.042 612.924 351.525 614.749 352.49C616.595 353.434 618.063 354.577 619.154 355.919C620.245 357.241 621.073 358.489 621.639 359.663H622.269V351.672H633.501V400.787C633.501 404.919 632.515 408.338 630.544 411.044C628.572 413.75 625.877 415.774 622.458 417.116C619.038 418.459 615.158 419.13 610.816 419.13ZM610.91 390.372C613.323 390.372 615.378 389.785 617.077 388.61C618.776 387.435 620.066 385.747 620.947 383.544C621.828 381.342 622.269 378.699 622.269 375.616C622.269 372.574 621.828 369.91 620.947 367.624C620.087 365.337 618.808 363.565 617.109 362.306C615.431 361.027 613.364 360.387 610.91 360.387C608.372 360.387 606.254 361.048 604.555 362.369C602.856 363.691 601.576 365.505 600.716 367.813C599.856 370.099 599.426 372.7 599.426 375.616C599.426 378.573 599.856 381.164 600.716 383.387C601.597 385.59 602.887 387.31 604.586 388.547C606.306 389.764 608.414 390.372 610.91 390.372Z" fill="white"/>
<path d="M301.593 468.448V471.034H292.552V468.448H301.593ZM294.977 464.482H298.199V480.14C298.199 480.765 298.292 481.236 298.479 481.552C298.666 481.861 298.906 482.072 299.201 482.187C299.503 482.295 299.829 482.349 300.181 482.349C300.44 482.349 300.666 482.331 300.86 482.295C301.054 482.259 301.205 482.231 301.313 482.209L301.895 484.871C301.708 484.943 301.442 485.014 301.097 485.086C300.753 485.165 300.322 485.208 299.804 485.216C298.957 485.23 298.166 485.079 297.433 484.763C296.701 484.447 296.108 483.958 295.655 483.297C295.203 482.636 294.977 481.807 294.977 480.808V464.482ZM311.81 485.334C310.179 485.334 308.775 484.986 307.596 484.289C306.425 483.585 305.52 482.597 304.881 481.325C304.249 480.047 303.933 478.549 303.933 476.832C303.933 475.136 304.249 473.642 304.881 472.349C305.52 471.056 306.411 470.046 307.553 469.321C308.703 468.595 310.046 468.232 311.584 468.232C312.518 468.232 313.423 468.387 314.299 468.696C315.176 469.005 315.962 469.489 316.659 470.15C317.356 470.811 317.906 471.67 318.308 472.726C318.71 473.775 318.911 475.05 318.911 476.551V477.694H305.754V475.28H315.754C315.754 474.432 315.582 473.681 315.237 473.028C314.892 472.367 314.407 471.846 313.782 471.465C313.164 471.084 312.439 470.894 311.605 470.894C310.7 470.894 309.91 471.117 309.234 471.562C308.566 472 308.049 472.575 307.683 473.286C307.323 473.99 307.144 474.755 307.144 475.582V477.467C307.144 478.574 307.338 479.515 307.726 480.291C308.121 481.067 308.67 481.659 309.374 482.069C310.079 482.471 310.901 482.672 311.842 482.672C312.453 482.672 313.01 482.586 313.513 482.414C314.015 482.234 314.45 481.968 314.816 481.616C315.183 481.264 315.463 480.83 315.657 480.312L318.707 480.862C318.462 481.76 318.024 482.547 317.392 483.222C316.767 483.89 315.98 484.411 315.032 484.784C314.091 485.151 313.017 485.334 311.81 485.334ZM329.155 485.334C327.553 485.334 326.174 484.971 325.017 484.246C323.868 483.513 322.984 482.504 322.366 481.218C321.748 479.932 321.439 478.459 321.439 476.799C321.439 475.118 321.755 473.635 322.388 472.349C323.02 471.056 323.911 470.046 325.06 469.321C326.21 468.595 327.564 468.232 329.123 468.232C330.38 468.232 331.501 468.466 332.485 468.933C333.469 469.392 334.263 470.039 334.867 470.872C335.477 471.706 335.84 472.679 335.955 473.793H332.819C332.647 473.017 332.252 472.349 331.634 471.788C331.023 471.228 330.204 470.948 329.177 470.948C328.279 470.948 327.492 471.185 326.817 471.659C326.149 472.126 325.628 472.794 325.254 473.663C324.881 474.526 324.694 475.546 324.694 476.724C324.694 477.931 324.877 478.973 325.243 479.849C325.61 480.725 326.127 481.404 326.795 481.886C327.47 482.367 328.264 482.608 329.177 482.608C329.787 482.608 330.341 482.496 330.836 482.274C331.339 482.044 331.759 481.717 332.097 481.293C332.442 480.869 332.683 480.359 332.819 479.763H335.955C335.84 480.833 335.492 481.789 334.91 482.629C334.328 483.47 333.548 484.131 332.571 484.612C331.601 485.093 330.463 485.334 329.155 485.334ZM342.319 475.172V485H339.097V462.93H342.276V471.142H342.481C342.869 470.251 343.461 469.543 344.259 469.019C345.056 468.494 346.098 468.232 347.384 468.232C348.519 468.232 349.511 468.466 350.358 468.933C351.213 469.4 351.874 470.097 352.341 471.023C352.815 471.943 353.052 473.092 353.052 474.472V485H349.83V474.86C349.83 473.645 349.518 472.704 348.893 472.036C348.268 471.361 347.398 471.023 346.285 471.023C345.523 471.023 344.841 471.185 344.237 471.508C343.641 471.831 343.171 472.306 342.826 472.931C342.488 473.549 342.319 474.296 342.319 475.172ZM360.271 475.172V485H357.049V468.448H360.141V471.142H360.346C360.727 470.265 361.323 469.561 362.135 469.03C362.954 468.498 363.985 468.232 365.228 468.232C366.356 468.232 367.343 468.469 368.191 468.943C369.039 469.41 369.696 470.107 370.163 471.034C370.63 471.961 370.864 473.107 370.864 474.472V485H367.642V474.86C367.642 473.66 367.329 472.722 366.704 472.047C366.079 471.365 365.22 471.023 364.129 471.023C363.381 471.023 362.717 471.185 362.135 471.508C361.56 471.831 361.104 472.306 360.766 472.931C360.436 473.549 360.271 474.296 360.271 475.172ZM374.881 485V468.448H378.103V485H374.881ZM376.509 465.894C375.948 465.894 375.467 465.707 375.065 465.333C374.669 464.953 374.472 464.5 374.472 463.976C374.472 463.444 374.669 462.991 375.065 462.618C375.467 462.237 375.948 462.047 376.509 462.047C377.069 462.047 377.547 462.237 377.942 462.618C378.344 462.991 378.545 463.444 378.545 463.976C378.545 464.5 378.344 464.953 377.942 465.333C377.547 465.707 377.069 465.894 376.509 465.894ZM389.107 485.334C387.505 485.334 386.126 484.971 384.969 484.246C383.819 483.513 382.936 482.504 382.318 481.218C381.7 479.932 381.391 478.459 381.391 476.799C381.391 475.118 381.707 473.635 382.34 472.349C382.972 471.056 383.863 470.046 385.012 469.321C386.161 468.595 387.516 468.232 389.075 468.232C390.332 468.232 391.453 468.466 392.437 468.933C393.421 469.392 394.215 470.039 394.818 470.872C395.429 471.706 395.792 472.679 395.907 473.793H392.771C392.598 473.017 392.203 472.349 391.585 471.788C390.975 471.228 390.156 470.948 389.129 470.948C388.23 470.948 387.444 471.185 386.769 471.659C386.1 472.126 385.58 472.794 385.206 473.663C384.832 474.526 384.646 475.546 384.646 476.724C384.646 477.931 384.829 478.973 385.195 479.849C385.562 480.725 386.079 481.404 386.747 481.886C387.422 482.367 388.216 482.608 389.129 482.608C389.739 482.608 390.292 482.496 390.788 482.274C391.291 482.044 391.711 481.717 392.049 481.293C392.394 480.869 392.634 480.359 392.771 479.763H395.907C395.792 480.833 395.443 481.789 394.861 482.629C394.28 483.47 393.5 484.131 392.523 484.612C391.553 485.093 390.414 485.334 389.107 485.334ZM403.866 485.366C402.817 485.366 401.869 485.172 401.021 484.784C400.173 484.389 399.502 483.818 399.006 483.071C398.517 482.324 398.273 481.408 398.273 480.323C398.273 479.389 398.453 478.62 398.812 478.017C399.171 477.414 399.656 476.936 400.267 476.584C400.877 476.232 401.56 475.966 402.314 475.786C403.068 475.607 403.837 475.47 404.62 475.377C405.612 475.262 406.416 475.169 407.034 475.097C407.652 475.018 408.101 474.892 408.381 474.72C408.661 474.547 408.801 474.267 408.801 473.879V473.804C408.801 472.862 408.536 472.133 408.004 471.616C407.48 471.099 406.696 470.84 405.655 470.84C404.57 470.84 403.715 471.081 403.09 471.562C402.472 472.036 402.045 472.564 401.808 473.146L398.78 472.457C399.139 471.451 399.663 470.639 400.353 470.021C401.05 469.396 401.851 468.943 402.756 468.663C403.661 468.376 404.613 468.232 405.612 468.232C406.273 468.232 406.973 468.311 407.713 468.469C408.46 468.62 409.157 468.9 409.804 469.31C410.457 469.719 410.993 470.305 411.409 471.066C411.826 471.821 412.034 472.801 412.034 474.008V485H408.888V482.737H408.758C408.55 483.154 408.237 483.563 407.821 483.965C407.404 484.368 406.869 484.702 406.215 484.968C405.561 485.233 404.778 485.366 403.866 485.366ZM404.566 482.78C405.457 482.78 406.219 482.604 406.851 482.252C407.49 481.9 407.975 481.44 408.306 480.873C408.643 480.298 408.812 479.684 408.812 479.03V476.896C408.697 477.011 408.475 477.119 408.144 477.22C407.821 477.313 407.451 477.396 407.034 477.467C406.617 477.532 406.212 477.593 405.816 477.651C405.421 477.701 405.091 477.744 404.825 477.78C404.2 477.859 403.629 477.992 403.112 478.179C402.601 478.365 402.192 478.635 401.883 478.987C401.581 479.332 401.43 479.792 401.43 480.366C401.43 481.164 401.725 481.767 402.314 482.177C402.903 482.579 403.654 482.78 404.566 482.78ZM419.245 462.93V485H416.022V462.93H419.245ZM431.003 485V468.448H434.118V471.077H434.29C434.592 470.186 435.123 469.486 435.885 468.976C436.654 468.459 437.523 468.2 438.493 468.2C438.694 468.2 438.931 468.207 439.204 468.221C439.484 468.236 439.703 468.254 439.861 468.275V471.357C439.732 471.321 439.502 471.282 439.172 471.239C438.841 471.189 438.511 471.163 438.18 471.163C437.419 471.163 436.74 471.325 436.144 471.648C435.554 471.964 435.087 472.406 434.743 472.974C434.398 473.534 434.225 474.174 434.225 474.892V485H431.003ZM448.887 485.334C447.257 485.334 445.852 484.986 444.674 484.289C443.503 483.585 442.598 482.597 441.958 481.325C441.326 480.047 441.01 478.549 441.01 476.832C441.01 475.136 441.326 473.642 441.958 472.349C442.598 471.056 443.488 470.046 444.631 469.321C445.78 468.595 447.124 468.232 448.661 468.232C449.595 468.232 450.5 468.387 451.377 468.696C452.253 469.005 453.04 469.489 453.737 470.15C454.433 470.811 454.983 471.67 455.385 472.726C455.788 473.775 455.989 475.05 455.989 476.551V477.694H442.831V475.28H452.831C452.831 474.432 452.659 473.681 452.314 473.028C451.969 472.367 451.484 471.846 450.859 471.465C450.242 471.084 449.516 470.894 448.683 470.894C447.777 470.894 446.987 471.117 446.312 471.562C445.644 472 445.126 472.575 444.76 473.286C444.401 473.99 444.221 474.755 444.221 475.582V477.467C444.221 478.574 444.415 479.515 444.803 480.291C445.198 481.067 445.748 481.659 446.452 482.069C447.156 482.471 447.979 482.672 448.92 482.672C449.53 482.672 450.087 482.586 450.59 482.414C451.093 482.234 451.527 481.968 451.894 481.616C452.26 481.264 452.54 480.83 452.734 480.312L455.784 480.862C455.54 481.76 455.102 482.547 454.469 483.222C453.844 483.89 453.058 484.411 452.109 484.784C451.168 485.151 450.094 485.334 448.887 485.334ZM459.26 491.207V468.448H462.407V471.131H462.676C462.863 470.786 463.133 470.387 463.485 469.935C463.837 469.482 464.325 469.087 464.95 468.75C465.575 468.405 466.401 468.232 467.429 468.232C468.765 468.232 469.958 468.57 471.006 469.245C472.055 469.921 472.878 470.894 473.474 472.166C474.078 473.437 474.379 474.967 474.379 476.756C474.379 478.545 474.081 480.079 473.485 481.358C472.889 482.629 472.07 483.61 471.028 484.3C469.986 484.982 468.797 485.323 467.461 485.323C466.455 485.323 465.633 485.154 464.993 484.817C464.361 484.479 463.865 484.084 463.506 483.631C463.147 483.179 462.87 482.777 462.676 482.424H462.482V491.207H459.26ZM462.418 476.724C462.418 477.888 462.587 478.908 462.924 479.784C463.262 480.661 463.75 481.347 464.39 481.843C465.029 482.331 465.812 482.575 466.739 482.575C467.702 482.575 468.506 482.32 469.153 481.81C469.799 481.293 470.288 480.593 470.618 479.709C470.956 478.825 471.125 477.83 471.125 476.724C471.125 475.632 470.96 474.651 470.629 473.782C470.306 472.913 469.817 472.227 469.164 471.724C468.517 471.221 467.709 470.969 466.739 470.969C465.805 470.969 465.015 471.21 464.368 471.691C463.729 472.173 463.244 472.844 462.914 473.707C462.583 474.569 462.418 475.574 462.418 476.724ZM484.658 485.334C483.106 485.334 481.752 484.978 480.595 484.267C479.439 483.556 478.541 482.561 477.901 481.282C477.262 480.003 476.942 478.509 476.942 476.799C476.942 475.082 477.262 473.581 477.901 472.295C478.541 471.009 479.439 470.01 480.595 469.299C481.752 468.588 483.106 468.232 484.658 468.232C486.21 468.232 487.564 468.588 488.721 469.299C489.877 470.01 490.775 471.009 491.415 472.295C492.054 473.581 492.374 475.082 492.374 476.799C492.374 478.509 492.054 480.003 491.415 481.282C490.775 482.561 489.877 483.556 488.721 484.267C487.564 484.978 486.21 485.334 484.658 485.334ZM484.669 482.629C485.675 482.629 486.508 482.363 487.169 481.832C487.83 481.3 488.318 480.593 488.635 479.709C488.958 478.825 489.119 477.852 489.119 476.789C489.119 475.732 488.958 474.763 488.635 473.879C488.318 472.988 487.83 472.273 487.169 471.735C486.508 471.196 485.675 470.926 484.669 470.926C483.656 470.926 482.815 471.196 482.147 471.735C481.486 472.273 480.994 472.988 480.671 473.879C480.355 474.763 480.197 475.732 480.197 476.789C480.197 477.852 480.355 478.825 480.671 479.709C480.994 480.593 481.486 481.3 482.147 481.832C482.815 482.363 483.656 482.629 484.669 482.629ZM495.667 485V468.448H498.781V471.077H498.954C499.255 470.186 499.787 469.486 500.549 468.976C501.317 468.459 502.187 468.2 503.156 468.2C503.358 468.2 503.595 468.207 503.868 468.221C504.148 468.236 504.367 468.254 504.525 468.275V471.357C504.396 471.321 504.166 471.282 503.835 471.239C503.505 471.189 503.174 471.163 502.844 471.163C502.082 471.163 501.403 471.325 500.807 471.648C500.218 471.964 499.751 472.406 499.406 472.974C499.061 473.534 498.889 474.174 498.889 474.892V485H495.667ZM515.714 468.448V471.034H506.673V468.448H515.714ZM509.098 464.482H512.32V480.14C512.32 480.765 512.413 481.236 512.6 481.552C512.787 481.861 513.027 482.072 513.322 482.187C513.624 482.295 513.951 482.349 514.303 482.349C514.561 482.349 514.788 482.331 514.982 482.295C515.176 482.259 515.326 482.231 515.434 482.209L516.016 484.871C515.829 484.943 515.563 485.014 515.219 485.086C514.874 485.165 514.443 485.208 513.925 485.216C513.078 485.23 512.287 485.079 511.555 484.763C510.822 484.447 510.229 483.958 509.777 483.297C509.324 482.636 509.098 481.807 509.098 480.808V464.482Z" fill="white"/>
<path d="M183.862 341.894C186.269 337.725 192.287 337.725 194.694 341.894L223.94 392.55C226.348 396.72 223.339 401.931 218.524 401.931H160.032C155.218 401.931 152.209 396.72 154.616 392.55L183.862 341.894Z" fill="#FF0000"/>
</svg>
