<svg width="808" height="808" viewBox="0 0 808 808" fill="none" xmlns="http://www.w3.org/2000/svg">
<rect width="808" height="808" fill="white"/>
<path d="M450.64 267.801C452.128 265.223 455.849 265.223 457.338 267.801L507.325 354.381C508.813 356.959 506.953 360.182 503.976 360.182H404.001C401.025 360.182 399.164 356.959 400.652 354.381L450.64 267.801Z" fill="#2D2D2D"/>
<rect x="289" y="271.819" width="88.3636" height="88.3636" rx="3.8671" fill="#25CBFF"/>
<circle cx="333.182" cy="433.818" r="44.1818" fill="#25FF21"/>
<path d="M218.046 550.794V546.818H238.935V550.794H230.843V573H226.138V550.794H218.046ZM247.385 561.494V573H242.757V546.818H247.283V556.7H247.513C247.973 555.592 248.685 554.719 249.648 554.08C250.62 553.432 251.855 553.108 253.355 553.108C254.719 553.108 255.908 553.393 256.922 553.964C257.936 554.536 258.72 555.371 259.274 556.47C259.837 557.57 260.118 558.912 260.118 560.497V573H255.49V561.213C255.49 559.892 255.149 558.865 254.468 558.132C253.794 557.391 252.848 557.02 251.63 557.02C250.811 557.02 250.078 557.199 249.431 557.557C248.791 557.906 248.289 558.413 247.922 559.078C247.564 559.743 247.385 560.548 247.385 561.494ZM273.529 573.384C271.56 573.384 269.86 572.974 268.428 572.156C267.005 571.33 265.909 570.162 265.142 568.653C264.375 567.136 263.992 565.351 263.992 563.297C263.992 561.277 264.375 559.504 265.142 557.979C265.918 556.445 267 555.251 268.389 554.399C269.779 553.538 271.411 553.108 273.286 553.108C274.496 553.108 275.638 553.304 276.712 553.696C277.794 554.08 278.749 554.676 279.576 555.486C280.411 556.295 281.067 557.327 281.544 558.58C282.022 559.824 282.26 561.307 282.26 563.028V564.447H266.165V561.328H277.824C277.816 560.442 277.624 559.653 277.249 558.963C276.874 558.264 276.35 557.714 275.676 557.314C275.012 556.913 274.236 556.713 273.35 556.713C272.404 556.713 271.573 556.943 270.857 557.403C270.141 557.855 269.583 558.452 269.182 559.193C268.79 559.926 268.59 560.732 268.581 561.609V564.332C268.581 565.474 268.79 566.455 269.208 567.273C269.625 568.082 270.209 568.705 270.959 569.139C271.709 569.565 272.587 569.778 273.593 569.778C274.266 569.778 274.875 569.685 275.421 569.497C275.966 569.301 276.439 569.016 276.84 568.641C277.24 568.266 277.543 567.801 277.747 567.247L282.068 567.733C281.796 568.875 281.276 569.872 280.509 570.724C279.75 571.568 278.779 572.224 277.594 572.693C276.409 573.153 275.054 573.384 273.529 573.384ZM295.105 573V553.364H299.528V556.7H299.758C300.168 555.575 300.845 554.697 301.791 554.067C302.737 553.428 303.866 553.108 305.179 553.108C306.508 553.108 307.629 553.432 308.541 554.08C309.462 554.719 310.109 555.592 310.484 556.7H310.689C311.124 555.609 311.856 554.74 312.888 554.092C313.927 553.436 315.159 553.108 316.582 553.108C318.389 553.108 319.864 553.679 321.006 554.821C322.148 555.963 322.719 557.629 322.719 559.82V573H318.078V560.536C318.078 559.317 317.754 558.426 317.106 557.864C316.459 557.293 315.666 557.007 314.729 557.007C313.612 557.007 312.739 557.357 312.108 558.055C311.486 558.746 311.175 559.645 311.175 560.753V573H306.636V560.344C306.636 559.33 306.329 558.52 305.716 557.915C305.111 557.31 304.318 557.007 303.338 557.007C302.673 557.007 302.068 557.178 301.523 557.518C300.977 557.851 300.543 558.324 300.219 558.938C299.895 559.543 299.733 560.25 299.733 561.06V573H295.105ZM327.414 573V553.364H332.041V573H327.414ZM329.74 550.577C329.007 550.577 328.377 550.334 327.848 549.848C327.32 549.354 327.056 548.761 327.056 548.071C327.056 547.372 327.32 546.78 327.848 546.294C328.377 545.8 329.007 545.553 329.74 545.553C330.482 545.553 331.113 545.8 331.632 546.294C332.161 546.78 332.425 547.372 332.425 548.071C332.425 548.761 332.161 549.354 331.632 549.848C331.113 550.334 330.482 550.577 329.74 550.577ZM352.32 558.554L348.101 559.014C347.982 558.588 347.773 558.188 347.475 557.812C347.185 557.438 346.793 557.135 346.299 556.905C345.805 556.675 345.2 556.56 344.484 556.56C343.521 556.56 342.711 556.768 342.055 557.186C341.407 557.604 341.087 558.145 341.096 558.81C341.087 559.381 341.296 559.845 341.722 560.203C342.157 560.561 342.873 560.855 343.87 561.085L347.219 561.801C349.077 562.202 350.458 562.837 351.361 563.706C352.273 564.575 352.734 565.713 352.742 567.119C352.734 568.355 352.371 569.446 351.655 570.392C350.948 571.33 349.964 572.062 348.702 572.591C347.441 573.119 345.992 573.384 344.356 573.384C341.952 573.384 340.018 572.881 338.552 571.875C337.086 570.861 336.212 569.45 335.931 567.643L340.444 567.209C340.648 568.095 341.083 568.764 341.748 569.216C342.413 569.668 343.278 569.893 344.343 569.893C345.442 569.893 346.325 569.668 346.989 569.216C347.663 568.764 347.999 568.206 347.999 567.541C347.999 566.979 347.782 566.514 347.347 566.148C346.921 565.781 346.256 565.5 345.353 565.304L342.003 564.601C340.12 564.209 338.726 563.548 337.823 562.619C336.92 561.682 336.472 560.497 336.481 559.065C336.472 557.855 336.8 556.807 337.465 555.92C338.138 555.026 339.072 554.335 340.265 553.849C341.467 553.355 342.851 553.108 344.42 553.108C346.721 553.108 348.532 553.598 349.853 554.578C351.182 555.558 352.005 556.884 352.32 558.554ZM372.078 558.554L367.859 559.014C367.74 558.588 367.531 558.188 367.233 557.812C366.943 557.438 366.551 557.135 366.057 556.905C365.562 556.675 364.957 556.56 364.241 556.56C363.278 556.56 362.469 556.768 361.812 557.186C361.165 557.604 360.845 558.145 360.854 558.81C360.845 559.381 361.054 559.845 361.48 560.203C361.915 560.561 362.631 560.855 363.628 561.085L366.977 561.801C368.835 562.202 370.216 562.837 371.119 563.706C372.031 564.575 372.491 565.713 372.5 567.119C372.491 568.355 372.129 569.446 371.413 570.392C370.706 571.33 369.722 572.062 368.46 572.591C367.199 573.119 365.75 573.384 364.114 573.384C361.71 573.384 359.775 572.881 358.31 571.875C356.844 570.861 355.97 569.45 355.689 567.643L360.202 567.209C360.406 568.095 360.841 568.764 361.506 569.216C362.17 569.668 363.035 569.893 364.101 569.893C365.2 569.893 366.082 569.668 366.747 569.216C367.42 568.764 367.757 568.206 367.757 567.541C367.757 566.979 367.54 566.514 367.105 566.148C366.679 565.781 366.014 565.5 365.111 565.304L361.761 564.601C359.878 564.209 358.484 563.548 357.581 562.619C356.677 561.682 356.23 560.497 356.239 559.065C356.23 557.855 356.558 556.807 357.223 555.92C357.896 555.026 358.829 554.335 360.023 553.849C361.224 553.355 362.609 553.108 364.177 553.108C366.479 553.108 368.29 553.598 369.611 554.578C370.94 555.558 371.763 556.884 372.078 558.554ZM376.316 573V553.364H380.944V573H376.316ZM378.643 550.577C377.91 550.577 377.279 550.334 376.751 549.848C376.222 549.354 375.958 548.761 375.958 548.071C375.958 547.372 376.222 546.78 376.751 546.294C377.279 545.8 377.91 545.553 378.643 545.553C379.384 545.553 380.015 545.8 380.535 546.294C381.063 546.78 381.327 547.372 381.327 548.071C381.327 548.761 381.063 549.354 380.535 549.848C380.015 550.334 379.384 550.577 378.643 550.577ZM394.268 573.384C392.35 573.384 390.688 572.962 389.282 572.118C387.876 571.274 386.785 570.094 386.01 568.577C385.242 567.06 384.859 565.287 384.859 563.259C384.859 561.23 385.242 559.453 386.01 557.928C386.785 556.402 387.876 555.217 389.282 554.374C390.688 553.53 392.35 553.108 394.268 553.108C396.186 553.108 397.848 553.53 399.254 554.374C400.66 555.217 401.747 556.402 402.514 557.928C403.289 559.453 403.677 561.23 403.677 563.259C403.677 565.287 403.289 567.06 402.514 568.577C401.747 570.094 400.66 571.274 399.254 572.118C397.848 572.962 396.186 573.384 394.268 573.384ZM394.294 569.676C395.333 569.676 396.203 569.391 396.902 568.82C397.6 568.24 398.12 567.464 398.461 566.493C398.811 565.521 398.985 564.439 398.985 563.246C398.985 562.044 398.811 560.957 398.461 559.986C398.12 559.006 397.6 558.226 396.902 557.646C396.203 557.067 395.333 556.777 394.294 556.777C393.228 556.777 392.342 557.067 391.635 557.646C390.936 558.226 390.412 559.006 390.062 559.986C389.721 560.957 389.551 562.044 389.551 563.246C389.551 564.439 389.721 565.521 390.062 566.493C390.412 567.464 390.936 568.24 391.635 568.82C392.342 569.391 393.228 569.676 394.294 569.676ZM412.233 561.494V573H407.605V553.364H412.028V556.7H412.258C412.71 555.601 413.43 554.727 414.419 554.08C415.416 553.432 416.648 553.108 418.114 553.108C419.469 553.108 420.649 553.398 421.655 553.977C422.669 554.557 423.453 555.396 424.007 556.496C424.57 557.595 424.847 558.929 424.838 560.497V573H420.21V561.213C420.21 559.901 419.869 558.874 419.187 558.132C418.514 557.391 417.581 557.02 416.388 557.02C415.578 557.02 414.858 557.199 414.227 557.557C413.605 557.906 413.115 558.413 412.757 559.078C412.408 559.743 412.233 560.548 412.233 561.494ZM447.038 573.384C445.12 573.384 443.458 572.962 442.052 572.118C440.646 571.274 439.555 570.094 438.779 568.577C438.012 567.06 437.628 565.287 437.628 563.259C437.628 561.23 438.012 559.453 438.779 557.928C439.555 556.402 440.646 555.217 442.052 554.374C443.458 553.53 445.12 553.108 447.038 553.108C448.955 553.108 450.617 553.53 452.023 554.374C453.43 555.217 454.516 556.402 455.283 557.928C456.059 559.453 456.447 561.23 456.447 563.259C456.447 565.287 456.059 567.06 455.283 568.577C454.516 570.094 453.43 571.274 452.023 572.118C450.617 572.962 448.955 573.384 447.038 573.384ZM447.063 569.676C448.103 569.676 448.972 569.391 449.671 568.82C450.37 568.24 450.89 567.464 451.231 566.493C451.58 565.521 451.755 564.439 451.755 563.246C451.755 562.044 451.58 560.957 451.231 559.986C450.89 559.006 450.37 558.226 449.671 557.646C448.972 557.067 448.103 556.777 447.063 556.777C445.998 556.777 445.111 557.067 444.404 557.646C443.705 558.226 443.181 559.006 442.832 559.986C442.491 560.957 442.32 562.044 442.32 563.246C442.32 564.439 442.491 565.521 442.832 566.493C443.181 567.464 443.705 568.24 444.404 568.82C445.111 569.391 445.998 569.676 447.063 569.676ZM470.321 553.364V556.943H458.713V553.364H470.321ZM461.615 573V551.51C461.615 550.189 461.887 549.089 462.433 548.212C462.987 547.334 463.728 546.678 464.657 546.243C465.586 545.808 466.617 545.591 467.751 545.591C468.552 545.591 469.264 545.655 469.886 545.783C470.508 545.911 470.968 546.026 471.267 546.128L470.346 549.707C470.15 549.648 469.903 549.588 469.605 549.528C469.306 549.46 468.974 549.426 468.608 549.426C467.747 549.426 467.137 549.635 466.779 550.053C466.43 550.462 466.255 551.05 466.255 551.817V573H461.615ZM497.308 554.016C497.188 552.899 496.686 552.03 495.799 551.408C494.921 550.786 493.779 550.474 492.373 550.474C491.385 550.474 490.537 550.624 489.829 550.922C489.122 551.22 488.581 551.625 488.206 552.136C487.831 552.648 487.639 553.232 487.63 553.888C487.63 554.433 487.754 554.906 488.001 555.307C488.257 555.707 488.602 556.048 489.037 556.33C489.471 556.602 489.953 556.832 490.481 557.02C491.01 557.207 491.542 557.365 492.079 557.493L494.534 558.107C495.522 558.337 496.473 558.648 497.385 559.04C498.305 559.432 499.127 559.926 499.852 560.523C500.585 561.119 501.164 561.839 501.59 562.683C502.017 563.527 502.23 564.516 502.23 565.649C502.23 567.183 501.838 568.534 501.054 569.702C500.269 570.861 499.136 571.768 497.653 572.425C496.179 573.072 494.393 573.396 492.296 573.396C490.26 573.396 488.491 573.081 486.991 572.45C485.5 571.82 484.332 570.899 483.488 569.689C482.653 568.479 482.201 567.004 482.133 565.266H486.799C486.867 566.178 487.149 566.936 487.643 567.541C488.137 568.146 488.781 568.598 489.573 568.896C490.375 569.195 491.269 569.344 492.258 569.344C493.289 569.344 494.193 569.19 494.968 568.884C495.752 568.568 496.366 568.134 496.809 567.58C497.252 567.017 497.478 566.361 497.487 565.611C497.478 564.929 497.278 564.366 496.886 563.923C496.494 563.472 495.944 563.097 495.237 562.798C494.538 562.491 493.72 562.219 492.782 561.98L489.804 561.213C487.647 560.659 485.943 559.82 484.69 558.695C483.446 557.561 482.823 556.057 482.823 554.182C482.823 552.639 483.241 551.288 484.076 550.129C484.92 548.97 486.066 548.071 487.515 547.432C488.964 546.784 490.605 546.46 492.437 546.46C494.295 546.46 495.923 546.784 497.321 547.432C498.727 548.071 499.831 548.962 500.632 550.104C501.433 551.237 501.846 552.541 501.872 554.016H497.308ZM514.947 573.384C512.978 573.384 511.278 572.974 509.846 572.156C508.423 571.33 507.327 570.162 506.56 568.653C505.793 567.136 505.41 565.351 505.41 563.297C505.41 561.277 505.793 559.504 506.56 557.979C507.336 556.445 508.418 555.251 509.807 554.399C511.197 553.538 512.829 553.108 514.704 553.108C515.914 553.108 517.056 553.304 518.13 553.696C519.212 554.08 520.167 554.676 520.994 555.486C521.829 556.295 522.485 557.327 522.962 558.58C523.44 559.824 523.678 561.307 523.678 563.028V564.447H507.583V561.328H519.242C519.234 560.442 519.042 559.653 518.667 558.963C518.292 558.264 517.768 557.714 517.094 557.314C516.43 556.913 515.654 556.713 514.768 556.713C513.822 556.713 512.991 556.943 512.275 557.403C511.559 557.855 511.001 558.452 510.6 559.193C510.208 559.926 510.008 560.732 509.999 561.609V564.332C509.999 565.474 510.208 566.455 510.626 567.273C511.043 568.082 511.627 568.705 512.377 569.139C513.127 569.565 514.005 569.778 515.011 569.778C515.684 569.778 516.293 569.685 516.839 569.497C517.384 569.301 517.857 569.016 518.258 568.641C518.658 568.266 518.961 567.801 519.165 567.247L523.486 567.733C523.214 568.875 522.694 569.872 521.927 570.724C521.168 571.568 520.197 572.224 519.012 572.693C517.827 573.153 516.472 573.384 514.947 573.384ZM527.593 573V553.364H532.081V556.636H532.285C532.643 555.503 533.257 554.629 534.126 554.016C535.004 553.393 536.005 553.082 537.13 553.082C537.386 553.082 537.671 553.095 537.987 553.121C538.311 553.138 538.579 553.168 538.792 553.21V557.467C538.596 557.399 538.285 557.339 537.859 557.288C537.441 557.229 537.036 557.199 536.644 557.199C535.801 557.199 535.042 557.382 534.369 557.749C533.704 558.107 533.18 558.605 532.796 559.244C532.413 559.884 532.221 560.621 532.221 561.456V573H527.593ZM554.382 564.741V553.364H559.01V573H554.523V569.51H554.318C553.875 570.609 553.147 571.509 552.132 572.207C551.127 572.906 549.887 573.256 548.412 573.256C547.125 573.256 545.987 572.97 544.999 572.399C544.019 571.82 543.252 570.98 542.698 569.881C542.144 568.773 541.867 567.435 541.867 565.866V553.364H546.495V565.151C546.495 566.395 546.835 567.384 547.517 568.116C548.199 568.849 549.094 569.216 550.202 569.216C550.884 569.216 551.544 569.05 552.183 568.717C552.823 568.385 553.347 567.891 553.756 567.234C554.174 566.57 554.382 565.739 554.382 564.741ZM569.42 573.396C568.175 573.396 567.055 573.175 566.057 572.732C565.069 572.28 564.285 571.615 563.705 570.737C563.134 569.859 562.849 568.777 562.849 567.49C562.849 566.382 563.053 565.466 563.462 564.741C563.871 564.017 564.43 563.438 565.137 563.003C565.844 562.568 566.641 562.24 567.528 562.018C568.422 561.788 569.347 561.622 570.302 561.52C571.452 561.401 572.386 561.294 573.101 561.2C573.817 561.098 574.337 560.945 574.661 560.74C574.994 560.527 575.16 560.199 575.16 559.756V559.679C575.16 558.716 574.874 557.97 574.303 557.442C573.732 556.913 572.91 556.649 571.836 556.649C570.702 556.649 569.803 556.896 569.138 557.391C568.482 557.885 568.039 558.469 567.809 559.142L563.488 558.528C563.829 557.335 564.391 556.338 565.175 555.537C565.959 554.727 566.918 554.122 568.052 553.722C569.185 553.312 570.438 553.108 571.81 553.108C572.756 553.108 573.698 553.219 574.636 553.44C575.573 553.662 576.43 554.028 577.205 554.54C577.981 555.043 578.603 555.729 579.072 556.598C579.549 557.467 579.788 558.554 579.788 559.858V573H575.339V570.303H575.185C574.904 570.848 574.508 571.359 573.996 571.837C573.494 572.305 572.859 572.685 572.092 572.974C571.333 573.256 570.442 573.396 569.42 573.396ZM570.621 569.996C571.55 569.996 572.356 569.812 573.038 569.446C573.719 569.071 574.244 568.577 574.61 567.963C574.985 567.349 575.172 566.68 575.172 565.956V563.642C575.028 563.761 574.78 563.872 574.431 563.974C574.09 564.077 573.707 564.166 573.28 564.243C572.854 564.32 572.432 564.388 572.015 564.447C571.597 564.507 571.235 564.558 570.928 564.601C570.238 564.695 569.62 564.848 569.074 565.061C568.529 565.274 568.099 565.572 567.783 565.956C567.468 566.331 567.31 566.817 567.31 567.413C567.31 568.266 567.621 568.909 568.244 569.344C568.866 569.778 569.658 569.996 570.621 569.996ZM584.441 573V553.364H589.069V573H584.441ZM586.768 550.577C586.035 550.577 585.404 550.334 584.876 549.848C584.347 549.354 584.083 548.761 584.083 548.071C584.083 547.372 584.347 546.78 584.876 546.294C585.404 545.8 586.035 545.553 586.768 545.553C587.509 545.553 588.14 545.8 588.66 546.294C589.188 546.78 589.452 547.372 589.452 548.071C589.452 548.761 589.188 549.354 588.66 549.848C588.14 550.334 587.509 550.577 586.768 550.577Z" fill="#2D2D2D"/>
</svg>
