<svg width="808" height="808" viewBox="0 0 808 808" fill="none" xmlns="http://www.w3.org/2000/svg">
<rect width="808" height="808" fill="#0F1318"/>
<circle cx="404.416" cy="307.416" r="145.416" fill="white"/>
<path d="M440.656 245.447C441.596 243.817 443.948 243.817 444.889 245.447L476.48 300.165C477.421 301.794 476.245 303.831 474.364 303.831H411.18C409.299 303.831 408.123 301.794 409.064 300.165L440.656 245.447Z" fill="#2D2D2D"/>
<rect x="338.5" y="247.986" width="55.8452" height="55.8452" rx="2.44398" fill="#25CBFF"/>
<circle cx="366.423" cy="350.369" r="27.9226" fill="#25FF21"/>
<path d="M85.7783 566V539.818H95.5965C97.6079 539.818 99.2954 540.168 100.659 540.866C102.031 541.565 103.067 542.545 103.766 543.807C104.473 545.06 104.827 546.521 104.827 548.192C104.827 549.871 104.469 551.328 103.753 552.564C103.045 553.791 102.001 554.741 100.621 555.415C99.24 556.08 97.544 556.412 95.5326 556.412H88.5397V552.474H94.8934C96.0695 552.474 97.0326 552.312 97.7826 551.989C98.5326 551.656 99.0866 551.175 99.4445 550.544C99.811 549.905 99.9942 549.121 99.9942 548.192C99.9942 547.263 99.811 546.47 99.4445 545.814C99.0781 545.149 98.5198 544.646 97.7698 544.305C97.0198 543.956 96.0525 543.781 94.8678 543.781H90.5212V566H85.7783ZM99.3039 554.136L105.785 566H100.493L94.1264 554.136H99.3039ZM117.4 566.384C115.431 566.384 113.731 565.974 112.299 565.156C110.876 564.33 109.78 563.162 109.013 561.653C108.246 560.136 107.863 558.351 107.863 556.297C107.863 554.277 108.246 552.504 109.013 550.979C109.789 549.445 110.871 548.251 112.261 547.399C113.65 546.538 115.282 546.108 117.157 546.108C118.367 546.108 119.509 546.304 120.583 546.696C121.665 547.08 122.62 547.676 123.447 548.486C124.282 549.295 124.938 550.327 125.415 551.58C125.893 552.824 126.131 554.307 126.131 556.028V557.447H110.036V554.328H121.695C121.687 553.442 121.495 552.653 121.12 551.963C120.745 551.264 120.221 550.714 119.548 550.314C118.883 549.913 118.107 549.713 117.221 549.713C116.275 549.713 115.444 549.943 114.728 550.403C114.012 550.855 113.454 551.452 113.053 552.193C112.661 552.926 112.461 553.732 112.452 554.609V557.332C112.452 558.474 112.661 559.455 113.079 560.273C113.496 561.082 114.08 561.705 114.83 562.139C115.58 562.565 116.458 562.778 117.464 562.778C118.137 562.778 118.746 562.685 119.292 562.497C119.837 562.301 120.31 562.016 120.711 561.641C121.111 561.266 121.414 560.801 121.619 560.247L125.94 560.733C125.667 561.875 125.147 562.872 124.38 563.724C123.621 564.568 122.65 565.224 121.465 565.693C120.28 566.153 118.925 566.384 117.4 566.384ZM135.697 566.396C134.453 566.396 133.332 566.175 132.335 565.732C131.346 565.28 130.562 564.615 129.983 563.737C129.412 562.859 129.126 561.777 129.126 560.49C129.126 559.382 129.331 558.466 129.74 557.741C130.149 557.017 130.707 556.438 131.414 556.003C132.122 555.568 132.919 555.24 133.805 555.018C134.7 554.788 135.625 554.622 136.579 554.52C137.73 554.401 138.663 554.294 139.379 554.2C140.095 554.098 140.615 553.945 140.938 553.74C141.271 553.527 141.437 553.199 141.437 552.756V552.679C141.437 551.716 141.152 550.97 140.581 550.442C140.01 549.913 139.187 549.649 138.113 549.649C136.98 549.649 136.081 549.896 135.416 550.391C134.76 550.885 134.316 551.469 134.086 552.142L129.765 551.528C130.106 550.335 130.669 549.338 131.453 548.537C132.237 547.727 133.196 547.122 134.329 546.722C135.463 546.312 136.715 546.108 138.088 546.108C139.034 546.108 139.975 546.219 140.913 546.44C141.85 546.662 142.707 547.028 143.483 547.54C144.258 548.043 144.88 548.729 145.349 549.598C145.826 550.467 146.065 551.554 146.065 552.858V566H141.616V563.303H141.463C141.181 563.848 140.785 564.359 140.274 564.837C139.771 565.305 139.136 565.685 138.369 565.974C137.61 566.256 136.72 566.396 135.697 566.396ZM136.899 562.996C137.828 562.996 138.633 562.812 139.315 562.446C139.997 562.071 140.521 561.577 140.887 560.963C141.262 560.349 141.45 559.68 141.45 558.956V556.642C141.305 556.761 141.058 556.872 140.708 556.974C140.367 557.077 139.984 557.166 139.558 557.243C139.132 557.32 138.71 557.388 138.292 557.447C137.875 557.507 137.512 557.558 137.206 557.601C136.515 557.695 135.897 557.848 135.352 558.061C134.806 558.274 134.376 558.572 134.061 558.956C133.745 559.331 133.588 559.817 133.588 560.413C133.588 561.266 133.899 561.909 134.521 562.344C135.143 562.778 135.936 562.996 136.899 562.996ZM155.346 539.818V566H150.718V539.818H155.346ZM168.089 543.794V539.818H188.978V543.794H180.886V566H176.181V543.794H168.089ZM192.8 566V546.364H197.428V566H192.8ZM195.127 543.577C194.394 543.577 193.763 543.334 193.235 542.848C192.707 542.354 192.442 541.761 192.442 541.071C192.442 540.372 192.707 539.78 193.235 539.294C193.763 538.8 194.394 538.553 195.127 538.553C195.869 538.553 196.499 538.8 197.019 539.294C197.548 539.78 197.812 540.372 197.812 541.071C197.812 541.761 197.548 542.354 197.019 542.848C196.499 543.334 195.869 543.577 195.127 543.577ZM202.187 566V546.364H206.61V549.7H206.84C207.25 548.575 207.927 547.697 208.873 547.067C209.819 546.428 210.948 546.108 212.261 546.108C213.59 546.108 214.711 546.432 215.623 547.08C216.544 547.719 217.191 548.592 217.566 549.7H217.771C218.206 548.609 218.938 547.74 219.97 547.092C221.01 546.436 222.241 546.108 223.664 546.108C225.471 546.108 226.946 546.679 228.088 547.821C229.23 548.963 229.801 550.629 229.801 552.82V566H225.16V553.536C225.16 552.317 224.836 551.426 224.188 550.864C223.541 550.293 222.748 550.007 221.811 550.007C220.694 550.007 219.821 550.357 219.19 551.055C218.568 551.746 218.257 552.645 218.257 553.753V566H213.718V553.344C213.718 552.33 213.412 551.52 212.798 550.915C212.193 550.31 211.4 550.007 210.42 550.007C209.755 550.007 209.15 550.178 208.605 550.518C208.059 550.851 207.625 551.324 207.301 551.938C206.977 552.543 206.815 553.25 206.815 554.06V566H202.187ZM243.189 566.384C241.22 566.384 239.52 565.974 238.088 565.156C236.665 564.33 235.57 563.162 234.802 561.653C234.035 560.136 233.652 558.351 233.652 556.297C233.652 554.277 234.035 552.504 234.802 550.979C235.578 549.445 236.66 548.251 238.05 547.399C239.439 546.538 241.071 546.108 242.946 546.108C244.156 546.108 245.298 546.304 246.372 546.696C247.454 547.08 248.409 547.676 249.236 548.486C250.071 549.295 250.727 550.327 251.204 551.58C251.682 552.824 251.92 554.307 251.92 556.028V557.447H235.825V554.328H247.484C247.476 553.442 247.284 552.653 246.909 551.963C246.534 551.264 246.01 550.714 245.337 550.314C244.672 549.913 243.896 549.713 243.01 549.713C242.064 549.713 241.233 549.943 240.517 550.403C239.801 550.855 239.243 551.452 238.842 552.193C238.45 552.926 238.25 553.732 238.241 554.609V557.332C238.241 558.474 238.45 559.455 238.868 560.273C239.285 561.082 239.869 561.705 240.619 562.139C241.369 562.565 242.247 562.778 243.253 562.778C243.926 562.778 244.535 562.685 245.081 562.497C245.626 562.301 246.099 562.016 246.5 561.641C246.9 561.266 247.203 560.801 247.408 560.247L251.729 560.733C251.456 561.875 250.936 562.872 250.169 563.724C249.41 564.568 248.439 565.224 247.254 565.693C246.07 566.153 244.714 566.384 243.189 566.384ZM268.332 566H263.269L272.487 539.818H278.342L287.572 566H282.51L275.517 545.188H275.312L268.332 566ZM268.498 555.734H282.305V559.544H268.498V555.734ZM306.019 551.554L301.801 552.014C301.681 551.588 301.473 551.188 301.174 550.812C300.885 550.438 300.492 550.135 299.998 549.905C299.504 549.675 298.899 549.56 298.183 549.56C297.22 549.56 296.41 549.768 295.754 550.186C295.106 550.604 294.787 551.145 294.795 551.81C294.787 552.381 294.995 552.845 295.421 553.203C295.856 553.561 296.572 553.855 297.569 554.085L300.919 554.801C302.777 555.202 304.157 555.837 305.061 556.706C305.973 557.575 306.433 558.713 306.441 560.119C306.433 561.355 306.071 562.446 305.355 563.392C304.647 564.33 303.663 565.062 302.402 565.591C301.14 566.119 299.691 566.384 298.055 566.384C295.652 566.384 293.717 565.881 292.251 564.875C290.785 563.861 289.912 562.45 289.63 560.643L294.143 560.209C294.348 561.095 294.782 561.764 295.447 562.216C296.112 562.668 296.977 562.893 298.042 562.893C299.142 562.893 300.024 562.668 300.688 562.216C301.362 561.764 301.698 561.206 301.698 560.541C301.698 559.979 301.481 559.514 301.046 559.148C300.62 558.781 299.956 558.5 299.052 558.304L295.703 557.601C293.819 557.209 292.426 556.548 291.522 555.619C290.619 554.682 290.171 553.497 290.18 552.065C290.171 550.855 290.5 549.807 291.164 548.92C291.838 548.026 292.771 547.335 293.964 546.849C295.166 546.355 296.551 546.108 298.119 546.108C300.42 546.108 302.231 546.598 303.552 547.578C304.882 548.558 305.704 549.884 306.019 551.554ZM325.777 551.554L321.559 552.014C321.439 551.588 321.23 551.188 320.932 550.812C320.642 550.438 320.25 550.135 319.756 549.905C319.262 549.675 318.657 549.56 317.941 549.56C316.978 549.56 316.168 549.768 315.512 550.186C314.864 550.604 314.544 551.145 314.553 551.81C314.544 552.381 314.753 552.845 315.179 553.203C315.614 553.561 316.33 553.855 317.327 554.085L320.676 554.801C322.534 555.202 323.915 555.837 324.818 556.706C325.73 557.575 326.191 558.713 326.199 560.119C326.191 561.355 325.828 562.446 325.113 563.392C324.405 564.33 323.421 565.062 322.159 565.591C320.898 566.119 319.449 566.384 317.813 566.384C315.409 566.384 313.475 565.881 312.009 564.875C310.543 563.861 309.669 562.45 309.388 560.643L313.901 560.209C314.105 561.095 314.54 561.764 315.205 562.216C315.87 562.668 316.735 562.893 317.8 562.893C318.899 562.893 319.782 562.668 320.446 562.216C321.12 561.764 321.456 561.206 321.456 560.541C321.456 559.979 321.239 559.514 320.804 559.148C320.378 558.781 319.713 558.5 318.81 558.304L315.461 557.601C313.577 557.209 312.184 556.548 311.28 555.619C310.377 554.682 309.929 553.497 309.938 552.065C309.929 550.855 310.257 549.807 310.922 548.92C311.595 548.026 312.529 547.335 313.722 546.849C314.924 546.355 316.309 546.108 317.877 546.108C320.178 546.108 321.989 546.598 323.31 547.578C324.639 548.558 325.462 549.884 325.777 551.554ZM330.015 566V546.364H334.643V566H330.015ZM332.342 543.577C331.609 543.577 330.978 543.334 330.45 542.848C329.921 542.354 329.657 541.761 329.657 541.071C329.657 540.372 329.921 539.78 330.45 539.294C330.978 538.8 331.609 538.553 332.342 538.553C333.083 538.553 333.714 538.8 334.234 539.294C334.762 539.78 335.027 540.372 335.027 541.071C335.027 541.761 334.762 542.354 334.234 542.848C333.714 543.334 333.083 543.577 332.342 543.577ZM354.922 551.554L350.703 552.014C350.584 551.588 350.375 551.188 350.077 550.812C349.787 550.438 349.395 550.135 348.9 549.905C348.406 549.675 347.801 549.56 347.085 549.56C346.122 549.56 345.312 549.768 344.656 550.186C344.008 550.604 343.689 551.145 343.697 551.81C343.689 552.381 343.898 552.845 344.324 553.203C344.758 553.561 345.474 553.855 346.472 554.085L349.821 554.801C351.679 555.202 353.06 555.837 353.963 556.706C354.875 557.575 355.335 558.713 355.344 560.119C355.335 561.355 354.973 562.446 354.257 563.392C353.55 564.33 352.565 565.062 351.304 565.591C350.043 566.119 348.594 566.384 346.957 566.384C344.554 566.384 342.619 565.881 341.153 564.875C339.687 563.861 338.814 562.45 338.533 560.643L343.045 560.209C343.25 561.095 343.685 561.764 344.349 562.216C345.014 562.668 345.879 562.893 346.945 562.893C348.044 562.893 348.926 562.668 349.591 562.216C350.264 561.764 350.601 561.206 350.601 560.541C350.601 559.979 350.383 559.514 349.949 559.148C349.523 558.781 348.858 558.5 347.954 558.304L344.605 557.601C342.722 557.209 341.328 556.548 340.425 555.619C339.521 554.682 339.074 553.497 339.082 552.065C339.074 550.855 339.402 549.807 340.067 548.92C340.74 548.026 341.673 547.335 342.866 546.849C344.068 546.355 345.453 546.108 347.021 546.108C349.322 546.108 351.133 546.598 352.454 547.578C353.784 548.558 354.606 549.884 354.922 551.554ZM368.965 546.364V549.943H357.677V546.364H368.965ZM360.464 541.659H365.092V560.094C365.092 560.716 365.185 561.193 365.373 561.526C365.569 561.849 365.825 562.071 366.14 562.19C366.455 562.31 366.805 562.369 367.188 562.369C367.478 562.369 367.742 562.348 367.981 562.305C368.228 562.263 368.415 562.224 368.543 562.19L369.323 565.808C369.076 565.893 368.722 565.987 368.262 566.089C367.81 566.192 367.256 566.251 366.6 566.268C365.441 566.303 364.397 566.128 363.468 565.744C362.539 565.352 361.802 564.747 361.256 563.929C360.719 563.111 360.455 562.088 360.464 560.861V541.659ZM378.486 566.396C377.242 566.396 376.121 566.175 375.124 565.732C374.135 565.28 373.351 564.615 372.772 563.737C372.201 562.859 371.915 561.777 371.915 560.49C371.915 559.382 372.12 558.466 372.529 557.741C372.938 557.017 373.496 556.438 374.203 556.003C374.911 555.568 375.708 555.24 376.594 555.018C377.489 554.788 378.414 554.622 379.368 554.52C380.519 554.401 381.452 554.294 382.168 554.2C382.884 554.098 383.404 553.945 383.728 553.74C384.06 553.527 384.226 553.199 384.226 552.756V552.679C384.226 551.716 383.941 550.97 383.37 550.442C382.799 549.913 381.976 549.649 380.902 549.649C379.769 549.649 378.87 549.896 378.205 550.391C377.549 550.885 377.105 551.469 376.875 552.142L372.554 551.528C372.895 550.335 373.458 549.338 374.242 548.537C375.026 547.727 375.985 547.122 377.118 546.722C378.252 546.312 379.505 546.108 380.877 546.108C381.823 546.108 382.764 546.219 383.702 546.44C384.639 546.662 385.496 547.028 386.272 547.54C387.047 548.043 387.669 548.729 388.138 549.598C388.615 550.467 388.854 551.554 388.854 552.858V566H384.405V563.303H384.252C383.97 563.848 383.574 564.359 383.063 564.837C382.56 565.305 381.925 565.685 381.158 565.974C380.399 566.256 379.509 566.396 378.486 566.396ZM379.688 562.996C380.617 562.996 381.422 562.812 382.104 562.446C382.786 562.071 383.31 561.577 383.676 560.963C384.051 560.349 384.239 559.68 384.239 558.956V556.642C384.094 556.761 383.847 556.872 383.497 556.974C383.157 557.077 382.773 557.166 382.347 557.243C381.921 557.32 381.499 557.388 381.081 557.447C380.664 557.507 380.301 557.558 379.995 557.601C379.304 557.695 378.686 557.848 378.141 558.061C377.595 558.274 377.165 558.572 376.85 558.956C376.534 559.331 376.377 559.817 376.377 560.413C376.377 561.266 376.688 561.909 377.31 562.344C377.932 562.778 378.725 562.996 379.688 562.996ZM398.135 554.494V566H393.507V546.364H397.931V549.7H398.161C398.613 548.601 399.333 547.727 400.321 547.08C401.318 546.432 402.55 546.108 404.016 546.108C405.371 546.108 406.551 546.398 407.557 546.977C408.571 547.557 409.355 548.396 409.909 549.496C410.472 550.595 410.749 551.929 410.74 553.497V566H406.113V554.213C406.113 552.901 405.772 551.874 405.09 551.132C404.416 550.391 403.483 550.02 402.29 550.02C401.48 550.02 400.76 550.199 400.13 550.557C399.507 550.906 399.017 551.413 398.659 552.078C398.31 552.743 398.135 553.548 398.135 554.494ZM424.01 566.384C422.05 566.384 420.367 565.953 418.961 565.092C417.563 564.232 416.485 563.043 415.726 561.526C414.976 560 414.601 558.244 414.601 556.259C414.601 554.264 414.985 552.504 415.752 550.979C416.519 549.445 417.601 548.251 418.999 547.399C420.405 546.538 422.067 546.108 423.985 546.108C425.578 546.108 426.989 546.402 428.216 546.99C429.452 547.57 430.436 548.392 431.169 549.457C431.902 550.514 432.32 551.75 432.422 553.165H427.999C427.82 552.219 427.394 551.43 426.72 550.8C426.056 550.161 425.165 549.841 424.049 549.841C423.103 549.841 422.272 550.097 421.556 550.608C420.84 551.111 420.282 551.835 419.881 552.781C419.489 553.727 419.293 554.861 419.293 556.182C419.293 557.52 419.489 558.67 419.881 559.634C420.273 560.588 420.823 561.325 421.53 561.845C422.246 562.357 423.086 562.612 424.049 562.612C424.73 562.612 425.34 562.484 425.877 562.229C426.422 561.964 426.878 561.585 427.245 561.091C427.611 560.597 427.863 559.996 427.999 559.288H432.422C432.311 560.678 431.902 561.909 431.195 562.983C430.488 564.048 429.524 564.884 428.306 565.489C427.087 566.085 425.655 566.384 424.01 566.384ZM444.915 566.384C442.947 566.384 441.246 565.974 439.815 565.156C438.391 564.33 437.296 563.162 436.529 561.653C435.762 560.136 435.378 558.351 435.378 556.297C435.378 554.277 435.762 552.504 436.529 550.979C437.305 549.445 438.387 548.251 439.776 547.399C441.165 546.538 442.798 546.108 444.673 546.108C445.883 546.108 447.025 546.304 448.099 546.696C449.181 547.08 450.136 547.676 450.962 548.486C451.798 549.295 452.454 550.327 452.931 551.58C453.408 552.824 453.647 554.307 453.647 556.028V557.447H437.552V554.328H449.211C449.202 553.442 449.011 552.653 448.636 551.963C448.261 551.264 447.736 550.714 447.063 550.314C446.398 549.913 445.623 549.713 444.736 549.713C443.79 549.713 442.959 549.943 442.244 550.403C441.528 550.855 440.969 551.452 440.569 552.193C440.177 552.926 439.976 553.732 439.968 554.609V557.332C439.968 558.474 440.177 559.455 440.594 560.273C441.012 561.082 441.596 561.705 442.346 562.139C443.096 562.565 443.974 562.778 444.979 562.778C445.653 562.778 446.262 562.685 446.807 562.497C447.353 562.301 447.826 562.016 448.226 561.641C448.627 561.266 448.93 560.801 449.134 560.247L453.455 560.733C453.182 561.875 452.663 562.872 451.896 563.724C451.137 564.568 450.165 565.224 448.981 565.693C447.796 566.153 446.441 566.384 444.915 566.384ZM470.544 566L464.996 546.364H469.713L473.165 560.17H473.344L476.872 546.364H481.539L485.067 560.094H485.259L488.659 546.364H493.389L487.828 566H483.009L479.327 552.73H479.059L475.377 566H470.544ZM496.621 566V546.364H501.249V566H496.621ZM498.947 543.577C498.214 543.577 497.584 543.334 497.055 542.848C496.527 542.354 496.263 541.761 496.263 541.071C496.263 540.372 496.527 539.78 497.055 539.294C497.584 538.8 498.214 538.553 498.947 538.553C499.689 538.553 500.32 538.8 500.839 539.294C501.368 539.78 501.632 540.372 501.632 541.071C501.632 541.761 501.368 542.354 500.839 542.848C500.32 543.334 499.689 543.577 498.947 543.577ZM515.813 546.364V549.943H504.524V546.364H515.813ZM507.311 541.659H511.939V560.094C511.939 560.716 512.033 561.193 512.22 561.526C512.416 561.849 512.672 562.071 512.988 562.19C513.303 562.31 513.652 562.369 514.036 562.369C514.326 562.369 514.59 562.348 514.828 562.305C515.076 562.263 515.263 562.224 515.391 562.19L516.171 565.808C515.924 565.893 515.57 565.987 515.11 566.089C514.658 566.192 514.104 566.251 513.448 566.268C512.289 566.303 511.245 566.128 510.316 565.744C509.387 565.352 508.649 564.747 508.104 563.929C507.567 563.111 507.303 562.088 507.311 560.861V541.659ZM524.733 554.494V566H520.105V539.818H524.631V549.7H524.861C525.321 548.592 526.033 547.719 526.996 547.08C527.967 546.432 529.203 546.108 530.703 546.108C532.067 546.108 533.256 546.393 534.27 546.964C535.284 547.536 536.068 548.371 536.622 549.47C537.185 550.57 537.466 551.912 537.466 553.497V566H532.838V554.213C532.838 552.892 532.497 551.865 531.815 551.132C531.142 550.391 530.196 550.02 528.977 550.02C528.159 550.02 527.426 550.199 526.778 550.557C526.139 550.906 525.636 551.413 525.27 552.078C524.912 552.743 524.733 553.548 524.733 554.494ZM573.728 548.652H568.947C568.81 547.868 568.559 547.173 568.192 546.568C567.826 545.955 567.37 545.435 566.824 545.009C566.279 544.582 565.657 544.263 564.958 544.05C564.268 543.828 563.522 543.717 562.721 543.717C561.297 543.717 560.036 544.075 558.937 544.791C557.837 545.499 556.976 546.538 556.354 547.911C555.732 549.274 555.421 550.94 555.421 552.909C555.421 554.912 555.732 556.599 556.354 557.972C556.985 559.335 557.846 560.366 558.937 561.065C560.036 561.756 561.293 562.101 562.708 562.101C563.492 562.101 564.225 561.999 564.907 561.794C565.597 561.581 566.215 561.27 566.761 560.861C567.315 560.452 567.779 559.949 568.154 559.352C568.538 558.756 568.802 558.074 568.947 557.307L573.728 557.332C573.549 558.577 573.161 559.744 572.565 560.835C571.976 561.926 571.205 562.889 570.251 563.724C569.296 564.551 568.18 565.199 566.901 565.668C565.623 566.128 564.204 566.358 562.644 566.358C560.343 566.358 558.289 565.825 556.482 564.76C554.675 563.695 553.252 562.156 552.212 560.145C551.172 558.134 550.653 555.722 550.653 552.909C550.653 550.088 551.177 547.676 552.225 545.673C553.273 543.662 554.701 542.124 556.508 541.058C558.315 539.993 560.36 539.46 562.644 539.46C564.101 539.46 565.457 539.665 566.709 540.074C567.962 540.483 569.079 541.084 570.059 541.876C571.039 542.661 571.844 543.624 572.475 544.766C573.114 545.899 573.532 547.195 573.728 548.652ZM586.432 566.384C584.514 566.384 582.853 565.962 581.446 565.118C580.04 564.274 578.949 563.094 578.174 561.577C577.407 560.06 577.023 558.287 577.023 556.259C577.023 554.23 577.407 552.453 578.174 550.928C578.949 549.402 580.04 548.217 581.446 547.374C582.853 546.53 584.514 546.108 586.432 546.108C588.35 546.108 590.012 546.53 591.418 547.374C592.824 548.217 593.911 549.402 594.678 550.928C595.453 552.453 595.841 554.23 595.841 556.259C595.841 558.287 595.453 560.06 594.678 561.577C593.911 563.094 592.824 564.274 591.418 565.118C590.012 565.962 588.35 566.384 586.432 566.384ZM586.458 562.676C587.497 562.676 588.367 562.391 589.066 561.82C589.764 561.24 590.284 560.464 590.625 559.493C590.975 558.521 591.149 557.439 591.149 556.246C591.149 555.044 590.975 553.957 590.625 552.986C590.284 552.006 589.764 551.226 589.066 550.646C588.367 550.067 587.497 549.777 586.458 549.777C585.392 549.777 584.506 550.067 583.799 550.646C583.1 551.226 582.576 552.006 582.226 552.986C581.885 553.957 581.715 555.044 581.715 556.246C581.715 557.439 581.885 558.521 582.226 559.493C582.576 560.464 583.1 561.24 583.799 561.82C584.506 562.391 585.392 562.676 586.458 562.676ZM599.769 566V546.364H604.192V549.7H604.422C604.832 548.575 605.509 547.697 606.455 547.067C607.401 546.428 608.53 546.108 609.843 546.108C611.172 546.108 612.293 546.432 613.205 547.08C614.126 547.719 614.773 548.592 615.148 549.7H615.353C615.788 548.609 616.52 547.74 617.552 547.092C618.592 546.436 619.823 546.108 621.246 546.108C623.053 546.108 624.528 546.679 625.67 547.821C626.812 548.963 627.383 550.629 627.383 552.82V566H622.742V553.536C622.742 552.317 622.418 551.426 621.77 550.864C621.123 550.293 620.33 550.007 619.393 550.007C618.276 550.007 617.403 550.357 616.772 551.055C616.15 551.746 615.839 552.645 615.839 553.753V566H611.3V553.344C611.3 552.33 610.994 551.52 610.38 550.915C609.775 550.31 608.982 550.007 608.002 550.007C607.337 550.007 606.732 550.178 606.187 550.518C605.641 550.851 605.207 551.324 604.883 551.938C604.559 552.543 604.397 553.25 604.397 554.06V566H599.769ZM632.078 573.364V546.364H636.629V549.611H636.897C637.136 549.134 637.473 548.626 637.907 548.089C638.342 547.544 638.93 547.08 639.671 546.696C640.413 546.304 641.359 546.108 642.509 546.108C644.027 546.108 645.394 546.496 646.613 547.271C647.84 548.038 648.812 549.176 649.528 550.685C650.252 552.185 650.615 554.026 650.615 556.207C650.615 558.364 650.261 560.196 649.554 561.705C648.846 563.213 647.883 564.364 646.664 565.156C645.446 565.949 644.065 566.345 642.522 566.345C641.397 566.345 640.464 566.158 639.723 565.783C638.981 565.408 638.384 564.956 637.933 564.428C637.49 563.891 637.144 563.384 636.897 562.906H636.706V573.364H632.078ZM636.616 556.182C636.616 557.452 636.795 558.564 637.153 559.518C637.519 560.473 638.044 561.219 638.725 561.756C639.416 562.284 640.251 562.548 641.231 562.548C642.254 562.548 643.11 562.276 643.801 561.73C644.491 561.176 645.011 560.422 645.36 559.467C645.718 558.504 645.897 557.409 645.897 556.182C645.897 554.963 645.723 553.881 645.373 552.935C645.024 551.989 644.504 551.247 643.813 550.71C643.123 550.173 642.262 549.905 641.231 549.905C640.242 549.905 639.403 550.165 638.713 550.685C638.022 551.205 637.498 551.933 637.14 552.871C636.791 553.808 636.616 554.912 636.616 556.182ZM660.228 566.396C658.984 566.396 657.863 566.175 656.866 565.732C655.877 565.28 655.093 564.615 654.514 563.737C653.943 562.859 653.657 561.777 653.657 560.49C653.657 559.382 653.862 558.466 654.271 557.741C654.68 557.017 655.238 556.438 655.946 556.003C656.653 555.568 657.45 555.24 658.336 555.018C659.231 554.788 660.156 554.622 661.11 554.52C662.261 554.401 663.194 554.294 663.91 554.2C664.626 554.098 665.146 553.945 665.47 553.74C665.802 553.527 665.968 553.199 665.968 552.756V552.679C665.968 551.716 665.683 550.97 665.112 550.442C664.541 549.913 663.718 549.649 662.644 549.649C661.511 549.649 660.612 549.896 659.947 550.391C659.291 550.885 658.848 551.469 658.617 552.142L654.296 551.528C654.637 550.335 655.2 549.338 655.984 548.537C656.768 547.727 657.727 547.122 658.86 546.722C659.994 546.312 661.247 546.108 662.619 546.108C663.565 546.108 664.507 546.219 665.444 546.44C666.382 546.662 667.238 547.028 668.014 547.54C668.789 548.043 669.411 548.729 669.88 549.598C670.358 550.467 670.596 551.554 670.596 552.858V566H666.147V563.303H665.994C665.713 563.848 665.316 564.359 664.805 564.837C664.302 565.305 663.667 565.685 662.9 565.974C662.142 566.256 661.251 566.396 660.228 566.396ZM661.43 562.996C662.359 562.996 663.164 562.812 663.846 562.446C664.528 562.071 665.052 561.577 665.419 560.963C665.794 560.349 665.981 559.68 665.981 558.956V556.642C665.836 556.761 665.589 556.872 665.24 556.974C664.899 557.077 664.515 557.166 664.089 557.243C663.663 557.32 663.241 557.388 662.823 557.447C662.406 557.507 662.044 557.558 661.737 557.601C661.046 557.695 660.429 557.848 659.883 558.061C659.338 558.274 658.907 558.572 658.592 558.956C658.277 559.331 658.119 559.817 658.119 560.413C658.119 561.266 658.43 561.909 659.052 562.344C659.674 562.778 660.467 562.996 661.43 562.996ZM679.877 554.494V566H675.25V546.364H679.673V549.7H679.903C680.355 548.601 681.075 547.727 682.063 547.08C683.061 546.432 684.292 546.108 685.758 546.108C687.113 546.108 688.294 546.398 689.299 546.977C690.313 547.557 691.098 548.396 691.652 549.496C692.214 550.595 692.491 551.929 692.482 553.497V566H687.855V554.213C687.855 552.901 687.514 551.874 686.832 551.132C686.159 550.391 685.225 550.02 684.032 550.02C683.223 550.02 682.502 550.199 681.872 550.557C681.25 550.906 680.759 551.413 680.402 552.078C680.052 552.743 679.877 553.548 679.877 554.494ZM697.187 566V546.364H701.815V566H697.187ZM699.514 543.577C698.781 543.577 698.15 543.334 697.622 542.848C697.093 542.354 696.829 541.761 696.829 541.071C696.829 540.372 697.093 539.78 697.622 539.294C698.15 538.8 698.781 538.553 699.514 538.553C700.255 538.553 700.886 538.8 701.406 539.294C701.934 539.78 702.198 540.372 702.198 541.071C702.198 541.761 701.934 542.354 701.406 542.848C700.886 543.334 700.255 543.577 699.514 543.577ZM712.224 566.396C710.98 566.396 709.859 566.175 708.862 565.732C707.873 565.28 707.089 564.615 706.51 563.737C705.939 562.859 705.653 561.777 705.653 560.49C705.653 559.382 705.858 558.466 706.267 557.741C706.676 557.017 707.234 556.438 707.942 556.003C708.649 555.568 709.446 555.24 710.332 555.018C711.227 554.788 712.152 554.622 713.106 554.52C714.257 554.401 715.19 554.294 715.906 554.2C716.622 554.098 717.142 553.945 717.466 553.74C717.798 553.527 717.964 553.199 717.964 552.756V552.679C717.964 551.716 717.679 550.97 717.108 550.442C716.537 549.913 715.714 549.649 714.641 549.649C713.507 549.649 712.608 549.896 711.943 550.391C711.287 550.885 710.844 551.469 710.614 552.142L706.293 551.528C706.633 550.335 707.196 549.338 707.98 548.537C708.764 547.727 709.723 547.122 710.856 546.722C711.99 546.312 713.243 546.108 714.615 546.108C715.561 546.108 716.503 546.219 717.44 546.44C718.378 546.662 719.234 547.028 720.01 547.54C720.785 548.043 721.408 548.729 721.876 549.598C722.354 550.467 722.592 551.554 722.592 552.858V566H718.143V563.303H717.99C717.709 563.848 717.312 564.359 716.801 564.837C716.298 565.305 715.663 565.685 714.896 565.974C714.138 566.256 713.247 566.396 712.224 566.396ZM713.426 562.996C714.355 562.996 715.16 562.812 715.842 562.446C716.524 562.071 717.048 561.577 717.415 560.963C717.79 560.349 717.977 559.68 717.977 558.956V556.642C717.832 556.761 717.585 556.872 717.236 556.974C716.895 557.077 716.511 557.166 716.085 557.243C715.659 557.32 715.237 557.388 714.82 557.447C714.402 557.507 714.04 557.558 713.733 557.601C713.043 557.695 712.425 557.848 711.879 558.061C711.334 558.274 710.903 558.572 710.588 558.956C710.273 559.331 710.115 559.817 710.115 560.413C710.115 561.266 710.426 561.909 711.048 562.344C711.67 562.778 712.463 562.996 713.426 562.996Z" fill="white"/>
<path d="M238.333 623V621.261C238.333 620.761 238.427 620.241 238.614 619.702C238.807 619.156 239.069 618.642 239.398 618.159C239.734 617.67 240.109 617.259 240.523 616.923L241.955 617.852C241.62 618.358 241.339 618.886 241.111 619.438C240.89 619.983 240.782 620.585 240.788 621.244V623H238.333ZM242.654 623V621.261C242.654 620.761 242.748 620.241 242.935 619.702C243.128 619.156 243.39 618.642 243.719 618.159C244.055 617.67 244.43 617.259 244.844 616.923L246.276 617.852C245.941 618.358 245.66 618.886 245.432 619.438C245.211 619.983 245.103 620.585 245.109 621.244V623H242.654ZM248.582 635V617.545H259.763V620.196H251.744V624.935H258.996V627.585H251.744V635H248.582ZM262.508 635V621.909H265.593V635H262.508ZM264.059 620.051C263.57 620.051 263.15 619.889 262.798 619.565C262.445 619.236 262.269 618.841 262.269 618.381C262.269 617.915 262.445 617.52 262.798 617.196C263.15 616.866 263.57 616.702 264.059 616.702C264.553 616.702 264.974 616.866 265.32 617.196C265.673 617.52 265.849 617.915 265.849 618.381C265.849 618.841 265.673 619.236 265.32 619.565C264.974 619.889 264.553 620.051 264.059 620.051ZM271.851 617.545V635H268.766V617.545H271.851ZM278.109 617.545V635H275.023V617.545H278.109ZM293.771 621.909V624.295H286.246V621.909H293.771ZM288.104 618.773H291.189V631.062C291.189 631.477 291.251 631.795 291.376 632.017C291.507 632.233 291.677 632.381 291.888 632.46C292.098 632.54 292.331 632.58 292.587 632.58C292.78 632.58 292.956 632.565 293.115 632.537C293.28 632.509 293.405 632.483 293.49 632.46L294.01 634.872C293.845 634.929 293.609 634.991 293.302 635.06C293.001 635.128 292.632 635.168 292.195 635.179C291.422 635.202 290.726 635.085 290.106 634.83C289.487 634.568 288.996 634.165 288.632 633.619C288.274 633.074 288.098 632.392 288.104 631.574V618.773ZM299.718 627.33V635H296.633V617.545H299.65V624.134H299.803C300.11 623.395 300.584 622.812 301.226 622.386C301.874 621.955 302.698 621.739 303.698 621.739C304.607 621.739 305.4 621.929 306.076 622.31C306.752 622.69 307.275 623.247 307.644 623.98C308.019 624.713 308.207 625.608 308.207 626.665V635H305.121V627.142C305.121 626.261 304.894 625.577 304.44 625.088C303.991 624.594 303.36 624.347 302.548 624.347C302.002 624.347 301.513 624.466 301.082 624.705C300.655 624.937 300.32 625.276 300.076 625.719C299.837 626.162 299.718 626.699 299.718 627.33ZM311.351 635V621.909H314.437V635H311.351ZM312.903 620.051C312.414 620.051 311.994 619.889 311.641 619.565C311.289 619.236 311.113 618.841 311.113 618.381C311.113 617.915 311.289 617.52 311.641 617.196C311.994 616.866 312.414 616.702 312.903 616.702C313.397 616.702 313.817 616.866 314.164 617.196C314.516 617.52 314.692 617.915 314.692 618.381C314.692 618.841 314.516 619.236 314.164 619.565C313.817 619.889 313.397 620.051 312.903 620.051ZM327.956 625.369L325.143 625.676C325.064 625.392 324.925 625.125 324.726 624.875C324.533 624.625 324.271 624.423 323.942 624.27C323.612 624.116 323.209 624.04 322.731 624.04C322.089 624.04 321.55 624.179 321.112 624.457C320.68 624.736 320.467 625.097 320.473 625.54C320.467 625.92 320.606 626.23 320.891 626.469C321.18 626.707 321.658 626.903 322.322 627.057L324.555 627.534C325.794 627.801 326.714 628.224 327.317 628.804C327.925 629.384 328.231 630.142 328.237 631.08C328.231 631.903 327.99 632.631 327.513 633.261C327.041 633.886 326.385 634.375 325.544 634.727C324.703 635.08 323.737 635.256 322.646 635.256C321.044 635.256 319.754 634.92 318.777 634.25C317.8 633.574 317.217 632.634 317.03 631.429L320.038 631.139C320.175 631.73 320.464 632.176 320.908 632.477C321.351 632.778 321.927 632.929 322.638 632.929C323.371 632.929 323.959 632.778 324.402 632.477C324.851 632.176 325.075 631.804 325.075 631.361C325.075 630.986 324.93 630.676 324.641 630.432C324.356 630.187 323.913 630 323.311 629.869L321.078 629.401C319.822 629.139 318.893 628.699 318.291 628.08C317.689 627.455 317.391 626.665 317.396 625.71C317.391 624.903 317.609 624.205 318.052 623.614C318.501 623.017 319.124 622.557 319.919 622.233C320.72 621.903 321.643 621.739 322.689 621.739C324.223 621.739 325.43 622.065 326.311 622.719C327.197 623.372 327.746 624.256 327.956 625.369ZM347.081 625.369L344.268 625.676C344.189 625.392 344.05 625.125 343.851 624.875C343.658 624.625 343.396 624.423 343.067 624.27C342.737 624.116 342.334 624.04 341.856 624.04C341.214 624.04 340.675 624.179 340.237 624.457C339.805 624.736 339.592 625.097 339.598 625.54C339.592 625.92 339.731 626.23 340.016 626.469C340.305 626.707 340.783 626.903 341.447 627.057L343.68 627.534C344.919 627.801 345.839 628.224 346.442 628.804C347.05 629.384 347.356 630.142 347.362 631.08C347.356 631.903 347.115 632.631 346.638 633.261C346.166 633.886 345.51 634.375 344.669 634.727C343.828 635.08 342.862 635.256 341.771 635.256C340.169 635.256 338.879 634.92 337.902 634.25C336.925 633.574 336.342 632.634 336.155 631.429L339.163 631.139C339.3 631.73 339.589 632.176 340.033 632.477C340.476 632.778 341.052 632.929 341.763 632.929C342.496 632.929 343.084 632.778 343.527 632.477C343.976 632.176 344.2 631.804 344.2 631.361C344.2 630.986 344.055 630.676 343.766 630.432C343.481 630.187 343.038 630 342.436 629.869L340.203 629.401C338.947 629.139 338.018 628.699 337.416 628.08C336.814 627.455 336.516 626.665 336.521 625.71C336.516 624.903 336.734 624.205 337.177 623.614C337.626 623.017 338.249 622.557 339.044 622.233C339.845 621.903 340.768 621.739 341.814 621.739C343.348 621.739 344.555 622.065 345.436 622.719C346.322 623.372 346.871 624.256 347.081 625.369ZM349.906 639.909V621.909H352.94V624.074H353.119C353.278 623.756 353.503 623.418 353.793 623.06C354.082 622.696 354.474 622.386 354.969 622.131C355.463 621.869 356.094 621.739 356.861 621.739C357.872 621.739 358.784 621.997 359.597 622.514C360.415 623.026 361.062 623.784 361.54 624.79C362.023 625.79 362.264 627.017 362.264 628.472C362.264 629.909 362.028 631.131 361.557 632.136C361.085 633.142 360.443 633.909 359.631 634.438C358.818 634.966 357.898 635.23 356.869 635.23C356.119 635.23 355.497 635.105 355.003 634.855C354.508 634.605 354.111 634.304 353.81 633.952C353.514 633.594 353.284 633.256 353.119 632.938H352.991V639.909H349.906ZM352.932 628.455C352.932 629.301 353.051 630.043 353.29 630.679C353.534 631.315 353.883 631.812 354.338 632.17C354.798 632.523 355.355 632.699 356.008 632.699C356.69 632.699 357.261 632.517 357.722 632.153C358.182 631.784 358.528 631.281 358.761 630.645C359 630.003 359.119 629.273 359.119 628.455C359.119 627.642 359.003 626.92 358.77 626.29C358.537 625.659 358.19 625.165 357.73 624.807C357.27 624.449 356.696 624.27 356.008 624.27C355.349 624.27 354.79 624.443 354.329 624.79C353.869 625.136 353.52 625.622 353.281 626.247C353.048 626.872 352.932 627.608 352.932 628.455ZM364.906 635V621.909H367.898V624.091H368.034C368.273 623.335 368.682 622.753 369.261 622.344C369.847 621.929 370.514 621.722 371.264 621.722C371.435 621.722 371.625 621.73 371.835 621.747C372.051 621.759 372.23 621.778 372.372 621.807V624.645C372.241 624.599 372.034 624.56 371.75 624.526C371.472 624.486 371.202 624.466 370.94 624.466C370.378 624.466 369.872 624.588 369.423 624.832C368.98 625.071 368.631 625.403 368.375 625.83C368.119 626.256 367.991 626.747 367.991 627.304V635H364.906ZM379.678 635.256C378.366 635.256 377.232 634.983 376.278 634.438C375.329 633.886 374.599 633.108 374.087 632.102C373.576 631.091 373.32 629.901 373.32 628.531C373.32 627.185 373.576 626.003 374.087 624.986C374.604 623.963 375.326 623.168 376.252 622.599C377.178 622.026 378.266 621.739 379.516 621.739C380.323 621.739 381.084 621.869 381.8 622.131C382.522 622.386 383.158 622.784 383.709 623.324C384.266 623.864 384.704 624.551 385.022 625.386C385.34 626.216 385.499 627.205 385.499 628.352V629.298H374.769V627.219H382.542C382.536 626.628 382.408 626.102 382.158 625.642C381.908 625.176 381.559 624.81 381.11 624.543C380.667 624.276 380.15 624.142 379.559 624.142C378.928 624.142 378.374 624.295 377.897 624.602C377.42 624.903 377.048 625.301 376.78 625.795C376.519 626.284 376.386 626.821 376.38 627.406V629.222C376.38 629.983 376.519 630.636 376.798 631.182C377.076 631.722 377.465 632.136 377.965 632.426C378.465 632.71 379.05 632.852 379.721 632.852C380.17 632.852 380.576 632.79 380.94 632.665C381.303 632.534 381.619 632.344 381.886 632.094C382.153 631.844 382.354 631.534 382.491 631.165L385.371 631.489C385.19 632.25 384.843 632.915 384.332 633.483C383.826 634.045 383.178 634.483 382.388 634.795C381.599 635.102 380.695 635.256 379.678 635.256ZM391.876 635.264C391.047 635.264 390.3 635.116 389.635 634.821C388.976 634.52 388.453 634.077 388.067 633.491C387.686 632.906 387.496 632.185 387.496 631.327C387.496 630.588 387.632 629.977 387.905 629.494C388.177 629.011 388.55 628.625 389.021 628.335C389.493 628.045 390.024 627.827 390.615 627.679C391.212 627.526 391.828 627.415 392.464 627.347C393.231 627.267 393.854 627.196 394.331 627.134C394.808 627.065 395.155 626.963 395.371 626.827C395.592 626.685 395.703 626.466 395.703 626.17V626.119C395.703 625.477 395.513 624.98 395.132 624.628C394.751 624.276 394.203 624.099 393.487 624.099C392.731 624.099 392.132 624.264 391.689 624.594C391.251 624.923 390.956 625.312 390.802 625.761L387.922 625.352C388.149 624.557 388.524 623.892 389.047 623.358C389.57 622.818 390.209 622.415 390.964 622.148C391.72 621.875 392.555 621.739 393.47 621.739C394.101 621.739 394.729 621.812 395.354 621.96C395.979 622.108 396.55 622.352 397.067 622.693C397.584 623.028 397.999 623.486 398.311 624.065C398.629 624.645 398.788 625.369 398.788 626.239V635H395.822V633.202H395.72C395.533 633.565 395.268 633.906 394.927 634.224C394.592 634.537 394.169 634.79 393.658 634.983C393.152 635.17 392.558 635.264 391.876 635.264ZM392.677 632.997C393.297 632.997 393.834 632.875 394.288 632.631C394.743 632.381 395.092 632.051 395.337 631.642C395.587 631.233 395.712 630.787 395.712 630.304V628.761C395.615 628.841 395.45 628.915 395.217 628.983C394.99 629.051 394.734 629.111 394.45 629.162C394.166 629.213 393.885 629.259 393.606 629.298C393.328 629.338 393.087 629.372 392.882 629.401C392.422 629.463 392.01 629.565 391.646 629.707C391.283 629.849 390.996 630.048 390.785 630.304C390.575 630.554 390.47 630.878 390.47 631.276C390.47 631.844 390.677 632.273 391.092 632.562C391.507 632.852 392.035 632.997 392.677 632.997ZM406.749 635.23C405.72 635.23 404.8 634.966 403.987 634.438C403.175 633.909 402.533 633.142 402.061 632.136C401.589 631.131 401.354 629.909 401.354 628.472C401.354 627.017 401.592 625.79 402.07 624.79C402.552 623.784 403.203 623.026 404.021 622.514C404.839 621.997 405.751 621.739 406.757 621.739C407.524 621.739 408.155 621.869 408.649 622.131C409.143 622.386 409.535 622.696 409.825 623.06C410.115 623.418 410.339 623.756 410.499 624.074H410.626V617.545H413.72V635H410.686V632.938H410.499C410.339 633.256 410.109 633.594 409.808 633.952C409.507 634.304 409.109 634.605 408.615 634.855C408.121 635.105 407.499 635.23 406.749 635.23ZM407.609 632.699C408.263 632.699 408.82 632.523 409.28 632.17C409.74 631.812 410.089 631.315 410.328 630.679C410.567 630.043 410.686 629.301 410.686 628.455C410.686 627.608 410.567 626.872 410.328 626.247C410.095 625.622 409.749 625.136 409.288 624.79C408.834 624.443 408.274 624.27 407.609 624.27C406.922 624.27 406.348 624.449 405.888 624.807C405.427 625.165 405.081 625.659 404.848 626.29C404.615 626.92 404.499 627.642 404.499 628.455C404.499 629.273 404.615 630.003 404.848 630.645C405.087 631.281 405.436 631.784 405.896 632.153C406.362 632.517 406.933 632.699 407.609 632.699ZM427.354 625.369L424.542 625.676C424.462 625.392 424.323 625.125 424.124 624.875C423.931 624.625 423.67 624.423 423.34 624.27C423.011 624.116 422.607 624.04 422.13 624.04C421.488 624.04 420.948 624.179 420.511 624.457C420.079 624.736 419.866 625.097 419.871 625.54C419.866 625.92 420.005 626.23 420.289 626.469C420.579 626.707 421.056 626.903 421.721 627.057L423.954 627.534C425.192 627.801 426.113 628.224 426.715 628.804C427.323 629.384 427.63 630.142 427.636 631.08C427.63 631.903 427.388 632.631 426.911 633.261C426.44 633.886 425.783 634.375 424.942 634.727C424.101 635.08 423.136 635.256 422.045 635.256C420.442 635.256 419.153 634.92 418.175 634.25C417.198 633.574 416.616 632.634 416.428 631.429L419.437 631.139C419.573 631.73 419.863 632.176 420.306 632.477C420.749 632.778 421.326 632.929 422.036 632.929C422.769 632.929 423.357 632.778 423.8 632.477C424.249 632.176 424.474 631.804 424.474 631.361C424.474 630.986 424.329 630.676 424.039 630.432C423.755 630.187 423.312 630 422.709 629.869L420.476 629.401C419.221 629.139 418.292 628.699 417.69 628.08C417.087 627.455 416.789 626.665 416.795 625.71C416.789 624.903 417.008 624.205 417.451 623.614C417.9 623.017 418.522 622.557 419.317 622.233C420.119 621.903 421.042 621.739 422.087 621.739C423.621 621.739 424.829 622.065 425.709 622.719C426.596 623.372 427.144 624.256 427.354 625.369ZM433.265 627.33V635H430.18V617.545H433.197V624.134H433.35C433.657 623.395 434.131 622.812 434.773 622.386C435.421 621.955 436.245 621.739 437.245 621.739C438.154 621.739 438.947 621.929 439.623 622.31C440.299 622.69 440.822 623.247 441.191 623.98C441.566 624.713 441.753 625.608 441.753 626.665V635H438.668V627.142C438.668 626.261 438.441 625.577 437.986 625.088C437.538 624.594 436.907 624.347 436.094 624.347C435.549 624.347 435.06 624.466 434.628 624.705C434.202 624.937 433.867 625.276 433.623 625.719C433.384 626.162 433.265 626.699 433.265 627.33ZM450.694 635.256C449.381 635.256 448.248 634.983 447.293 634.438C446.344 633.886 445.614 633.108 445.103 632.102C444.592 631.091 444.336 629.901 444.336 628.531C444.336 627.185 444.592 626.003 445.103 624.986C445.62 623.963 446.342 623.168 447.268 622.599C448.194 622.026 449.282 621.739 450.532 621.739C451.339 621.739 452.1 621.869 452.816 622.131C453.538 622.386 454.174 622.784 454.725 623.324C455.282 623.864 455.719 624.551 456.038 625.386C456.356 626.216 456.515 627.205 456.515 628.352V629.298H445.785V627.219H453.557C453.552 626.628 453.424 626.102 453.174 625.642C452.924 625.176 452.575 624.81 452.126 624.543C451.682 624.276 451.165 624.142 450.575 624.142C449.944 624.142 449.39 624.295 448.913 624.602C448.435 624.903 448.063 625.301 447.796 625.795C447.535 626.284 447.401 626.821 447.396 627.406V629.222C447.396 629.983 447.535 630.636 447.813 631.182C448.092 631.722 448.481 632.136 448.981 632.426C449.481 632.71 450.066 632.852 450.736 632.852C451.185 632.852 451.592 632.79 451.955 632.665C452.319 632.534 452.634 632.344 452.901 632.094C453.168 631.844 453.37 631.534 453.506 631.165L456.387 631.489C456.205 632.25 455.859 632.915 455.347 633.483C454.842 634.045 454.194 634.483 453.404 634.795C452.614 635.102 451.711 635.256 450.694 635.256ZM464.92 635.256C463.608 635.256 462.474 634.983 461.52 634.438C460.571 633.886 459.841 633.108 459.329 632.102C458.818 631.091 458.562 629.901 458.562 628.531C458.562 627.185 458.818 626.003 459.329 624.986C459.847 623.963 460.568 623.168 461.494 622.599C462.42 622.026 463.508 621.739 464.758 621.739C465.565 621.739 466.327 621.869 467.043 622.131C467.764 622.386 468.4 622.784 468.952 623.324C469.508 623.864 469.946 624.551 470.264 625.386C470.582 626.216 470.741 627.205 470.741 628.352V629.298H460.011V627.219H467.784C467.778 626.628 467.65 626.102 467.4 625.642C467.15 625.176 466.801 624.81 466.352 624.543C465.909 624.276 465.392 624.142 464.801 624.142C464.17 624.142 463.616 624.295 463.139 624.602C462.662 624.903 462.29 625.301 462.023 625.795C461.761 626.284 461.628 626.821 461.622 627.406V629.222C461.622 629.983 461.761 630.636 462.04 631.182C462.318 631.722 462.707 632.136 463.207 632.426C463.707 632.71 464.293 632.852 464.963 632.852C465.412 632.852 465.818 632.79 466.182 632.665C466.545 632.534 466.861 632.344 467.128 632.094C467.395 631.844 467.597 631.534 467.733 631.165L470.614 631.489C470.432 632.25 470.085 632.915 469.574 633.483C469.068 634.045 468.42 634.483 467.631 634.795C466.841 635.102 465.937 635.256 464.92 635.256ZM479.888 621.909V624.295H472.363V621.909H479.888ZM474.221 618.773H477.306V631.062C477.306 631.477 477.369 631.795 477.494 632.017C477.624 632.233 477.795 632.381 478.005 632.46C478.215 632.54 478.448 632.58 478.704 632.58C478.897 632.58 479.073 632.565 479.232 632.537C479.397 632.509 479.522 632.483 479.607 632.46L480.127 634.872C479.962 634.929 479.726 634.991 479.42 635.06C479.119 635.128 478.749 635.168 478.312 635.179C477.539 635.202 476.843 635.085 476.224 634.83C475.604 634.568 475.113 634.165 474.749 633.619C474.391 633.074 474.215 632.392 474.221 631.574V618.773ZM495.052 621.909V624.295H487.314V621.909H495.052ZM489.249 635V620.673C489.249 619.793 489.43 619.06 489.794 618.474C490.163 617.889 490.658 617.452 491.277 617.162C491.896 616.872 492.584 616.727 493.339 616.727C493.874 616.727 494.348 616.77 494.763 616.855C495.177 616.94 495.484 617.017 495.683 617.085L495.07 619.472C494.939 619.432 494.774 619.392 494.575 619.352C494.376 619.307 494.155 619.284 493.91 619.284C493.337 619.284 492.93 619.423 492.692 619.702C492.459 619.974 492.342 620.366 492.342 620.878V635H489.249ZM502.687 635.256C501.408 635.256 500.3 634.974 499.363 634.412C498.425 633.849 497.698 633.062 497.181 632.051C496.67 631.04 496.414 629.858 496.414 628.506C496.414 627.153 496.67 625.969 497.181 624.952C497.698 623.935 498.425 623.145 499.363 622.582C500.3 622.02 501.408 621.739 502.687 621.739C503.965 621.739 505.073 622.02 506.011 622.582C506.948 623.145 507.673 623.935 508.184 624.952C508.701 625.969 508.959 627.153 508.959 628.506C508.959 629.858 508.701 631.04 508.184 632.051C507.673 633.062 506.948 633.849 506.011 634.412C505.073 634.974 503.965 635.256 502.687 635.256ZM502.704 632.784C503.397 632.784 503.976 632.594 504.442 632.213C504.908 631.827 505.255 631.31 505.482 630.662C505.715 630.014 505.832 629.293 505.832 628.497C505.832 627.696 505.715 626.972 505.482 626.324C505.255 625.67 504.908 625.151 504.442 624.764C503.976 624.378 503.397 624.185 502.704 624.185C501.994 624.185 501.403 624.378 500.931 624.764C500.465 625.151 500.116 625.67 499.883 626.324C499.655 626.972 499.542 627.696 499.542 628.497C499.542 629.293 499.655 630.014 499.883 630.662C500.116 631.31 500.465 631.827 500.931 632.213C501.403 632.594 501.994 632.784 502.704 632.784ZM511.578 635V621.909H514.57V624.091H514.706C514.945 623.335 515.354 622.753 515.933 622.344C516.518 621.929 517.186 621.722 517.936 621.722C518.106 621.722 518.297 621.73 518.507 621.747C518.723 621.759 518.902 621.778 519.044 621.807V624.645C518.913 624.599 518.706 624.56 518.422 624.526C518.143 624.486 517.874 624.466 517.612 624.466C517.05 624.466 516.544 624.588 516.095 624.832C515.652 625.071 515.302 625.403 515.047 625.83C514.791 626.256 514.663 626.747 514.663 627.304V635H511.578ZM527.047 635V621.909H529.996V624.134H530.149C530.422 623.384 530.873 622.798 531.504 622.378C532.135 621.952 532.888 621.739 533.763 621.739C534.649 621.739 535.396 621.955 536.004 622.386C536.618 622.812 537.05 623.395 537.3 624.134H537.436C537.726 623.406 538.214 622.827 538.902 622.395C539.595 621.957 540.416 621.739 541.365 621.739C542.57 621.739 543.552 622.119 544.314 622.881C545.075 623.642 545.456 624.753 545.456 626.213V635H542.362V626.69C542.362 625.878 542.146 625.284 541.714 624.909C541.283 624.528 540.754 624.338 540.129 624.338C539.385 624.338 538.802 624.571 538.382 625.037C537.967 625.497 537.76 626.097 537.76 626.835V635H534.734V626.562C534.734 625.886 534.53 625.347 534.121 624.943C533.717 624.54 533.189 624.338 532.535 624.338C532.092 624.338 531.689 624.452 531.325 624.679C530.962 624.901 530.672 625.216 530.456 625.625C530.24 626.028 530.132 626.5 530.132 627.04V635H527.047ZM554.381 635.256C553.069 635.256 551.935 634.983 550.981 634.438C550.032 633.886 549.302 633.108 548.79 632.102C548.279 631.091 548.023 629.901 548.023 628.531C548.023 627.185 548.279 626.003 548.79 624.986C549.307 623.963 550.029 623.168 550.955 622.599C551.881 622.026 552.969 621.739 554.219 621.739C555.026 621.739 555.788 621.869 556.503 622.131C557.225 622.386 557.861 622.784 558.413 623.324C558.969 623.864 559.407 624.551 559.725 625.386C560.043 626.216 560.202 627.205 560.202 628.352V629.298H549.472V627.219H557.245C557.239 626.628 557.111 626.102 556.861 625.642C556.611 625.176 556.262 624.81 555.813 624.543C555.37 624.276 554.853 624.142 554.262 624.142C553.631 624.142 553.077 624.295 552.6 624.602C552.123 624.903 551.751 625.301 551.484 625.795C551.222 626.284 551.089 626.821 551.083 627.406V629.222C551.083 629.983 551.222 630.636 551.501 631.182C551.779 631.722 552.168 632.136 552.668 632.426C553.168 632.71 553.753 632.852 554.424 632.852C554.873 632.852 555.279 632.79 555.643 632.665C556.006 632.534 556.322 632.344 556.589 632.094C556.856 631.844 557.057 631.534 557.194 631.165L560.074 631.489C559.893 632.25 559.546 632.915 559.035 633.483C558.529 634.045 557.881 634.483 557.092 634.795C556.302 635.102 555.398 635.256 554.381 635.256ZM565.429 617.545V619.284C565.429 619.784 565.332 620.304 565.139 620.844C564.952 621.378 564.693 621.889 564.364 622.378C564.034 622.861 563.659 623.276 563.239 623.622L561.807 622.693C562.119 622.222 562.392 621.713 562.625 621.168C562.858 620.616 562.974 619.994 562.974 619.301V617.545H565.429ZM569.733 617.545V619.284C569.733 619.784 569.636 620.304 569.443 620.844C569.256 621.378 568.997 621.889 568.668 622.378C568.338 622.861 567.966 623.276 567.551 623.622L566.119 622.693C566.426 622.222 566.696 621.713 566.929 621.168C567.162 620.616 567.278 619.994 567.278 619.301V617.545H569.733Z" fill="white"/>
</svg>
